# Blender v2.90.1 OBJ File: 'ScrapCannon (1).blend'
# www.blender.org
mtllib CannonBall.mtl
o Cylinder
v 0.252089 -0.107655 -0.148174
v 0.096289 -0.174189 -0.239751
v -0.096290 -0.174189 -0.239751
v -0.252089 -0.107655 -0.148174
v 0.252089 -0.174189 -0.056597
v 0.096289 -0.281844 -0.091577
v -0.096290 -0.281844 -0.091577
v -0.252089 -0.174189 -0.056597
v 0.252089 -0.174189 0.056598
v 0.096289 -0.281844 0.091577
v -0.096290 -0.281844 0.091577
v -0.252089 -0.174189 0.056598
v 0.252089 -0.107655 0.148174
v 0.096289 -0.174189 0.239751
v -0.096290 -0.174189 0.239751
v -0.252089 -0.107655 0.148174
v 0.252089 -0.000000 0.183154
v 0.096289 -0.000000 0.296349
v -0.096290 -0.000000 0.296349
v -0.252089 -0.000000 0.183154
v 0.311599 -0.000000 0.000000
v 0.252089 0.107655 0.148174
v 0.096289 0.174189 0.239751
v -0.096290 0.174189 0.239751
v -0.252089 0.107655 0.148174
v 0.252089 0.174189 0.056598
v 0.096289 0.281844 0.091577
v -0.096290 0.281844 0.091577
v -0.252089 0.174189 0.056598
v -0.311600 -0.000000 0.000000
v 0.252089 0.174189 -0.056597
v 0.096289 0.281844 -0.091577
v -0.096290 0.281844 -0.091577
v -0.252089 0.174189 -0.056597
v 0.252089 0.107655 -0.148174
v 0.096289 0.174189 -0.239751
v -0.096290 0.174189 -0.239751
v -0.252089 0.107655 -0.148174
v 0.252089 -0.000000 -0.183153
v 0.096289 -0.000000 -0.296349
v -0.096290 -0.000000 -0.296349
v -0.252089 -0.000000 -0.183153
vt 0.700000 0.200000
vt 0.700000 0.400000
vt 0.600000 0.400000
vt 0.600000 0.200000
vt 0.700000 0.600000
vt 0.700000 0.800000
vt 0.600000 0.800000
vt 0.600000 0.600000
vt 0.650000 0.000000
vt 0.650000 1.000000
vt 0.500000 0.400000
vt 0.500000 0.200000
vt 0.500000 0.800000
vt 0.500000 0.600000
vt 0.550000 0.000000
vt 0.550000 1.000000
vt 0.400000 0.400000
vt 0.400000 0.200000
vt 0.400000 0.800000
vt 0.400000 0.600000
vt 0.450000 0.000000
vt 0.450000 1.000000
vt 0.300000 0.400000
vt 0.300000 0.200000
vt 0.300000 0.800000
vt 0.300000 0.600000
vt 0.350000 0.000000
vt 0.350000 1.000000
vt 0.200000 0.400000
vt 0.200000 0.200000
vt 0.200000 0.800000
vt 0.200000 0.600000
vt 0.250000 0.000000
vt 0.250000 1.000000
vt 0.100000 0.400000
vt 0.100000 0.200000
vt 0.100000 0.800000
vt 0.100000 0.600000
vt 0.150000 0.000000
vt 0.150000 1.000000
vt 0.000000 0.400000
vt 0.000000 0.200000
vt 0.000000 0.800000
vt 0.000000 0.600000
vt 0.050000 0.000000
vt 0.050000 1.000000
vt 1.000000 0.200000
vt 1.000000 0.400000
vt 0.900000 0.400000
vt 0.900000 0.200000
vt 1.000000 0.600000
vt 1.000000 0.800000
vt 0.900000 0.800000
vt 0.900000 0.600000
vt 0.950000 0.000000
vt 0.950000 1.000000
vt 0.800000 0.400000
vt 0.800000 0.200000
vt 0.800000 0.800000
vt 0.800000 0.600000
vt 0.850000 0.000000
vt 0.850000 1.000000
vt 0.750000 0.000000
vt 0.750000 1.000000
vn -0.7804 0.0000 -0.6252
vn -0.2925 0.0000 -0.9563
vn -0.2925 -0.5621 -0.7736
vn -0.7804 -0.3675 -0.5058
vn 0.2925 0.0000 -0.9563
vn 0.7804 0.0000 -0.6252
vn 0.7804 -0.3675 -0.5058
vn 0.2925 -0.5621 -0.7736
vn -1.0000 -0.0000 -0.0000
vn 1.0000 0.0000 0.0000
vn -0.2925 -0.9095 -0.2955
vn -0.7804 -0.5946 -0.1932
vn 0.7804 -0.5946 -0.1932
vn 0.2925 -0.9095 -0.2955
vn -0.2925 -0.9095 0.2955
vn -0.7804 -0.5946 0.1932
vn 0.7804 -0.5946 0.1932
vn 0.2925 -0.9095 0.2955
vn -0.2925 -0.5621 0.7736
vn -0.7804 -0.3675 0.5058
vn 0.7804 -0.3675 0.5058
vn 0.2925 -0.5621 0.7736
vn -0.2925 -0.0000 0.9563
vn -0.7804 -0.0000 0.6252
vn 0.7804 0.0000 0.6252
vn 0.2925 0.0000 0.9563
vn -0.2925 0.5621 0.7736
vn -0.7804 0.3675 0.5058
vn 0.7804 0.3675 0.5058
vn 0.2925 0.5621 0.7736
vn -0.2925 0.9095 0.2955
vn -0.7804 0.5946 0.1932
vn 0.7804 0.5946 0.1932
vn 0.2925 0.9095 0.2955
vn -0.2925 0.9095 -0.2955
vn -0.7804 0.5946 -0.1932
vn 0.7804 0.5946 -0.1932
vn 0.2925 0.9095 -0.2955
vn -0.2925 0.5621 -0.7736
vn -0.7804 0.3675 -0.5058
vn 0.7804 0.3675 -0.5058
vn 0.2925 0.5621 -0.7736
usemtl Material.001
s 1
f 42/1/1 41/2/2 3/3/3 4/4/4
f 40/5/5 39/6/6 1/7/7 2/8/8
f 30/9/9 42/1/1 4/4/4
f 41/2/2 40/5/5 2/8/8 3/3/3
f 39/6/6 21/10/10 1/7/7
f 4/4/4 3/3/3 7/11/11 8/12/12
f 2/8/8 1/7/7 5/13/13 6/14/14
f 30/15/9 4/4/4 8/12/12
f 3/3/3 2/8/8 6/14/14 7/11/11
f 1/7/7 21/16/10 5/13/13
f 8/12/12 7/11/11 11/17/15 12/18/16
f 6/14/14 5/13/13 9/19/17 10/20/18
f 30/21/9 8/12/12 12/18/16
f 7/11/11 6/14/14 10/20/18 11/17/15
f 5/13/13 21/22/10 9/19/17
f 12/18/16 11/17/15 15/23/19 16/24/20
f 10/20/18 9/19/17 13/25/21 14/26/22
f 30/27/9 12/18/16 16/24/20
f 11/17/15 10/20/18 14/26/22 15/23/19
f 9/19/17 21/28/10 13/25/21
f 16/24/20 15/23/19 19/29/23 20/30/24
f 14/26/22 13/25/21 17/31/25 18/32/26
f 30/33/9 16/24/20 20/30/24
f 15/23/19 14/26/22 18/32/26 19/29/23
f 13/25/21 21/34/10 17/31/25
f 20/30/24 19/29/23 24/35/27 25/36/28
f 18/32/26 17/31/25 22/37/29 23/38/30
f 30/39/9 20/30/24 25/36/28
f 19/29/23 18/32/26 23/38/30 24/35/27
f 17/31/25 21/40/10 22/37/29
f 25/36/28 24/35/27 28/41/31 29/42/32
f 23/38/30 22/37/29 26/43/33 27/44/34
f 30/45/9 25/36/28 29/42/32
f 24/35/27 23/38/30 27/44/34 28/41/31
f 22/37/29 21/46/10 26/43/33
f 29/47/32 28/48/31 33/49/35 34/50/36
f 27/51/34 26/52/33 31/53/37 32/54/38
f 30/55/9 29/47/32 34/50/36
f 28/48/31 27/51/34 32/54/38 33/49/35
f 26/52/33 21/56/10 31/53/37
f 34/50/36 33/49/35 37/57/39 38/58/40
f 32/54/38 31/53/37 35/59/41 36/60/42
f 30/61/9 34/50/36 38/58/40
f 33/49/35 32/54/38 36/60/42 37/57/39
f 31/53/37 21/62/10 35/59/41
f 38/58/40 37/57/39 41/2/2 42/1/1
f 36/60/42 35/59/41 39/6/6 40/5/5
f 30/63/9 38/58/40 42/1/1
f 37/57/39 36/60/42 40/5/5 41/2/2
f 35/59/41 21/64/10 39/6/6
