<?xml version="1.0" encoding="utf-8"?>
<COLLADA xmlns="http://www.collada.org/2005/11/COLLADASchema" version="1.4.1">
  <asset><contributor><author></author><authoring_tool>FBX COLLADA exporter</authoring_tool><comments></comments></contributor><created>2026-09-11T20:03:50Z</created><keywords></keywords><modified>2026-09-11T20:03:50Z</modified><revision></revision><subject></subject><title></title><unit meter="0.010000" name="centimeter"></unit><up_axis>Y_UP</up_axis></asset>
  <library_animations>
    <animation id="Armature.003-anim" name="Armature.003"><animation><source id="Armature.003-Matrix-animation-input"><float_array id="Armature.003-Matrix-animation-input-array" count="60">

0.000000 0.033333 0.066667 0.100000 0.133333 0.166667 0.200000 0.233333 0.266667 0.300000 0.333333 0.366667 0.400000 0.433333 0.466667 0.500000
0.533333 0.566667 0.600000 0.633333 0.666667 0.700000 0.733333 0.766667 0.800000 0.833333 0.866667 0.900000 0.933333 0.966667 1.000000 1.033333
1.066667 1.100000 1.133333 1.166667 1.200000 1.233333 1.266667 1.300000 1.333333 1.366667 1.400000 1.433333 1.466667 1.500000 1.533333 1.566667
1.600000 1.633333 1.666667 1.700000 1.733333 1.766667 1.800000 1.833333 1.866667 1.900000 1.933333 1.966667</float_array><technique_common><accessor source="#Armature.003-Matrix-animation-input-array" count="60"><param name="TIME" type="float"/></accessor></technique_common></source><source id="Armature.003-Matrix-animation-output-transform"><float_array id="Armature.003-Matrix-animation-output-transform-array" count="960">

1.000000 0.000000 0.000000 0.000000 0.000000 -0.000000 1.000000 0.000000 0.000000 -1.000000 -0.000000 0.000000 0.000000 0.000000 0.000000 1.000000
1.000000 0.000000 0.000000 0.000000 0.000000 -0.000000 1.000000 0.000000 0.000000 -1.000000 -0.000000 0.000000 0.000000 0.000000 0.000000 1.000000
1.000000 0.000000 0.000000 0.000000 0.000000 -0.000000 1.000000 0.000000 0.000000 -1.000000 -0.000000 0.000000 0.000000 0.000000 0.000000 1.000000
1.000000 0.000000 0.000000 0.000000 0.000000 -0.000000 1.000000 0.000000 0.000000 -1.000000 -0.000000 0.000000 0.000000 0.000000 0.000000 1.000000
1.000000 0.000000 0.000000 0.000000 0.000000 -0.000000 1.000000 0.000000 0.000000 -1.000000 -0.000000 0.000000 0.000000 0.000000 0.000000 1.000000
1.000000 0.000000 0.000000 0.000000 0.000000 -0.000000 1.000000 0.000000 0.000000 -1.000000 -0.000000 0.000000 0.000000 0.000000 0.000000 1.000000
1.000000 0.000000 0.000000 0.000000 0.000000 -0.000000 1.000000 0.000000 0.000000 -1.000000 -0.000000 0.000000 0.000000 0.000000 0.000000 1.000000
1.000000 0.000000 0.000000 0.000000 0.000000 -0.000000 1.000000 0.000000 0.000000 -1.000000 -0.000000 0.000000 0.000000 0.000000 0.000000 1.000000
1.000000 0.000000 0.000000 0.000000 0.000000 -0.000000 1.000000 0.000000 0.000000 -1.000000 -0.000000 0.000000 0.000000 0.000000 0.000000 1.000000
1.000000 0.000000 0.000000 0.000000 0.000000 -0.000000 1.000000 0.000000 0.000000 -1.000000 -0.000000 0.000000 0.000000 0.000000 0.000000 1.000000
1.000000 0.000000 0.000000 0.000000 0.000000 -0.000000 1.000000 0.000000 0.000000 -1.000000 -0.000000 0.000000 0.000000 0.000000 0.000000 1.000000
1.000000 0.000000 0.000000 0.000000 0.000000 -0.000000 1.000000 0.000000 0.000000 -1.000000 -0.000000 0.000000 0.000000 0.000000 0.000000 1.000000
1.000000 0.000000 0.000000 0.000000 0.000000 -0.000000 1.000000 0.000000 0.000000 -1.000000 -0.000000 0.000000 0.000000 0.000000 0.000000 1.000000
1.000000 0.000000 0.000000 0.000000 0.000000 -0.000000 1.000000 0.000000 0.000000 -1.000000 -0.000000 0.000000 0.000000 0.000000 0.000000 1.000000
1.000000 0.000000 0.000000 0.000000 0.000000 -0.000000 1.000000 0.000000 0.000000 -1.000000 -0.000000 0.000000 0.000000 0.000000 0.000000 1.000000
1.000000 0.000000 0.000000 0.000000 0.000000 -0.000000 1.000000 0.000000 0.000000 -1.000000 -0.000000 0.000000 0.000000 0.000000 0.000000 1.000000
1.000000 0.000000 0.000000 0.000000 0.000000 -0.000000 1.000000 0.000000 0.000000 -1.000000 -0.000000 0.000000 0.000000 0.000000 0.000000 1.000000
1.000000 0.000000 0.000000 0.000000 0.000000 -0.000000 1.000000 0.000000 0.000000 -1.000000 -0.000000 0.000000 0.000000 0.000000 0.000000 1.000000
1.000000 0.000000 0.000000 0.000000 0.000000 -0.000000 1.000000 0.000000 0.000000 -1.000000 -0.000000 0.000000 0.000000 0.000000 0.000000 1.000000
1.000000 0.000000 0.000000 0.000000 0.000000 -0.000000 1.000000 0.000000 0.000000 -1.000000 -0.000000 0.000000 0.000000 0.000000 0.000000 1.000000
1.000000 0.000000 0.000000 0.000000 0.000000 -0.000000 1.000000 0.000000 0.000000 -1.000000 -0.000000 0.000000 0.000000 0.000000 0.000000 1.000000
1.000000 0.000000 0.000000 0.000000 0.000000 -0.000000 1.000000 0.000000 0.000000 -1.000000 -0.000000 0.000000 0.000000 0.000000 0.000000 1.000000
1.000000 0.000000 0.000000 0.000000 0.000000 -0.000000 1.000000 0.000000 0.000000 -1.000000 -0.000000 0.000000 0.000000 0.000000 0.000000 1.000000
1.000000 0.000000 0.000000 0.000000 0.000000 -0.000000 1.000000 0.000000 0.000000 -1.000000 -0.000000 0.000000 0.000000 0.000000 0.000000 1.000000
1.000000 0.000000 0.000000 0.000000 0.000000 -0.000000 1.000000 0.000000 0.000000 -1.000000 -0.000000 0.000000 0.000000 0.000000 0.000000 1.000000
1.000000 0.000000 0.000000 0.000000 0.000000 -0.000000 1.000000 0.000000 0.000000 -1.000000 -0.000000 0.000000 0.000000 0.000000 0.000000 1.000000
1.000000 0.000000 0.000000 0.000000 0.000000 -0.000000 1.000000 0.000000 0.000000 -1.000000 -0.000000 0.000000 0.000000 0.000000 0.000000 1.000000
1.000000 0.000000 0.000000 0.000000 0.000000 -0.000000 1.000000 0.000000 0.000000 -1.000000 -0.000000 0.000000 0.000000 0.000000 0.000000 1.000000
1.000000 0.000000 0.000000 0.000000 0.000000 -0.000000 1.000000 0.000000 0.000000 -1.000000 -0.000000 0.000000 0.000000 0.000000 0.000000 1.000000
1.000000 0.000000 0.000000 0.000000 0.000000 -0.000000 1.000000 0.000000 0.000000 -1.000000 -0.000000 0.000000 0.000000 0.000000 0.000000 1.000000
1.000000 0.000000 0.000000 0.000000 0.000000 -0.000000 1.000000 0.000000 0.000000 -1.000000 -0.000000 0.000000 0.000000 0.000000 0.000000 1.000000
1.000000 0.000000 0.000000 0.000000 0.000000 -0.000000 1.000000 0.000000 0.000000 -1.000000 -0.000000 0.000000 0.000000 0.000000 0.000000 1.000000
1.000000 0.000000 0.000000 0.000000 0.000000 -0.000000 1.000000 0.000000 0.000000 -1.000000 -0.000000 0.000000 0.000000 0.000000 0.000000 1.000000
1.000000 0.000000 0.000000 0.000000 0.000000 -0.000000 1.000000 0.000000 0.000000 -1.000000 -0.000000 0.000000 0.000000 0.000000 0.000000 1.000000
1.000000 0.000000 0.000000 0.000000 0.000000 -0.000000 1.000000 0.000000 0.000000 -1.000000 -0.000000 0.000000 0.000000 0.000000 0.000000 1.000000
1.000000 0.000000 0.000000 0.000000 0.000000 -0.000000 1.000000 0.000000 0.000000 -1.000000 -0.000000 0.000000 0.000000 0.000000 0.000000 1.000000
1.000000 0.000000 0.000000 0.000000 0.000000 -0.000000 1.000000 0.000000 0.000000 -1.000000 -0.000000 0.000000 0.000000 0.000000 0.000000 1.000000
1.000000 0.000000 0.000000 0.000000 0.000000 -0.000000 1.000000 0.000000 0.000000 -1.000000 -0.000000 0.000000 0.000000 0.000000 0.000000 1.000000
1.000000 0.000000 0.000000 0.000000 0.000000 -0.000000 1.000000 0.000000 0.000000 -1.000000 -0.000000 0.000000 0.000000 0.000000 0.000000 1.000000
1.000000 0.000000 0.000000 0.000000 0.000000 -0.000000 1.000000 0.000000 0.000000 -1.000000 -0.000000 0.000000 0.000000 0.000000 0.000000 1.000000
1.000000 0.000000 0.000000 0.000000 0.000000 -0.000000 1.000000 0.000000 0.000000 -1.000000 -0.000000 0.000000 0.000000 0.000000 0.000000 1.000000
1.000000 0.000000 0.000000 0.000000 0.000000 -0.000000 1.000000 0.000000 0.000000 -1.000000 -0.000000 0.000000 0.000000 0.000000 0.000000 1.000000
1.000000 0.000000 0.000000 0.000000 0.000000 -0.000000 1.000000 0.000000 0.000000 -1.000000 -0.000000 0.000000 0.000000 0.000000 0.000000 1.000000
1.000000 0.000000 0.000000 0.000000 0.000000 -0.000000 1.000000 0.000000 0.000000 -1.000000 -0.000000 0.000000 0.000000 0.000000 0.000000 1.000000
1.000000 0.000000 0.000000 0.000000 0.000000 -0.000000 1.000000 0.000000 0.000000 -1.000000 -0.000000 0.000000 0.000000 0.000000 0.000000 1.000000
1.000000 0.000000 0.000000 0.000000 0.000000 -0.000000 1.000000 0.000000 0.000000 -1.000000 -0.000000 0.000000 0.000000 0.000000 0.000000 1.000000
1.000000 0.000000 0.000000 0.000000 0.000000 -0.000000 1.000000 0.000000 0.000000 -1.000000 -0.000000 0.000000 0.000000 0.000000 0.000000 1.000000
1.000000 0.000000 0.000000 0.000000 0.000000 -0.000000 1.000000 0.000000 0.000000 -1.000000 -0.000000 0.000000 0.000000 0.000000 0.000000 1.000000
1.000000 0.000000 0.000000 0.000000 0.000000 -0.000000 1.000000 0.000000 0.000000 -1.000000 -0.000000 0.000000 0.000000 0.000000 0.000000 1.000000
1.000000 0.000000 0.000000 0.000000 0.000000 -0.000000 1.000000 0.000000 0.000000 -1.000000 -0.000000 0.000000 0.000000 0.000000 0.000000 1.000000
1.000000 0.000000 0.000000 0.000000 0.000000 -0.000000 1.000000 0.000000 0.000000 -1.000000 -0.000000 0.000000 0.000000 0.000000 0.000000 1.000000
1.000000 0.000000 0.000000 0.000000 0.000000 -0.000000 1.000000 0.000000 0.000000 -1.000000 -0.000000 0.000000 0.000000 0.000000 0.000000 1.000000
1.000000 0.000000 0.000000 0.000000 0.000000 -0.000000 1.000000 0.000000 0.000000 -1.000000 -0.000000 0.000000 0.000000 0.000000 0.000000 1.000000
1.000000 0.000000 0.000000 0.000000 0.000000 -0.000000 1.000000 0.000000 0.000000 -1.000000 -0.000000 0.000000 0.000000 0.000000 0.000000 1.000000
1.000000 0.000000 0.000000 0.000000 0.000000 -0.000000 1.000000 0.000000 0.000000 -1.000000 -0.000000 0.000000 0.000000 0.000000 0.000000 1.000000
1.000000 0.000000 0.000000 0.000000 0.000000 -0.000000 1.000000 0.000000 0.000000 -1.000000 -0.000000 0.000000 0.000000 0.000000 0.000000 1.000000
1.000000 0.000000 0.000000 0.000000 0.000000 -0.000000 1.000000 0.000000 0.000000 -1.000000 -0.000000 0.000000 0.000000 0.000000 0.000000 1.000000
1.000000 0.000000 0.000000 0.000000 0.000000 -0.000000 1.000000 0.000000 0.000000 -1.000000 -0.000000 0.000000 0.000000 0.000000 0.000000 1.000000
1.000000 0.000000 0.000000 0.000000 0.000000 -0.000000 1.000000 0.000000 0.000000 -1.000000 -0.000000 0.000000 0.000000 0.000000 0.000000 1.000000
1.000000 0.000000 0.000000 0.000000 0.000000 -0.000000 1.000000 0.000000 0.000000 -1.000000 -0.000000 0.000000 0.000000 0.000000 0.000000 1.000000</float_array><technique_common><accessor source="#Armature.003-Matrix-animation-output-transform-array" count="60" stride="16"><param type="float4x4"/></accessor></technique_common></source><source id="Armature.003-Interpolations"><Name_array id="Armature.003-Interpolations-array" count="60">
 LINEAR LINEAR LINEAR LINEAR LINEAR LINEAR LINEAR LINEAR LINEAR LINEAR LINEAR
LINEAR LINEAR LINEAR LINEAR LINEAR LINEAR LINEAR LINEAR LINEAR LINEAR LINEAR LINEAR
LINEAR LINEAR LINEAR LINEAR LINEAR LINEAR LINEAR LINEAR LINEAR LINEAR LINEAR LINEAR
LINEAR LINEAR LINEAR LINEAR LINEAR LINEAR LINEAR LINEAR LINEAR LINEAR LINEAR LINEAR
LINEAR LINEAR LINEAR LINEAR LINEAR LINEAR LINEAR LINEAR LINEAR LINEAR LINEAR LINEAR
LINEAR</Name_array><technique_common><accessor source="#Armature.003-Interpolations-array" count="60"><param type="name"/></accessor></technique_common></source><sampler id="Armature.003-Matrix-animation-transform"><input semantic="INPUT" source="#Armature.003-Matrix-animation-input"/><input semantic="OUTPUT" source="#Armature.003-Matrix-animation-output-transform"/><input semantic="INTERPOLATION" source="#Armature.003-Interpolations"/></sampler><channel source="#Armature.003-Matrix-animation-transform" target="Armature.003/matrix"/></animation></animation>
    <animation id="jnt_right_weapon-anim" name="jnt_right_weapon"><animation><source id="jnt_right_weapon-Matrix-animation-input"><float_array id="jnt_right_weapon-Matrix-animation-input-array" count="60">

0.000000 0.033333 0.066667 0.100000 0.133333 0.166667 0.200000 0.233333 0.266667 0.300000 0.333333 0.366667 0.400000 0.433333 0.466667 0.500000
0.533333 0.566667 0.600000 0.633333 0.666667 0.700000 0.733333 0.766667 0.800000 0.833333 0.866667 0.900000 0.933333 0.966667 1.000000 1.033333
1.066667 1.100000 1.133333 1.166667 1.200000 1.233333 1.266667 1.300000 1.333333 1.366667 1.400000 1.433333 1.466667 1.500000 1.533333 1.566667
1.600000 1.633333 1.666667 1.700000 1.733333 1.766667 1.800000 1.833333 1.866667 1.900000 1.933333 1.966667</float_array><technique_common><accessor source="#jnt_right_weapon-Matrix-animation-input-array" count="60"><param name="TIME" type="float"/></accessor></technique_common></source><source id="jnt_right_weapon-Matrix-animation-output-transform"><float_array id="jnt_right_weapon-Matrix-animation-output-transform-array" count="960">

1.000000 0.000000 0.000000 0.000000 0.000000 -0.000000 -1.000000 0.000000 0.000000 1.000000 -0.000000 0.000000 0.000000 0.000000 0.000000 1.000000
1.000000 0.000000 0.000000 0.000000 0.000000 -0.000000 -1.000000 0.000000 0.000000 1.000000 -0.000000 0.000000 0.000000 0.000000 0.000000 1.000000
1.000000 0.000000 0.000000 0.000000 0.000000 -0.000000 -1.000000 0.000000 0.000000 1.000000 -0.000000 0.000000 0.000000 0.000000 0.000000 1.000000
1.000000 0.000000 0.000000 0.000000 0.000000 -0.000000 -1.000000 0.000000 0.000000 1.000000 -0.000000 0.000000 0.000000 0.000000 0.000000 1.000000
1.000000 0.000000 0.000000 0.000000 0.000000 -0.000000 -1.000000 0.000000 0.000000 1.000000 -0.000000 0.000000 0.000000 0.000000 0.000000 1.000000
1.000000 0.000000 0.000000 0.000000 0.000000 -0.000000 -1.000000 0.000000 0.000000 1.000000 -0.000000 0.000000 0.000000 0.000000 0.000000 1.000000
1.000000 0.000000 0.000000 0.000000 0.000000 -0.000000 -1.000000 0.000000 0.000000 1.000000 -0.000000 0.000000 0.000000 0.000000 0.000000 1.000000
1.000000 0.000000 0.000000 0.000000 0.000000 -0.000000 -1.000000 0.000000 0.000000 1.000000 -0.000000 0.000000 0.000000 0.000000 0.000000 1.000000
1.000000 0.000000 0.000000 0.000000 0.000000 -0.000000 -1.000000 0.000000 0.000000 1.000000 -0.000000 0.000000 0.000000 0.000000 0.000000 1.000000
1.000000 0.000000 0.000000 0.000000 0.000000 -0.000000 -1.000000 0.000000 0.000000 1.000000 -0.000000 0.000000 0.000000 0.000000 0.000000 1.000000
1.000000 0.000000 0.000000 0.000000 0.000000 -0.000000 -1.000000 0.000000 0.000000 1.000000 -0.000000 0.000000 0.000000 0.000000 0.000000 1.000000
1.000000 0.000000 0.000000 0.000000 0.000000 -0.000000 -1.000000 0.000000 0.000000 1.000000 -0.000000 0.000000 0.000000 0.000000 0.000000 1.000000
1.000000 0.000000 0.000000 0.000000 0.000000 -0.000000 -1.000000 0.000000 0.000000 1.000000 -0.000000 0.000000 0.000000 0.000000 0.000000 1.000000
1.000000 0.000000 0.000000 0.000000 0.000000 -0.000000 -1.000000 0.000000 0.000000 1.000000 -0.000000 0.000000 0.000000 0.000000 0.000000 1.000000
1.000000 0.000000 0.000000 0.000000 0.000000 -0.000000 -1.000000 0.000000 0.000000 1.000000 -0.000000 0.000000 0.000000 0.000000 0.000000 1.000000
1.000000 0.000000 0.000000 0.000000 0.000000 -0.000000 -1.000000 0.000000 0.000000 1.000000 -0.000000 0.000000 0.000000 0.000000 0.000000 1.000000
1.000000 0.000000 0.000000 0.000000 0.000000 -0.000000 -1.000000 0.000000 0.000000 1.000000 -0.000000 0.000000 0.000000 0.000000 0.000000 1.000000
1.000000 0.000000 0.000000 0.000000 0.000000 -0.000000 -1.000000 0.000000 0.000000 1.000000 -0.000000 0.000000 0.000000 0.000000 0.000000 1.000000
1.000000 0.000000 0.000000 0.000000 0.000000 -0.000000 -1.000000 0.000000 0.000000 1.000000 -0.000000 0.000000 0.000000 0.000000 0.000000 1.000000
1.000000 0.000000 0.000000 0.000000 0.000000 -0.000000 -1.000000 0.000000 0.000000 1.000000 -0.000000 0.000000 0.000000 0.000000 0.000000 1.000000
1.000000 0.000000 0.000000 0.000000 0.000000 -0.000000 -1.000000 0.000000 0.000000 1.000000 -0.000000 0.000000 0.000000 0.000000 0.000000 1.000000
1.000000 0.000000 0.000000 0.000000 0.000000 -0.000000 -1.000000 0.000000 0.000000 1.000000 -0.000000 0.000000 0.000000 0.000000 0.000000 1.000000
1.000000 0.000000 0.000000 0.000000 0.000000 -0.000000 -1.000000 0.000000 0.000000 1.000000 -0.000000 0.000000 0.000000 0.000000 0.000000 1.000000
1.000000 0.000000 0.000000 0.000000 0.000000 -0.000000 -1.000000 0.000000 0.000000 1.000000 -0.000000 0.000000 0.000000 0.000000 0.000000 1.000000
1.000000 0.000000 0.000000 0.000000 0.000000 -0.000000 -1.000000 0.000000 0.000000 1.000000 -0.000000 0.000000 0.000000 0.000000 0.000000 1.000000
1.000000 0.000000 0.000000 0.000000 0.000000 -0.000000 -1.000000 0.000000 0.000000 1.000000 -0.000000 0.000000 0.000000 0.000000 0.000000 1.000000
1.000000 0.000000 0.000000 0.000000 0.000000 -0.000000 -1.000000 0.000000 0.000000 1.000000 -0.000000 0.000000 0.000000 0.000000 0.000000 1.000000
1.000000 0.000000 0.000000 0.000000 0.000000 -0.000000 -1.000000 0.000000 0.000000 1.000000 -0.000000 0.000000 0.000000 0.000000 0.000000 1.000000
1.000000 0.000000 0.000000 0.000000 0.000000 -0.000000 -1.000000 0.000000 0.000000 1.000000 -0.000000 0.000000 0.000000 0.000000 0.000000 1.000000
1.000000 0.000000 0.000000 0.000000 0.000000 -0.000000 -1.000000 0.000000 0.000000 1.000000 -0.000000 0.000000 0.000000 0.000000 0.000000 1.000000
1.000000 0.000000 0.000000 0.000000 0.000000 -0.000000 -1.000000 0.000000 0.000000 1.000000 -0.000000 0.000000 0.000000 0.000000 0.000000 1.000000
1.000000 0.000000 0.000000 0.000000 0.000000 -0.000000 -1.000000 0.000000 0.000000 1.000000 -0.000000 0.000000 0.000000 0.000000 0.000000 1.000000
1.000000 0.000000 0.000000 0.000000 0.000000 -0.000000 -1.000000 0.000000 0.000000 1.000000 -0.000000 0.000000 0.000000 0.000000 0.000000 1.000000
1.000000 0.000000 0.000000 0.000000 0.000000 -0.000000 -1.000000 0.000000 0.000000 1.000000 -0.000000 0.000000 0.000000 0.000000 0.000000 1.000000
1.000000 0.000000 0.000000 0.000000 0.000000 -0.000000 -1.000000 0.000000 0.000000 1.000000 -0.000000 0.000000 0.000000 0.000000 0.000000 1.000000
1.000000 0.000000 0.000000 0.000000 0.000000 -0.000000 -1.000000 0.000000 0.000000 1.000000 -0.000000 0.000000 0.000000 0.000000 0.000000 1.000000
1.000000 0.000000 0.000000 0.000000 0.000000 -0.000000 -1.000000 0.000000 0.000000 1.000000 -0.000000 0.000000 0.000000 0.000000 0.000000 1.000000
1.000000 0.000000 0.000000 0.000000 0.000000 -0.000000 -1.000000 0.000000 0.000000 1.000000 -0.000000 0.000000 0.000000 0.000000 0.000000 1.000000
1.000000 0.000000 0.000000 0.000000 0.000000 -0.000000 -1.000000 0.000000 0.000000 1.000000 -0.000000 0.000000 0.000000 0.000000 0.000000 1.000000
1.000000 0.000000 0.000000 0.000000 0.000000 -0.000000 -1.000000 0.000000 0.000000 1.000000 -0.000000 0.000000 0.000000 0.000000 0.000000 1.000000
1.000000 0.000000 0.000000 0.000000 0.000000 -0.000000 -1.000000 0.000000 0.000000 1.000000 -0.000000 0.000000 0.000000 0.000000 0.000000 1.000000
1.000000 0.000000 0.000000 0.000000 0.000000 -0.000000 -1.000000 0.000000 0.000000 1.000000 -0.000000 0.000000 0.000000 0.000000 0.000000 1.000000
1.000000 0.000000 0.000000 0.000000 0.000000 -0.000000 -1.000000 0.000000 0.000000 1.000000 -0.000000 0.000000 0.000000 0.000000 0.000000 1.000000
1.000000 0.000000 0.000000 0.000000 0.000000 -0.000000 -1.000000 0.000000 0.000000 1.000000 -0.000000 0.000000 0.000000 0.000000 0.000000 1.000000
1.000000 0.000000 0.000000 0.000000 0.000000 -0.000000 -1.000000 0.000000 0.000000 1.000000 -0.000000 0.000000 0.000000 0.000000 0.000000 1.000000
1.000000 0.000000 0.000000 0.000000 0.000000 -0.000000 -1.000000 0.000000 0.000000 1.000000 -0.000000 0.000000 0.000000 0.000000 0.000000 1.000000
1.000000 0.000000 0.000000 0.000000 0.000000 -0.000000 -1.000000 0.000000 0.000000 1.000000 -0.000000 0.000000 0.000000 0.000000 0.000000 1.000000
1.000000 0.000000 0.000000 0.000000 0.000000 -0.000000 -1.000000 0.000000 0.000000 1.000000 -0.000000 0.000000 0.000000 0.000000 0.000000 1.000000
1.000000 0.000000 0.000000 0.000000 0.000000 -0.000000 -1.000000 0.000000 0.000000 1.000000 -0.000000 0.000000 0.000000 0.000000 0.000000 1.000000
1.000000 0.000000 0.000000 0.000000 0.000000 -0.000000 -1.000000 0.000000 0.000000 1.000000 -0.000000 0.000000 0.000000 0.000000 0.000000 1.000000
1.000000 0.000000 0.000000 0.000000 0.000000 -0.000000 -1.000000 0.000000 0.000000 1.000000 -0.000000 0.000000 0.000000 0.000000 0.000000 1.000000
1.000000 0.000000 0.000000 0.000000 0.000000 -0.000000 -1.000000 0.000000 0.000000 1.000000 -0.000000 0.000000 0.000000 0.000000 0.000000 1.000000
1.000000 0.000000 0.000000 0.000000 0.000000 -0.000000 -1.000000 0.000000 0.000000 1.000000 -0.000000 0.000000 0.000000 0.000000 0.000000 1.000000
1.000000 0.000000 0.000000 0.000000 0.000000 -0.000000 -1.000000 0.000000 0.000000 1.000000 -0.000000 0.000000 0.000000 0.000000 0.000000 1.000000
1.000000 0.000000 0.000000 0.000000 0.000000 -0.000000 -1.000000 0.000000 0.000000 1.000000 -0.000000 0.000000 0.000000 0.000000 0.000000 1.000000
1.000000 0.000000 0.000000 0.000000 0.000000 -0.000000 -1.000000 0.000000 0.000000 1.000000 -0.000000 0.000000 0.000000 0.000000 0.000000 1.000000
1.000000 0.000000 0.000000 0.000000 0.000000 -0.000000 -1.000000 0.000000 0.000000 1.000000 -0.000000 0.000000 0.000000 0.000000 0.000000 1.000000
1.000000 0.000000 0.000000 0.000000 0.000000 -0.000000 -1.000000 0.000000 0.000000 1.000000 -0.000000 0.000000 0.000000 0.000000 0.000000 1.000000
1.000000 0.000000 0.000000 0.000000 0.000000 -0.000000 -1.000000 0.000000 0.000000 1.000000 -0.000000 0.000000 0.000000 0.000000 0.000000 1.000000
1.000000 0.000000 0.000000 0.000000 0.000000 -0.000000 -1.000000 0.000000 0.000000 1.000000 -0.000000 0.000000 0.000000 0.000000 0.000000 1.000000</float_array><technique_common><accessor source="#jnt_right_weapon-Matrix-animation-output-transform-array" count="60" stride="16"><param type="float4x4"/></accessor></technique_common></source><source id="jnt_right_weapon-Interpolations"><Name_array id="jnt_right_weapon-Interpolations-array" count="60">
 LINEAR LINEAR LINEAR LINEAR LINEAR LINEAR LINEAR LINEAR LINEAR LINEAR LINEAR
LINEAR LINEAR LINEAR LINEAR LINEAR LINEAR LINEAR LINEAR LINEAR LINEAR LINEAR LINEAR
LINEAR LINEAR LINEAR LINEAR LINEAR LINEAR LINEAR LINEAR LINEAR LINEAR LINEAR LINEAR
LINEAR LINEAR LINEAR LINEAR LINEAR LINEAR LINEAR LINEAR LINEAR LINEAR LINEAR LINEAR
LINEAR LINEAR LINEAR LINEAR LINEAR LINEAR LINEAR LINEAR LINEAR LINEAR LINEAR LINEAR
LINEAR</Name_array><technique_common><accessor source="#jnt_right_weapon-Interpolations-array" count="60"><param type="name"/></accessor></technique_common></source><sampler id="jnt_right_weapon-Matrix-animation-transform"><input semantic="INPUT" source="#jnt_right_weapon-Matrix-animation-input"/><input semantic="OUTPUT" source="#jnt_right_weapon-Matrix-animation-output-transform"/><input semantic="INTERPOLATION" source="#jnt_right_weapon-Interpolations"/></sampler><channel source="#jnt_right_weapon-Matrix-animation-transform" target="jnt_right_weapon/matrix"/></animation></animation>
    <animation id="jnt_weapon-anim" name="jnt_weapon"><animation><source id="jnt_weapon-Matrix-animation-input"><float_array id="jnt_weapon-Matrix-animation-input-array" count="60">

0.000000 0.033333 0.066667 0.100000 0.133333 0.166667 0.200000 0.233333 0.266667 0.300000 0.333333 0.366667 0.400000 0.433333 0.466667 0.500000
0.533333 0.566667 0.600000 0.633333 0.666667 0.700000 0.733333 0.766667 0.800000 0.833333 0.866667 0.900000 0.933333 0.966667 1.000000 1.033333
1.066667 1.100000 1.133333 1.166667 1.200000 1.233333 1.266667 1.300000 1.333333 1.366667 1.400000 1.433333 1.466667 1.500000 1.533333 1.566667
1.600000 1.633333 1.666667 1.700000 1.733333 1.766667 1.800000 1.833333 1.866667 1.900000 1.933333 1.966667</float_array><technique_common><accessor source="#jnt_weapon-Matrix-animation-input-array" count="60"><param name="TIME" type="float"/></accessor></technique_common></source><source id="jnt_weapon-Matrix-animation-output-transform"><float_array id="jnt_weapon-Matrix-animation-output-transform-array" count="960">

0.194223 -0.976396 0.094489 0.009763 0.019655 -0.092431 -0.995525 0.087034 0.980761 0.195211 0.001238 0.422060 0.000000 0.000000 0.000000 1.000000
0.194223 -0.976396 0.094489 0.009763 0.019655 -0.092431 -0.995525 0.087034 0.980761 0.195211 0.001238 0.422060 0.000000 0.000000 0.000000 1.000000
0.194223 -0.976396 0.094489 0.009763 0.019655 -0.092431 -0.995525 0.087034 0.980761 0.195211 0.001238 0.422060 0.000000 0.000000 0.000000 1.000000
0.194223 -0.976396 0.094489 0.009763 0.019655 -0.092431 -0.995525 0.087034 0.980761 0.195211 0.001238 0.422060 0.000000 0.000000 0.000000 1.000000
0.194223 -0.976396 0.094489 0.009763 0.019655 -0.092431 -0.995525 0.087034 0.980761 0.195211 0.001238 0.422060 0.000000 0.000000 0.000000 1.000000
0.194223 -0.976396 0.094489 0.009763 0.019655 -0.092431 -0.995525 0.087034 0.980761 0.195211 0.001238 0.422060 0.000000 0.000000 0.000000 1.000000
0.194223 -0.976396 0.094489 0.009763 0.019655 -0.092431 -0.995525 0.087034 0.980761 0.195211 0.001238 0.422060 0.000000 0.000000 0.000000 1.000000
0.194223 -0.976396 0.094489 0.009763 0.019655 -0.092431 -0.995525 0.087034 0.980761 0.195211 0.001238 0.422060 0.000000 0.000000 0.000000 1.000000
0.194223 -0.976396 0.094489 0.009763 0.019655 -0.092431 -0.995525 0.087034 0.980761 0.195211 0.001238 0.422060 0.000000 0.000000 0.000000 1.000000
0.194223 -0.976396 0.094489 0.009763 0.019655 -0.092431 -0.995525 0.087034 0.980761 0.195211 0.001238 0.422060 0.000000 0.000000 0.000000 1.000000
0.194223 -0.976396 0.094489 0.009763 0.019655 -0.092431 -0.995525 0.087034 0.980761 0.195211 0.001238 0.422060 0.000000 0.000000 0.000000 1.000000
0.194223 -0.976396 0.094489 0.009763 0.019655 -0.092431 -0.995525 0.087034 0.980761 0.195211 0.001238 0.422060 0.000000 0.000000 0.000000 1.000000
0.194223 -0.976396 0.094489 0.009763 0.019655 -0.092431 -0.995525 0.087034 0.980761 0.195211 0.001238 0.422060 0.000000 0.000000 0.000000 1.000000
0.194223 -0.976396 0.094489 0.009763 0.019655 -0.092431 -0.995525 0.087034 0.980761 0.195211 0.001238 0.422060 0.000000 0.000000 0.000000 1.000000
0.194223 -0.976396 0.094489 0.009763 0.019655 -0.092431 -0.995525 0.087034 0.980761 0.195211 0.001238 0.422060 0.000000 0.000000 0.000000 1.000000
0.194223 -0.976396 0.094489 0.009763 0.019655 -0.092431 -0.995525 0.087034 0.980761 0.195211 0.001238 0.422060 0.000000 0.000000 0.000000 1.000000
0.194223 -0.976396 0.094489 0.009763 0.019655 -0.092431 -0.995525 0.087034 0.980761 0.195211 0.001238 0.422060 0.000000 0.000000 0.000000 1.000000
0.194223 -0.976396 0.094489 0.009763 0.019655 -0.092431 -0.995525 0.087034 0.980761 0.195211 0.001238 0.422060 0.000000 0.000000 0.000000 1.000000
0.194223 -0.976396 0.094489 0.009763 0.019655 -0.092431 -0.995525 0.087034 0.980761 0.195211 0.001238 0.422060 0.000000 0.000000 0.000000 1.000000
0.194223 -0.976396 0.094489 0.009763 0.019655 -0.092431 -0.995525 0.087034 0.980761 0.195211 0.001238 0.422060 0.000000 0.000000 0.000000 1.000000
0.194223 -0.976396 0.094489 0.009763 0.019655 -0.092431 -0.995525 0.087034 0.980761 0.195211 0.001238 0.422060 0.000000 0.000000 0.000000 1.000000
0.194223 -0.976396 0.094489 0.009763 0.019655 -0.092431 -0.995525 0.087034 0.980761 0.195211 0.001238 0.422060 0.000000 0.000000 0.000000 1.000000
0.194223 -0.976396 0.094489 0.009763 0.019655 -0.092431 -0.995525 0.087034 0.980761 0.195211 0.001238 0.422060 0.000000 0.000000 0.000000 1.000000
0.194223 -0.976396 0.094489 0.009763 0.019655 -0.092431 -0.995525 0.087034 0.980761 0.195211 0.001238 0.422060 0.000000 0.000000 0.000000 1.000000
0.194223 -0.976396 0.094489 0.009763 0.019655 -0.092431 -0.995525 0.087034 0.980761 0.195211 0.001238 0.422060 0.000000 0.000000 0.000000 1.000000
0.194223 -0.976396 0.094489 0.009763 0.019655 -0.092431 -0.995525 0.087034 0.980761 0.195211 0.001238 0.422060 0.000000 0.000000 0.000000 1.000000
0.194223 -0.976396 0.094489 0.009763 0.019655 -0.092431 -0.995525 0.087034 0.980761 0.195211 0.001238 0.422060 0.000000 0.000000 0.000000 1.000000
0.194223 -0.976396 0.094489 0.009763 0.019655 -0.092431 -0.995525 0.087034 0.980761 0.195211 0.001238 0.422060 0.000000 0.000000 0.000000 1.000000
0.194223 -0.976396 0.094489 0.009763 0.019655 -0.092431 -0.995525 0.087034 0.980761 0.195211 0.001238 0.422060 0.000000 0.000000 0.000000 1.000000
0.194223 -0.976396 0.094489 0.009763 0.019655 -0.092431 -0.995525 0.087034 0.980761 0.195211 0.001238 0.422060 0.000000 0.000000 0.000000 1.000000
0.194223 -0.976396 0.094489 0.009763 0.019655 -0.092431 -0.995525 0.087034 0.980761 0.195211 0.001238 0.422060 0.000000 0.000000 0.000000 1.000000
0.194223 -0.976396 0.094489 0.009763 0.019655 -0.092431 -0.995525 0.087034 0.980761 0.195211 0.001238 0.422060 0.000000 0.000000 0.000000 1.000000
0.194223 -0.976396 0.094489 0.009763 0.019655 -0.092431 -0.995525 0.087034 0.980761 0.195211 0.001238 0.422060 0.000000 0.000000 0.000000 1.000000
0.194223 -0.976396 0.094489 0.009763 0.019655 -0.092431 -0.995525 0.087034 0.980761 0.195211 0.001238 0.422060 0.000000 0.000000 0.000000 1.000000
0.194223 -0.976396 0.094489 0.009763 0.019655 -0.092431 -0.995525 0.087034 0.980761 0.195211 0.001238 0.422060 0.000000 0.000000 0.000000 1.000000
0.194223 -0.976396 0.094489 0.009763 0.019655 -0.092431 -0.995525 0.087034 0.980761 0.195211 0.001238 0.422060 0.000000 0.000000 0.000000 1.000000
0.194223 -0.976396 0.094489 0.009763 0.019655 -0.092431 -0.995525 0.087034 0.980761 0.195211 0.001238 0.422060 0.000000 0.000000 0.000000 1.000000
0.194223 -0.976396 0.094489 0.009763 0.019655 -0.092431 -0.995525 0.087034 0.980761 0.195211 0.001238 0.422060 0.000000 0.000000 0.000000 1.000000
0.194223 -0.976396 0.094489 0.009763 0.019655 -0.092431 -0.995525 0.087034 0.980761 0.195211 0.001238 0.422060 0.000000 0.000000 0.000000 1.000000
0.194223 -0.976396 0.094489 0.009763 0.019655 -0.092431 -0.995525 0.087034 0.980761 0.195211 0.001238 0.422060 0.000000 0.000000 0.000000 1.000000
0.194223 -0.976396 0.094489 0.009763 0.019655 -0.092431 -0.995525 0.087034 0.980761 0.195211 0.001238 0.422060 0.000000 0.000000 0.000000 1.000000
0.194223 -0.976396 0.094489 0.009763 0.019655 -0.092431 -0.995525 0.087034 0.980761 0.195211 0.001238 0.422060 0.000000 0.000000 0.000000 1.000000
0.194223 -0.976396 0.094489 0.009763 0.019655 -0.092431 -0.995525 0.087034 0.980761 0.195211 0.001238 0.422060 0.000000 0.000000 0.000000 1.000000
0.194223 -0.976396 0.094489 0.009763 0.019655 -0.092431 -0.995525 0.087034 0.980761 0.195211 0.001238 0.422060 0.000000 0.000000 0.000000 1.000000
0.194223 -0.976396 0.094489 0.009763 0.019655 -0.092431 -0.995525 0.087034 0.980761 0.195211 0.001238 0.422060 0.000000 0.000000 0.000000 1.000000
0.194223 -0.976396 0.094489 0.009763 0.019655 -0.092431 -0.995525 0.087034 0.980761 0.195211 0.001238 0.422060 0.000000 0.000000 0.000000 1.000000
0.194223 -0.976396 0.094489 0.009763 0.019655 -0.092431 -0.995525 0.087034 0.980761 0.195211 0.001238 0.422060 0.000000 0.000000 0.000000 1.000000
0.194223 -0.976396 0.094489 0.009763 0.019655 -0.092431 -0.995525 0.087034 0.980761 0.195211 0.001238 0.422060 0.000000 0.000000 0.000000 1.000000
0.194223 -0.976396 0.094489 0.009763 0.019655 -0.092431 -0.995525 0.087034 0.980761 0.195211 0.001238 0.422060 0.000000 0.000000 0.000000 1.000000
0.194223 -0.976396 0.094489 0.009763 0.019655 -0.092431 -0.995525 0.087034 0.980761 0.195211 0.001238 0.422060 0.000000 0.000000 0.000000 1.000000
0.194223 -0.976396 0.094489 0.009763 0.019655 -0.092431 -0.995525 0.087034 0.980761 0.195211 0.001238 0.422060 0.000000 0.000000 0.000000 1.000000
0.194223 -0.976396 0.094489 0.009763 0.019655 -0.092431 -0.995525 0.087034 0.980761 0.195211 0.001238 0.422060 0.000000 0.000000 0.000000 1.000000
0.194223 -0.976396 0.094489 0.009763 0.019655 -0.092431 -0.995525 0.087034 0.980761 0.195211 0.001238 0.422060 0.000000 0.000000 0.000000 1.000000
0.194223 -0.976396 0.094489 0.009763 0.019655 -0.092431 -0.995525 0.087034 0.980761 0.195211 0.001238 0.422060 0.000000 0.000000 0.000000 1.000000
0.194223 -0.976396 0.094489 0.009763 0.019655 -0.092431 -0.995525 0.087034 0.980761 0.195211 0.001238 0.422060 0.000000 0.000000 0.000000 1.000000
0.194223 -0.976396 0.094489 0.009763 0.019655 -0.092431 -0.995525 0.087034 0.980761 0.195211 0.001238 0.422060 0.000000 0.000000 0.000000 1.000000
0.194223 -0.976396 0.094489 0.009763 0.019655 -0.092431 -0.995525 0.087034 0.980761 0.195211 0.001238 0.422060 0.000000 0.000000 0.000000 1.000000
0.194223 -0.976396 0.094489 0.009763 0.019655 -0.092431 -0.995525 0.087034 0.980761 0.195211 0.001238 0.422060 0.000000 0.000000 0.000000 1.000000
0.194223 -0.976396 0.094489 0.009763 0.019655 -0.092431 -0.995525 0.087034 0.980761 0.195211 0.001238 0.422060 0.000000 0.000000 0.000000 1.000000
0.194223 -0.976396 0.094489 0.009763 0.019655 -0.092431 -0.995525 0.087034 0.980761 0.195211 0.001238 0.422060 0.000000 0.000000 0.000000 1.000000</float_array><technique_common><accessor source="#jnt_weapon-Matrix-animation-output-transform-array" count="60" stride="16"><param type="float4x4"/></accessor></technique_common></source><source id="jnt_weapon-Interpolations"><Name_array id="jnt_weapon-Interpolations-array" count="60">
 LINEAR LINEAR LINEAR LINEAR LINEAR LINEAR LINEAR LINEAR LINEAR LINEAR LINEAR
LINEAR LINEAR LINEAR LINEAR LINEAR LINEAR LINEAR LINEAR LINEAR LINEAR LINEAR LINEAR
LINEAR LINEAR LINEAR LINEAR LINEAR LINEAR LINEAR LINEAR LINEAR LINEAR LINEAR LINEAR
LINEAR LINEAR LINEAR LINEAR LINEAR LINEAR LINEAR LINEAR LINEAR LINEAR LINEAR LINEAR
LINEAR LINEAR LINEAR LINEAR LINEAR LINEAR LINEAR LINEAR LINEAR LINEAR LINEAR LINEAR
LINEAR</Name_array><technique_common><accessor source="#jnt_weapon-Interpolations-array" count="60"><param type="name"/></accessor></technique_common></source><sampler id="jnt_weapon-Matrix-animation-transform"><input semantic="INPUT" source="#jnt_weapon-Matrix-animation-input"/><input semantic="OUTPUT" source="#jnt_weapon-Matrix-animation-output-transform"/><input semantic="INTERPOLATION" source="#jnt_weapon-Interpolations"/></sampler><channel source="#jnt_weapon-Matrix-animation-transform" target="jnt_weapon/matrix"/></animation></animation>
  </library_animations>
  <library_visual_scenes>
    <visual_scene id="Scene" name="Scene">
     
        <node name="jnt_right_weapon" id="jnt_right_weapon" sid="jnt_right_weapon" type="JOINT">
          <matrix sid="matrix">1.000000 0.000000 0.000000 0.000000 0.000000 -0.000000 -1.000000 0.000000 0.000000 1.000000 -0.000000 0.000000 0.000000 0.000000 0.000000 1.000000</matrix>
          <extra>
            <technique profile="FCOLLADA">
              <visibility>1.000000</visibility>
            </technique>
          </extra>
          <node name="jnt_weapon" id="jnt_weapon" sid="jnt_weapon" type="JOINT">
            <matrix sid="matrix">0.194223 -0.976396 0.094489 0.009763 0.019655 -0.092431 -0.995525 0.087034 0.980761 0.195211 0.001238 0.422060 0.000000 0.000000 0.000000 1.000000</matrix>
            <extra>
              <technique profile="FCOLLADA">
                <visibility>1.000000</visibility>
              </technique>
            </extra>
          </node>
        </node>
     
      <extra>
        <technique profile="MAX3D">
          <frame_rate>8.000000</frame_rate>
        </technique>
        <technique profile="FCOLLADA">
          <start_time>0.000000</start_time>
          <end_time>1.000000</end_time>
        </technique>
      </extra>
    </visual_scene>
  </library_visual_scenes>
  <scene>
    <instance_visual_scene url="#Scene"></instance_visual_scene>
  </scene>
</COLLADA>
