# Blender 3.3.1
# www.blender.org
mtllib 12mm_case.mtl
o Cube.001
v -0.000000 0.047759 0.206762
v 0.033771 0.033771 0.206762
v -0.000000 0.068591 -0.267045
v -0.000000 0.068591 0.154204
v 0.048501 0.048501 -0.267045
v 0.048501 0.048501 0.154204
v 0.068591 -0.000000 -0.267045
v 0.068591 -0.000000 0.154204
v 0.048501 -0.048502 -0.267044
v 0.048501 -0.048502 0.154204
v -0.000000 -0.068591 -0.267045
v -0.000000 -0.068591 0.154204
v -0.048502 -0.048502 -0.267044
v -0.048502 -0.048502 0.154204
v -0.068591 -0.000000 -0.267045
v -0.068591 -0.000000 0.154204
v -0.048502 0.048501 -0.267045
v -0.048502 0.048501 0.154204
v 0.047759 -0.000000 0.206762
v 0.033771 -0.033771 0.206762
v -0.000000 -0.047759 0.206762
v -0.033771 -0.033771 0.206762
v -0.047759 -0.000000 0.206762
v -0.033771 0.033771 0.206762
v -0.000000 0.040648 0.345666
v -0.028743 0.028742 0.345666
v -0.040648 -0.000000 0.345666
v -0.028743 -0.028743 0.345666
v -0.000000 -0.040648 0.345666
v 0.028742 -0.028743 0.345666
v 0.040648 -0.000000 0.345666
v 0.028742 0.028742 0.345666
v 0.041128 0.041128 -0.238177
v 0.058164 -0.000000 -0.238177
v 0.041128 -0.041128 -0.238177
v -0.000000 -0.058164 -0.238177
v -0.041128 -0.041128 -0.238177
v -0.058164 -0.000000 -0.238177
v -0.000000 0.058164 -0.238177
v -0.041128 0.041128 -0.238177
v -0.000000 0.068591 -0.228603
v -0.000000 0.068591 -0.247751
v 0.048501 0.048501 -0.247751
v 0.048501 0.048501 -0.228603
v 0.068591 -0.000000 -0.247751
v 0.068591 -0.000000 -0.228603
v 0.048501 -0.048502 -0.247751
v 0.048501 -0.048502 -0.228603
v -0.000000 -0.068591 -0.247751
v -0.000000 -0.068591 -0.228603
v -0.048502 -0.048502 -0.247751
v -0.048502 -0.048502 -0.228603
v -0.068591 -0.000000 -0.247751
v -0.068591 -0.000000 -0.228603
v -0.048502 0.048501 -0.247751
v -0.048502 0.048501 -0.228603
v -0.000000 0.047759 0.345666
v -0.033771 0.033771 0.345666
v -0.047759 -0.000000 0.345666
v -0.033771 -0.033771 0.345666
v -0.000000 -0.047759 0.345666
v 0.033771 -0.033771 0.345666
v 0.047759 -0.000000 0.345666
v 0.033771 0.033771 0.345666
v -0.000000 0.040648 -0.162979
v -0.028743 0.028742 -0.162979
v -0.040648 -0.000000 -0.162979
v -0.028743 -0.028743 -0.162979
v -0.000000 -0.040648 -0.162979
v 0.028742 -0.028743 -0.162979
v 0.040648 -0.000000 -0.162979
v 0.028742 0.028742 -0.162979
vn -0.7071 -0.7071 -0.0000
vn -0.0000 -1.0000 -0.0000
vn 0.9296 -0.0000 0.3685
vn 0.6574 0.6574 0.3685
vn -0.7071 0.7071 -0.0000
vn -0.0000 1.0000 -0.0000
vn 0.7071 0.7071 -0.0000
vn -0.6574 -0.6574 0.3685
vn -0.0000 -0.9296 0.3685
vn 1.0000 -0.0000 -0.0000
vn 0.7071 -0.7071 -0.0000
vn -0.0000 0.9296 0.3685
vn -0.6574 0.6574 0.3685
vn -1.0000 -0.0000 -0.0000
vn 0.6574 -0.6574 0.3685
vn -0.9296 -0.0000 0.3685
vn -0.0000 0.6763 -0.7366
vn 0.4782 0.4782 -0.7366
vn -0.0000 -0.0000 -1.0000
vn -0.4782 0.4782 0.7366
vn -0.0000 0.6763 0.7366
vn -0.6763 -0.0000 0.7366
vn -0.4782 -0.4782 0.7366
vn -0.0000 -0.6763 0.7366
vn 0.4782 -0.4782 0.7366
vn 0.6763 -0.0000 0.7366
vn 0.4782 0.4782 0.7366
vn 0.6763 -0.0000 -0.7366
vn 0.4782 -0.4782 -0.7366
vn -0.0000 -0.6763 -0.7366
vn -0.4782 -0.4782 -0.7366
vn -0.6763 -0.0000 -0.7366
vn -0.4782 0.4782 -0.7366
vn -0.0000 -0.0000 1.0000
vt 0.867659 0.952915
vt 0.864519 0.960531
vt 0.863934 0.960500
vt 0.867839 0.963637
vt 0.864954 0.949822
vt 0.867839 0.963317
vt 0.864954 0.959335
vt 0.867839 0.954125
vt 0.867839 0.962130
vt 0.864114 0.949779
vt 0.864114 0.959291
vt 0.856357 0.963624
vt 0.868679 0.961290
vt 0.862927 0.949779
vt 0.856357 0.954112
vt 0.862927 0.959291
vt 0.857196 0.963667
vt 0.869866 0.961290
vt 0.857196 0.954155
vt 0.858383 0.963667
vt 0.870705 0.962130
vt 0.858383 0.954155
vt 0.859222 0.963624
vt 0.860062 0.963667
vt 0.870705 0.963317
vt 0.860062 0.954155
vt 0.859222 0.954112
vt 0.861249 0.963667
vt 0.869866 0.964156
vt 0.861249 0.954155
vt 0.866652 0.963637
vt 0.862088 0.963624
vt 0.868679 0.964156
vt 0.862088 0.954112
vt 0.866652 0.954125
vt 0.863108 0.960500
vt 0.856792 0.952915
vt 0.857376 0.952946
vt 0.858203 0.952946
vt 0.858787 0.952915
vt 0.860242 0.952946
vt 0.861068 0.952946
vt 0.866832 0.952915
vt 0.861653 0.952915
vt 0.867691 0.964283
vt 0.869001 0.905429
vt 0.865157 0.905429
vt 0.867691 0.964986
vt 0.868520 0.905429
vt 0.867193 0.965484
vt 0.868040 0.905429
vt 0.866490 0.965484
vt 0.867559 0.905429
vt 0.865992 0.964986
vt 0.867079 0.905429
vt 0.865992 0.964283
vt 0.866599 0.905429
vt 0.866490 0.963786
vt 0.866118 0.905429
vt 0.867193 0.963786
vt 0.865638 0.905429
vt 0.864024 0.951064
vt 0.863018 0.951064
vt 0.856574 0.962345
vt 0.862306 0.951101
vt 0.857286 0.962382
vt 0.858293 0.962382
vt 0.859440 0.962345
vt 0.859004 0.962345
vt 0.860152 0.962382
vt 0.861158 0.962382
vt 0.864736 0.951101
vt 0.867749 0.962352
vt 0.861870 0.962345
vt 0.866742 0.962352
vt 0.864954 0.951438
vt 0.867839 0.962022
vt 0.867839 0.962704
vt 0.864954 0.950755
vt 0.864114 0.950712
vt 0.864114 0.951394
vt 0.856357 0.962691
vt 0.862927 0.950712
vt 0.862927 0.951394
vt 0.856357 0.962009
vt 0.857196 0.962735
vt 0.862088 0.950755
vt 0.857196 0.962052
vt 0.858383 0.962735
vt 0.858383 0.962052
vt 0.859222 0.962009
vt 0.860062 0.962735
vt 0.859222 0.962691
vt 0.859222 0.962009
vt 0.860062 0.962052
vt 0.861249 0.962735
vt 0.861249 0.962052
vt 0.866652 0.962704
vt 0.862088 0.962691
vt 0.862088 0.962009
vt 0.866652 0.962022
vt 0.864519 0.963667
vt 0.867659 0.949779
vt 0.867839 0.964221
vt 0.866832 0.949779
vt 0.861653 0.949779
vt 0.867839 0.965048
vt 0.861068 0.949809
vt 0.867255 0.965632
vt 0.858787 0.949779
vt 0.860242 0.949809
vt 0.866428 0.965632
vt 0.858203 0.949809
vt 0.865844 0.965048
vt 0.857376 0.949809
vt 0.865844 0.964221
vt 0.863108 0.963637
vt 0.856792 0.949779
vt 0.866428 0.963637
vt 0.863934 0.963637
vt 0.867255 0.963637
vt 0.854348 0.870739
vt 0.869977 0.858722
vt 0.866134 0.858722
vt 0.854348 0.871442
vt 0.869497 0.858722
vt 0.853851 0.871940
vt 0.869016 0.858722
vt 0.853147 0.871940
vt 0.868536 0.858722
vt 0.852650 0.871442
vt 0.868056 0.858722
vt 0.852650 0.870739
vt 0.867575 0.858722
vt 0.853147 0.870241
vt 0.867095 0.858722
vt 0.853851 0.870241
vt 0.866614 0.858722
s 1
usemtl Material.001
f 22/40/1 21/39/2 61/113/2 60/110/1
f 8/16/3 6/11/4 2/3/4 19/36/3
f 17/31/5 55/98/5 42/78/6 3/4/6
f 2/3/7 1/2/6 57/102/6 64/120/7
f 14/27/8 12/22/9 21/39/9 22/40/8
f 7/12/10 45/82/10 47/86/11 9/17/11
f 19/36/10 2/3/7 64/120/7 63/117/10
f 4/8/12 18/35/13 24/43/13 1/1/12
f 9/17/11 47/86/11 49/89/2 11/20/2
f 23/42/14 22/41/1 60/111/1 59/108/14
f 12/22/9 10/19/15 20/38/15 21/39/9
f 11/20/2 49/89/2 51/93/1 13/23/1
f 1/1/6 24/43/5 58/105/5 57/103/6
f 18/34/13 16/30/16 23/42/16 24/44/13
f 13/24/1 51/92/1 53/96/14 15/28/14
f 31/59/14 32/61/1 72/138/1 71/136/14
f 10/19/15 8/15/3 19/37/3 20/38/15
f 15/28/14 53/96/14 55/99/5 17/32/5
f 6/11/4 4/7/12 1/2/12 2/3/4
f 20/38/11 19/37/10 63/118/10 62/115/11
f 41/76/17 44/81/18 33/62/18 39/72/17
f 24/44/5 23/42/14 59/108/14 58/106/5
f 16/30/16 14/26/8 22/41/8 23/42/16
f 3/5/6 42/79/6 43/80/7 5/10/7
f 3/6/19 5/9/19 7/13/19 9/18/19 11/21/19 13/25/19 15/29/19 17/33/19
f 21/39/2 20/38/11 62/115/11 61/113/2
f 5/10/7 43/80/7 45/83/10 7/14/10
f 54/97/14 16/30/14 18/34/5 56/100/5
f 52/95/1 14/26/1 16/30/14 54/97/14
f 50/90/2 12/22/2 14/27/1 52/94/1
f 48/88/11 10/19/11 12/22/2 50/90/2
f 46/85/10 8/15/10 10/19/11 48/88/11
f 44/81/7 6/11/7 8/16/10 46/84/10
f 41/76/6 4/7/6 6/11/7 44/81/7
f 40/75/20 39/73/21 42/78/21 55/98/20
f 38/71/22 40/74/20 55/99/20 53/96/22
f 37/70/23 38/71/22 53/96/22 51/92/23
f 36/67/24 37/69/23 51/93/23 49/89/24
f 35/66/25 36/67/24 49/89/24 47/86/25
f 34/63/26 35/65/25 47/87/25 45/83/26
f 33/62/27 34/63/26 45/83/26 43/80/27
f 39/72/21 33/62/27 43/80/27 42/79/21
f 56/101/5 18/35/5 4/8/6 41/77/6
f 44/81/18 46/84/28 34/63/28 33/62/18
f 46/85/28 48/88/29 35/66/29 34/64/28
f 48/88/29 50/90/30 36/67/30 35/66/29
f 50/91/30 52/95/31 37/70/31 36/68/30
f 52/95/31 54/97/32 38/71/32 37/70/31
f 54/97/32 56/100/33 40/74/33 38/71/32
f 56/101/33 41/77/17 39/73/17 40/75/33
f 26/48/34 25/45/34 57/104/34 58/107/34
f 27/50/34 26/48/34 58/107/34 59/109/34
f 28/52/34 27/50/34 59/109/34 60/112/34
f 29/54/34 28/52/34 60/112/34 61/114/34
f 30/56/34 29/54/34 61/114/34 62/116/34
f 31/58/34 30/56/34 62/116/34 63/119/34
f 32/60/34 31/58/34 63/119/34 64/121/34
f 25/45/34 32/60/34 64/121/34 57/104/34
f 72/137/34 65/122/34 66/125/34 67/127/34 68/129/34 69/131/34 70/133/34 71/135/34
f 29/55/6 30/57/5 70/134/5 69/132/6
f 27/51/10 28/53/7 68/130/7 67/128/10
f 25/46/2 26/49/11 66/126/11 65/123/2
f 32/61/1 25/47/2 65/124/2 72/138/1
f 30/57/5 31/59/14 71/136/14 70/134/5
f 28/53/7 29/55/6 69/132/6 68/130/7
f 26/49/11 27/51/10 67/128/10 66/126/11
