# Blender v2.90.1 OBJ File: ''
# www.blender.org
mtllib 1x8.mtl
o Cube1.001
v -0.500000 0.500001 -6.000000
v -0.250000 0.500001 -6.000000
v 0.000000 0.500001 -6.000000
v 0.250000 0.500001 -6.000000
v 0.500000 0.500001 -6.000000
v 0.500000 -0.499999 -6.000000
v -0.500000 -0.499999 -6.000000
v -0.073739 0.165024 1.018030
v -0.088125 0.205646 1.018030
v 0.000000 0.219733 1.018030
v 0.000000 0.176811 1.018030
v -0.135189 0.129662 1.018030
v -0.165505 0.161116 1.018030
v -0.172058 0.070724 1.018030
v -0.212394 0.086162 1.018030
v -0.184348 -0.000000 1.018030
v -0.227367 -0.000000 1.018030
v -0.172058 -0.070725 1.018030
v -0.212394 -0.086163 1.018030
v -0.135189 -0.129662 1.018030
v -0.165505 -0.161116 1.018030
v -0.073739 -0.165024 1.018030
v -0.088125 -0.205646 1.018030
v -0.000000 -0.176812 1.018030
v -0.000000 -0.219733 1.018030
v 0.073739 -0.165024 1.018030
v 0.088125 -0.205646 1.018030
v 0.135189 -0.129662 1.018030
v 0.165505 -0.161116 1.018030
v 0.172058 -0.070725 1.018030
v 0.212394 -0.086163 1.018030
v 0.184348 -0.000000 1.018030
v 0.227367 -0.000000 1.018030
v 0.172058 0.070724 1.018030
v 0.212394 0.086162 1.018030
v 0.135189 0.129662 1.018030
v 0.165505 0.161116 1.018030
v 0.073739 0.165024 1.018030
v 0.088125 0.205646 1.018030
v -0.073739 0.165024 1.573052
v -0.088125 0.205646 1.573052
v -0.165505 0.161116 1.573052
v -0.135189 0.129662 1.573052
v -0.212394 0.086162 1.573052
v -0.172058 0.070724 1.573052
v -0.227367 -0.000000 1.573052
v -0.184348 -0.000000 1.573052
v -0.212394 -0.086163 1.573052
v -0.172058 -0.070725 1.573052
v -0.165505 -0.161116 1.573052
v -0.135189 -0.129662 1.573052
v -0.088125 -0.205646 1.573052
v -0.073739 -0.165024 1.573052
v -0.000000 -0.219733 1.573052
v -0.000000 -0.176812 1.573052
v 0.088125 -0.205646 1.573052
v 0.073739 -0.165024 1.573052
v 0.165505 -0.161116 1.573052
v 0.135189 -0.129662 1.573052
v 0.212394 -0.086163 1.573052
v 0.172058 -0.070725 1.573052
v 0.227367 -0.000000 1.573052
v 0.184348 -0.000000 1.573052
v 0.212394 0.086162 1.573052
v 0.172058 0.070724 1.573052
v 0.165505 0.161116 1.573052
v 0.135189 0.129662 1.573052
v 0.088125 0.205646 1.573052
v 0.073739 0.165024 1.573052
v 0.000000 0.219733 1.573052
v 0.000000 0.176811 1.573052
v -0.500000 -0.500000 2.000000
v -0.500000 -0.500000 2.000000
v -0.500000 -0.250000 -0.000000
v -0.500000 0.000000 -2.000000
v -0.500000 0.250001 -4.000000
v 0.500000 0.250001 -4.000000
v 0.500000 0.000000 -2.000000
v 0.500000 -0.250000 -0.000000
v 0.500000 -0.500000 2.000000
v 0.500000 -0.500000 2.000000
v -0.135189 0.129662 -3.037294
v -0.073739 0.165025 -3.320193
v -0.135189 -0.129662 -0.962706
v -0.172058 -0.070724 -1.434203
v 0.135189 -0.129662 -0.962706
v 0.073739 -0.165024 -0.679807
v 0.135189 0.129662 -3.037294
v 0.172058 0.070725 -2.565797
v -0.184348 0.000000 -2.000000
v -0.172058 0.070725 -2.565797
v -0.000000 -0.176811 -0.585508
v -0.073739 -0.165024 -0.679807
v 0.184348 0.000000 -2.000000
v 0.172058 -0.070724 -1.434203
v 0.000000 0.176812 -3.414492
v 0.073739 0.165025 -3.320193
v -0.045571 0.101985 -1.384752
v -0.000000 0.109270 -1.384752
v -0.083547 0.080131 -1.384752
v -0.106332 0.043708 -1.384752
v -0.113927 0.000000 -1.384752
v -0.106332 -0.043708 -1.384752
v -0.083547 -0.080131 -1.384752
v -0.045571 -0.101985 -1.384752
v -0.000000 -0.109269 -1.384752
v 0.045571 -0.101985 -1.384752
v 0.083547 -0.080131 -1.384752
v 0.106332 -0.043708 -1.384752
v 0.113927 0.000000 -1.384752
v 0.106332 0.043708 -1.384752
v 0.083547 0.080131 -1.384752
v 0.045571 0.101985 -1.384752
v 0.250000 -0.500000 2.000000
v 0.000000 -0.500000 2.000000
v -0.250000 -0.500000 2.000000
vt 0.113975 0.303356
vt 0.111594 0.303356
vt 0.109212 0.303356
vt 0.106830 0.303356
vt 0.104449 0.303356
vt 0.104449 0.296774
vt 0.113975 0.296774
vt 0.098734 0.618899
vt 0.098383 0.619031
vt 0.098125 0.618487
vt 0.098518 0.618444
vt 0.099148 0.619252
vt 0.098904 0.619475
vt 0.099742 0.619425
vt 0.099659 0.619696
vt 0.100407 0.619432
vt 0.100470 0.619704
vt 0.101037 0.619282
vt 0.101238 0.619522
vt 0.101523 0.618989
vt 0.101856 0.619149
vt 0.101757 0.618565
vt 0.102150 0.618615
vt 0.101757 0.618086
vt 0.102150 0.618043
vt 0.101541 0.617631
vt 0.101892 0.617499
vt 0.101127 0.617278
vt 0.101371 0.617054
vt 0.100533 0.617104
vt 0.100616 0.616834
vt 0.099868 0.617098
vt 0.099805 0.616826
vt 0.099238 0.617248
vt 0.099037 0.617008
vt 0.098752 0.617541
vt 0.098419 0.617380
vt 0.098518 0.617965
vt 0.098125 0.617915
vt 0.098734 0.620509
vt 0.098383 0.620377
vt 0.098904 0.619932
vt 0.099148 0.620156
vt 0.099659 0.619711
vt 0.099742 0.619982
vt 0.100470 0.619704
vt 0.100407 0.619976
vt 0.101238 0.619886
vt 0.101037 0.620125
vt 0.101856 0.620258
vt 0.101523 0.620418
vt 0.102150 0.620793
vt 0.101757 0.620843
vt 0.102150 0.621365
vt 0.101757 0.621322
vt 0.101892 0.621908
vt 0.101541 0.621776
vt 0.101371 0.622353
vt 0.101127 0.622129
vt 0.100616 0.622574
vt 0.100533 0.622303
vt 0.099805 0.622582
vt 0.099868 0.622309
vt 0.099037 0.622400
vt 0.099238 0.622160
vt 0.098419 0.622027
vt 0.098752 0.621867
vt 0.098125 0.621492
vt 0.098518 0.621442
vt 0.098125 0.620920
vt 0.098518 0.620964
vt 0.085469 0.270081
vt 0.085469 0.270081
vt 0.087851 0.283245
vt 0.090232 0.296409
vt 0.092614 0.309573
vt 0.094996 0.322737
vt 0.085469 0.322737
vt 0.094996 0.270898
vt 0.104449 0.270081
vt 0.104449 0.283348
vt 0.104449 0.296614
vt 0.104449 0.309881
vt 0.104449 0.323147
vt 0.104449 0.323147
vt 0.059667 0.630363
vt 0.059667 0.604450
vt 0.060237 0.604467
vt 0.060237 0.632189
vt 0.095719 0.611161
vt 0.095719 0.623855
vt 0.095173 0.623853
vt 0.095173 0.608137
vt 0.103141 0.629520
vt 0.103141 0.616826
vt 0.103711 0.616828
vt 0.103711 0.627709
vt 0.098125 0.597865
vt 0.098125 0.623855
vt 0.097578 0.623853
vt 0.097578 0.600885
vt 0.094517 0.604511
vt 0.094517 0.623853
vt 0.093861 0.623853
vt 0.093861 0.600885
vt 0.104395 0.627105
vt 0.104395 0.616829
vt 0.105079 0.616828
vt 0.105079 0.627709
vt 0.096922 0.604511
vt 0.096922 0.623853
vt 0.096266 0.623853
vt 0.096266 0.608137
vt 0.060921 0.632797
vt 0.060921 0.604473
vt 0.061605 0.604467
vt 0.061605 0.632189
vt 0.093314 0.623855
vt 0.093314 0.597865
vt 0.105649 0.616826
vt 0.105649 0.629520
vt 0.095719 0.623855
vt 0.095719 0.611161
vt 0.062175 0.604450
vt 0.062175 0.630363
vt 0.100063 0.597866
vt 0.099802 0.616825
vt 0.099379 0.616825
vt 0.099379 0.597865
vt 0.100633 0.597868
vt 0.100154 0.616826
vt 0.103687 0.597866
vt 0.103938 0.616825
vt 0.103600 0.616826
vt 0.103141 0.597868
vt 0.104343 0.597865
vt 0.104343 0.616825
vt 0.105000 0.597866
vt 0.104749 0.616825
vt 0.105546 0.597868
vt 0.105087 0.616826
vt 0.101203 0.597871
vt 0.101464 0.616803
vt 0.101112 0.616814
vt 0.100633 0.597889
vt 0.101887 0.597865
vt 0.101887 0.616799
vt 0.102571 0.597871
vt 0.102309 0.616803
vt 0.103141 0.597889
vt 0.102662 0.616814
vt 0.106093 0.597866
vt 0.106343 0.616825
vt 0.106006 0.616826
vt 0.105546 0.597868
vt 0.106749 0.597865
vt 0.106749 0.616825
vt 0.107405 0.597866
vt 0.107154 0.616825
vt 0.107952 0.597868
vt 0.107492 0.616826
vt 0.098695 0.597866
vt 0.098956 0.616825
vt 0.098604 0.616826
vt 0.098125 0.597868
vt 0.105493 0.629527
vt 0.106211 0.629549
vt 0.106211 0.633096
vt 0.105493 0.633074
vt 0.099373 0.630267
vt 0.100069 0.630265
vt 0.100069 0.633822
vt 0.099373 0.633824
vt 0.100868 0.630264
vt 0.100868 0.633821
vt 0.101667 0.630265
vt 0.101667 0.633822
vt 0.102362 0.630267
vt 0.102362 0.633824
vt 0.093314 0.630267
vt 0.094032 0.630265
vt 0.094032 0.633822
vt 0.093314 0.633824
vt 0.094849 0.630264
vt 0.094849 0.633821
vt 0.095667 0.630265
vt 0.095667 0.633822
vt 0.096384 0.630267
vt 0.096384 0.633824
vt 0.097080 0.630265
vt 0.097080 0.633822
vt 0.097879 0.630264
vt 0.097879 0.633821
vt 0.098678 0.630265
vt 0.098678 0.633822
vt 0.099373 0.630267
vt 0.099373 0.633824
vt 0.103141 0.629549
vt 0.103859 0.629527
vt 0.103859 0.633074
vt 0.103141 0.633096
vt 0.104676 0.629520
vt 0.104676 0.633067
vt 0.117517 0.289669
vt 0.117893 0.289559
vt 0.118316 0.289555
vt 0.118716 0.289650
vt 0.119024 0.289836
vt 0.119173 0.290105
vt 0.119173 0.290409
vt 0.119036 0.290698
vt 0.118773 0.290922
vt 0.118396 0.291032
vt 0.117973 0.291036
vt 0.117574 0.290941
vt 0.117265 0.290755
vt 0.117117 0.290486
vt 0.117117 0.290182
vt 0.117254 0.289893
vt 0.075943 0.322738
vt 0.075943 0.270081
vt 0.066416 0.270081
vt 0.066416 0.270081
vt 0.066416 0.270081
vt 0.066416 0.270081
vt 0.066416 0.270081
vt 0.066416 0.270081
vt 0.066416 0.270081
vt 0.066416 0.323089
vt 0.069891 0.303458
vt 0.070477 0.305333
vt 0.068798 0.323089
vt 0.075943 0.323089
vt 0.072467 0.303458
vt 0.072818 0.300334
vt 0.075943 0.309837
vt 0.073561 0.323089
vt 0.071882 0.305333
vt 0.075943 0.270081
vt 0.075943 0.283333
vt 0.072818 0.292836
vt 0.072467 0.289712
vt 0.075942 0.296585
vt 0.072935 0.296585
vt 0.071179 0.323089
vt 0.071179 0.305957
vt 0.069540 0.292836
vt 0.066416 0.283333
vt 0.069891 0.289712
vt 0.071882 0.287838
vt 0.073561 0.270081
vt 0.069540 0.300334
vt 0.066416 0.309837
vt 0.066416 0.296585
vt 0.069423 0.296585
vt 0.070477 0.287838
vt 0.068798 0.270081
vt 0.071179 0.270081
vt 0.071179 0.287213
vn 0.0000 0.0000 -1.0000
vn 0.0000 0.0000 1.0000
vn -1.0000 0.0000 0.0000
vn 1.0000 0.0000 0.0000
vn -0.6940 0.7200 -0.0000
vn -0.3338 0.9426 0.0000
vn -0.6940 -0.7200 -0.0000
vn -0.9339 -0.3574 -0.0000
vn 0.6940 -0.7200 -0.0000
vn 0.3338 -0.9426 -0.0000
vn 0.6940 0.7200 -0.0000
vn 0.9339 0.3574 0.0000
vn 0.9339 0.3575 -0.0000
vn -0.9339 0.3574 0.0000
vn -0.9339 0.3575 0.0000
vn 0.0000 -1.0000 -0.0000
vn -0.3338 -0.9426 -0.0000
vn 0.9339 -0.3574 -0.0000
vn 0.0000 1.0000 0.0000
vn 0.3338 0.9426 0.0000
vn 0.3335 -0.9425 0.0233
vn 0.2947 -0.8323 0.4695
vn 0.0000 -0.8838 0.4678
vn 0.0000 -0.9997 0.0228
vn 0.6936 -0.7199 0.0242
vn 0.6107 -0.6336 0.4749
vn 0.9336 -0.3574 0.0240
vn 0.8239 -0.3154 0.4708
vn 0.9997 0.0000 0.0238
vn 0.8831 0.0000 0.4693
vn 0.9336 0.3574 0.0240
vn 0.8239 0.3153 0.4708
vn 0.6936 0.7199 0.0242
vn 0.6107 0.6336 0.4749
vn 0.3335 0.9425 0.0233
vn 0.2947 0.8323 0.4695
vn -0.0000 0.9997 0.0228
vn 0.0000 0.8838 0.4678
vn -0.3335 0.9425 0.0233
vn -0.2947 0.8323 0.4695
vn -0.6936 0.7199 0.0242
vn -0.6107 0.6336 0.4749
vn -0.9336 0.3574 0.0240
vn -0.8239 0.3154 0.4708
vn -0.9997 0.0000 0.0238
vn -0.8831 -0.0000 0.4693
vn -0.9336 -0.3574 0.0240
vn -0.8240 -0.3153 0.4708
vn -0.6936 -0.7199 0.0242
vn -0.6107 -0.6336 0.4749
vn -0.3335 -0.9425 0.0233
vn -0.2947 -0.8323 0.4695
vn 0.0000 -0.5000 0.5000
vn -0.0000 0.9923 0.1240
usemtl Cube1_auv.001
s 1
f 1/1/1 2/2/1 3/3/1 4/4/1 5/5/1 6/6/1 7/7/1
f 8/8/1 9/9/1 10/10/1 11/11/1
f 12/12/1 13/13/1 9/9/1 8/8/1
f 14/14/1 15/15/1 13/13/1 12/12/1
f 16/16/1 17/17/1 15/15/1 14/14/1
f 18/18/1 19/19/1 17/17/1 16/16/1
f 20/20/1 21/21/1 19/19/1 18/18/1
f 22/22/1 23/23/1 21/21/1 20/20/1
f 24/24/1 25/25/1 23/23/1 22/22/1
f 26/26/1 27/27/1 25/25/1 24/24/1
f 28/28/1 29/29/1 27/27/1 26/26/1
f 30/30/1 31/31/1 29/29/1 28/28/1
f 32/32/1 33/33/1 31/31/1 30/30/1
f 34/34/1 35/35/1 33/33/1 32/32/1
f 36/36/1 37/37/1 35/35/1 34/34/1
f 38/38/1 39/39/1 37/37/1 36/36/1
f 11/11/1 10/10/1 39/39/1 38/38/1
f 40/40/2 41/41/2 42/42/2 43/43/2
f 43/43/2 42/42/2 44/44/2 45/45/2
f 45/45/2 44/44/2 46/46/2 47/47/2
f 47/47/2 46/46/2 48/48/2 49/49/2
f 49/49/2 48/48/2 50/50/2 51/51/2
f 51/51/2 50/50/2 52/52/2 53/53/2
f 53/53/2 52/52/2 54/54/2 55/55/2
f 55/55/2 54/54/2 56/56/2 57/57/2
f 57/57/2 56/56/2 58/58/2 59/59/2
f 59/59/2 58/58/2 60/60/2 61/61/2
f 61/61/2 60/60/2 62/62/2 63/63/2
f 63/63/2 62/62/2 64/64/2 65/65/2
f 65/65/2 64/64/2 66/66/2 67/67/2
f 67/67/2 66/66/2 68/68/2 69/69/2
f 69/69/2 68/68/2 70/70/2 71/71/2
f 71/71/2 70/70/2 41/41/2 40/40/2
f 72/72/3 73/73/3 74/74/3 75/75/3 76/76/3 1/77/3 7/78/3
f 6/79/4 5/80/4 77/81/4 78/82/4 79/83/4 80/84/4 81/85/4
f 82/86/5 12/87/5 8/88/6 83/89/6
f 84/90/7 20/91/7 18/92/8 85/93/8
f 86/94/9 28/95/9 26/96/10 87/97/10
f 88/98/11 36/99/11 34/100/12 89/101/13
f 90/102/3 16/103/3 14/104/14 91/105/15
f 92/106/16 24/107/16 22/108/17 93/109/17
f 94/110/4 32/111/4 30/112/18 95/113/18
f 96/114/19 11/115/19 38/116/20 97/117/20
f 85/93/8 18/92/8 16/103/3 90/102/3
f 87/97/10 26/96/10 24/107/16 92/106/16
f 89/101/13 34/100/12 32/111/4 94/110/4
f 83/89/6 8/88/6 11/115/19 96/114/19
f 91/105/15 14/104/14 12/118/5 82/119/5
f 93/109/17 22/108/17 20/120/7 84/121/7
f 95/113/18 30/112/18 28/122/9 86/123/9
f 97/117/20 38/116/20 36/124/11 88/125/11
f 40/126/21 98/127/22 99/128/23 71/129/24
f 43/130/25 100/131/26 98/127/22 40/126/21
f 45/132/27 101/133/28 100/134/26 43/135/25
f 47/136/29 102/137/30 101/133/28 45/132/27
f 49/138/31 103/139/32 102/137/30 47/136/29
f 51/140/33 104/141/34 103/139/32 49/138/31
f 53/142/35 105/143/36 104/144/34 51/145/33
f 55/146/37 106/147/38 105/143/36 53/142/35
f 57/148/39 107/149/40 106/147/38 55/146/37
f 59/150/41 108/151/42 107/149/40 57/148/39
f 61/152/43 109/153/44 108/154/42 59/155/41
f 63/156/45 110/157/46 109/153/44 61/152/43
f 65/158/47 111/159/48 110/157/46 63/156/45
f 67/160/49 112/161/50 111/159/48 65/158/47
f 69/162/51 113/163/52 112/164/50 67/165/49
f 71/129/24 99/128/23 113/163/52 69/162/51
f 9/166/6 13/167/5 42/168/5 41/169/6
f 13/170/5 15/171/14 44/172/14 42/173/5
f 15/171/14 17/174/3 46/175/3 44/172/14
f 17/174/3 19/176/8 48/177/8 46/175/3
f 19/176/8 21/178/7 50/179/7 48/177/8
f 21/180/7 23/181/17 52/182/17 50/183/7
f 23/181/17 25/184/16 54/185/16 52/182/17
f 25/184/16 27/186/10 56/187/10 54/185/16
f 27/186/10 29/188/9 58/189/9 56/187/10
f 29/188/9 31/190/18 60/191/18 58/189/9
f 31/190/18 33/192/4 62/193/4 60/191/18
f 33/192/4 35/194/12 64/195/12 62/193/4
f 35/194/12 37/196/11 66/197/11 64/195/12
f 37/198/11 39/199/20 68/200/20 66/201/11
f 39/199/20 10/202/19 70/203/19 68/200/20
f 41/169/6 70/203/19 10/202/19 9/166/6
f 100/204/26 101/205/28 102/206/30 103/207/32 104/208/34 105/209/36 106/210/38 107/211/40 108/212/42 109/213/44 110/214/46 111/215/48 112/216/50 113/217/52 99/218/23 98/219/22
f 7/78/16 6/220/16 81/221/53 72/72/16
f 72/222/16 81/223/53 80/224/2 114/225/2 115/226/2 116/227/2 73/228/2
f 1/229/54 82/230/54 83/231/54 2/232/54
f 5/233/54 88/234/54 89/235/54 77/236/54
f 5/233/54 4/237/54 97/238/54 88/234/54
f 80/239/54 79/240/54 95/241/54 86/242/54
f 78/243/54 77/236/54 89/235/54 94/244/54
f 3/245/54 2/232/54 83/231/54 96/246/54
f 85/247/54 74/248/54 73/228/54 84/249/54
f 87/250/54 114/251/54 80/239/54 86/242/54
f 91/252/54 76/253/54 75/254/54 90/255/54
f 93/256/54 116/257/54 115/258/54 92/259/54
f 95/241/54 79/240/54 78/243/54 94/244/54
f 97/238/54 4/237/54 3/245/54 96/246/54
f 76/253/54 91/252/54 82/230/54 1/229/54
f 116/257/54 93/256/54 84/249/54 73/228/54
f 74/248/54 85/247/54 90/255/54 75/254/54
f 114/251/54 87/250/54 92/259/54 115/258/54
