# Blender v3.2.0 OBJ File: ''
# www.blender.org
mtllib 37mm_shell.mtl
o Cylinder.001
v -0.187104 -0.880744 0.077501
v -0.187104 0.228674 0.077501
v -0.202520 0.228674 -0.000000
v -0.202519 -0.880744 -0.000000
v -0.154248 0.515948 0.063892
v -0.166957 0.515948 -0.000000
v 0.077215 -0.880744 -0.187294
v 0.077215 0.228674 -0.187294
v 0.143203 0.228674 -0.143203
v 0.143203 -0.880744 -0.143203
v 0.063656 0.515948 -0.154405
v 0.118056 0.515948 -0.118056
v -0.143203 -0.880744 -0.143203
v -0.143203 0.228674 -0.143203
v -0.077215 0.228674 -0.187294
v -0.077215 -0.880744 -0.187294
v -0.118056 0.515948 -0.118056
v -0.063656 0.515948 -0.154405
v 0.187104 -0.880744 0.077501
v 0.187104 0.228674 0.077501
v 0.143203 0.228674 0.143203
v 0.143203 -0.880744 0.143203
v 0.154248 0.515948 0.063892
v 0.118056 0.515948 0.118057
v 0.077215 -0.880744 0.187295
v 0.077215 0.228674 0.187295
v -0.000000 0.228674 0.204775
v -0.000000 -0.880744 0.204776
v 0.063656 0.515948 0.154406
v -0.000000 0.515948 0.168817
v -0.143203 -0.880744 0.143203
v -0.143203 0.228674 0.143203
v -0.118056 0.515948 0.118057
v -0.187104 -0.880744 -0.077501
v -0.187104 0.228674 -0.077501
v -0.154248 0.515948 -0.063891
v 0.000000 -0.880744 -0.204775
v 0.000000 0.228674 -0.204775
v 0.000000 0.515948 -0.168817
v -0.077215 -0.880744 0.187295
v -0.077215 0.228674 0.187295
v -0.063656 0.515948 0.154406
v 0.187104 0.228674 -0.077501
v 0.187104 -0.880744 -0.077501
v 0.154248 0.515948 -0.063891
v 0.202519 0.228674 0.000000
v 0.202519 -0.880744 0.000000
v 0.166957 0.515948 0.000000
v -0.154248 0.908252 0.063892
v -0.166957 0.908252 -0.000000
v 0.063656 0.908252 -0.154405
v 0.118056 0.908252 -0.118056
v -0.118056 0.908252 -0.118056
v -0.063656 0.908252 -0.154405
v 0.154248 0.908252 0.063892
v 0.118056 0.908252 0.118057
v 0.063656 0.908252 0.154406
v -0.000000 0.908252 0.168817
v -0.118056 0.908252 0.118057
v -0.154248 0.908252 -0.063892
v 0.000000 0.908252 -0.168816
v -0.063656 0.908252 0.154406
v 0.154248 0.908252 -0.063892
v 0.166957 0.908252 0.000000
v -0.145574 0.908252 0.060299
v -0.157568 0.908252 -0.000000
v 0.060077 0.908252 -0.145722
v 0.111418 0.908252 -0.111417
v -0.111418 0.908252 -0.111417
v -0.060077 0.908252 -0.145722
v 0.145574 0.908252 0.060299
v 0.111418 0.908252 0.111418
v 0.060077 0.908252 0.145723
v -0.000000 0.908252 0.159323
v -0.111418 0.908252 0.111418
v -0.145574 0.908252 -0.060299
v 0.000000 0.908252 -0.159323
v -0.060077 0.908252 0.145723
v 0.145574 0.908252 -0.060299
v 0.157568 0.908252 0.000000
v -0.083187 -0.880744 0.201780
v -0.000000 -0.880744 0.220613
v 0.000000 -0.880744 -0.220613
v 0.083187 -0.880744 -0.201780
v 0.083187 -0.908252 -0.201780
v 0.000000 -0.908252 -0.220613
v 0.083187 -0.880744 0.201780
v 0.154278 -0.880744 0.154279
v -0.201575 -0.880744 -0.083495
v -0.218183 -0.880744 -0.000000
v 0.201575 -0.880744 -0.083495
v 0.154278 -0.880744 -0.154278
v -0.154278 -0.880744 0.154279
v -0.154278 -0.880744 -0.154278
v -0.201575 -0.880744 0.083495
v 0.201575 -0.880744 0.083495
v -0.083187 -0.880744 -0.201780
v 0.218183 -0.880744 0.000000
v 0.093687 -0.908252 -0.038806
v 0.101406 -0.908252 0.000000
v 0.085414 -0.873043 0.000000
v 0.078912 -0.873043 -0.032686
v -0.154278 -0.908252 -0.154278
v -0.201575 -0.908252 -0.083495
v -0.201575 -0.908252 0.083495
v -0.154278 -0.908252 0.154279
v -0.000000 -0.908252 0.220613
v 0.083187 -0.908252 0.201780
v 0.154278 -0.908252 0.154279
v 0.201575 -0.908252 0.083495
v -0.083187 -0.908252 -0.201780
v 0.154278 -0.908252 -0.154278
v -0.218183 -0.908252 -0.000000
v 0.218183 -0.908252 0.000000
v 0.201575 -0.908252 -0.083495
v -0.083187 -0.908252 0.201780
v -0.158599 -0.816062 0.065694
v -0.171666 -0.816062 -0.000000
v -0.121386 -0.816062 0.121386
v 0.158599 -0.816062 -0.065694
v 0.171666 -0.816062 0.000000
v -0.158599 -0.816062 -0.065694
v -0.121386 -0.816062 -0.121386
v 0.158599 -0.816062 0.065694
v 0.000000 -0.816062 -0.173578
v 0.065452 -0.816062 -0.158760
v -0.065452 -0.816062 -0.158760
v -0.065452 -0.816062 0.158761
v 0.121386 -0.816062 -0.121386
v 0.121386 -0.816062 0.121386
v 0.065452 -0.816062 0.158761
v -0.000000 -0.816062 0.173578
v -0.093687 -0.908252 0.038807
v -0.071705 -0.908252 0.071705
v -0.037201 -0.908252 -0.094760
v -0.071705 -0.908252 -0.071705
v -0.101406 -0.908252 -0.000000
v 0.000000 -0.908252 -0.103182
v -0.037201 -0.908252 0.094760
v -0.000000 -0.908252 0.103182
v -0.093687 -0.908252 -0.038806
v 0.071705 -0.908252 0.071705
v 0.093687 -0.908252 0.038807
v 0.071705 -0.908252 -0.071705
v 0.037201 -0.908252 -0.094760
v 0.037201 -0.908252 0.094760
v 0.031572 -0.873043 -0.031572
v 0.041251 -0.873043 -0.017087
v 0.024819 -0.853093 -0.010280
v 0.018996 -0.853093 -0.018996
v 0.031334 -0.873043 0.079816
v 0.060397 -0.873043 0.060397
v 0.060397 -0.873043 -0.060397
v -0.078912 -0.873043 0.032687
v -0.060397 -0.873043 0.060397
v 0.031334 -0.873043 -0.079815
v 0.000000 -0.873043 -0.086909
v -0.031334 -0.873043 -0.079815
v -0.060397 -0.873043 -0.060397
v -0.000000 -0.873043 0.086910
v -0.085414 -0.873043 -0.000000
v -0.031334 -0.873043 0.079816
v -0.078912 -0.873043 -0.032686
v 0.078912 -0.873043 0.032687
v -0.041251 -0.873043 0.017087
v -0.031572 -0.873043 0.031573
v -0.015281 -0.873043 -0.042457
v -0.031572 -0.873043 -0.031572
v -0.044650 -0.873043 -0.000000
v 0.000000 -0.873043 -0.045917
v -0.015281 -0.873043 0.042458
v -0.000000 -0.873043 0.045917
v -0.041251 -0.873043 -0.017087
v 0.031572 -0.873043 0.031573
v 0.041251 -0.873043 0.017087
v 0.015281 -0.873043 -0.042457
v 0.044650 -0.873043 0.000000
v 0.015281 -0.873043 0.042458
v -0.009194 -0.853093 -0.025545
v 0.000000 -0.853093 -0.027626
v 0.000000 -0.836928 0.000000
v -0.018996 -0.853093 0.018996
v -0.009194 -0.853093 0.025545
v 0.009194 -0.853093 -0.025545
v -0.018996 -0.853093 -0.018996
v -0.024819 -0.853093 -0.010280
v -0.024819 -0.853093 0.010280
v -0.000000 -0.853093 0.027626
v 0.009194 -0.853093 0.025545
v 0.018996 -0.853093 0.018996
v 0.024819 -0.853093 0.010280
v -0.026864 -0.853093 -0.000000
v 0.026864 -0.853093 0.000000
vt 0.763414 0.955790
vt 0.763414 0.954754
vt 0.763483 0.954753
vt 0.763483 0.955788
vt 0.763433 0.954487
vt 0.763489 0.954486
vt 0.763099 0.955793
vt 0.763099 0.954757
vt 0.763152 0.954754
vt 0.763152 0.955790
vt 0.763835 0.954755
vt 0.763816 0.954487
vt 0.763860 0.954488
vt 0.763887 0.954756
vt 0.763625 0.955792
vt 0.763625 0.954755
vt 0.763693 0.954755
vt 0.763693 0.955792
vt 0.763643 0.954487
vt 0.763700 0.954487
vt 0.762489 0.955793
vt 0.762489 0.954756
vt 0.762542 0.954755
vt 0.762542 0.955791
vt 0.762516 0.954489
vt 0.762560 0.954487
vt 0.762611 0.955790
vt 0.762611 0.954754
vt 0.762685 0.954754
vt 0.762685 0.955790
vt 0.762617 0.954486
vt 0.762678 0.954486
vt 0.763362 0.955793
vt 0.763362 0.954757
vt 0.763390 0.954490
vt 0.763557 0.955788
vt 0.763557 0.954753
vt 0.763550 0.954486
vt 0.763767 0.955792
vt 0.763767 0.954755
vt 0.763835 0.955792
vt 0.763761 0.954487
vt 0.762752 0.955791
vt 0.762752 0.954755
vt 0.762804 0.954757
vt 0.762804 0.955793
vt 0.762733 0.954487
vt 0.762776 0.954489
vt 0.763220 0.954753
vt 0.763220 0.955788
vt 0.763170 0.954487
vt 0.763227 0.954486
vt 0.763294 0.954753
vt 0.763294 0.955788
vt 0.763287 0.954486
vt 0.763362 0.954754
vt 0.763362 0.955790
vt 0.763344 0.954487
vt 0.763433 0.954121
vt 0.763489 0.954120
vt 0.763127 0.954490
vt 0.763127 0.954123
vt 0.763170 0.954121
vt 0.763643 0.954120
vt 0.763700 0.954120
vt 0.762516 0.954122
vt 0.762560 0.954121
vt 0.762617 0.954120
vt 0.762678 0.954120
vt 0.763390 0.954123
vt 0.763550 0.954120
vt 0.763761 0.954120
vt 0.763816 0.954120
vt 0.762733 0.954121
vt 0.762776 0.954122
vt 0.763227 0.954120
vt 0.763287 0.954120
vt 0.763344 0.954121
vt 0.762795 0.955916
vt 0.762787 0.955918
vt 0.762765 0.955865
vt 0.762772 0.955860
vt 0.762512 0.955859
vt 0.762520 0.955864
vt 0.762498 0.955918
vt 0.762489 0.955916
vt 0.762673 0.955793
vt 0.762671 0.955802
vt 0.762613 0.955802
vt 0.762611 0.955793
vt 0.762555 0.956076
vt 0.762560 0.956069
vt 0.762613 0.956091
vt 0.762612 0.956100
vt 0.762673 0.956100
vt 0.762671 0.956091
vt 0.762725 0.956070
vt 0.762730 0.956078
vt 0.762795 0.955977
vt 0.762787 0.955975
vt 0.762729 0.955817
vt 0.762724 0.955824
vt 0.762554 0.955815
vt 0.762559 0.955823
vt 0.762772 0.956033
vt 0.762765 0.956029
vt 0.762498 0.955975
vt 0.762489 0.955977
vt 0.762520 0.956028
vt 0.762512 0.956033
vt 0.763669 0.956152
vt 0.763720 0.956098
vt 0.763732 0.956107
vt 0.763677 0.956164
vt 0.764316 0.955808
vt 0.764317 0.955735
vt 0.764343 0.955735
vt 0.764342 0.955808
vt 0.763525 0.956179
vt 0.763600 0.956179
vt 0.763602 0.956193
vt 0.763522 0.956193
vt 0.763720 0.955888
vt 0.763667 0.955835
vt 0.763676 0.955823
vt 0.763732 0.955880
vt 0.763376 0.955956
vt 0.763376 0.956030
vt 0.763362 0.956033
vt 0.763362 0.955953
vt 0.763748 0.956030
vt 0.763762 0.956033
vt 0.763456 0.955834
vt 0.763405 0.955887
vt 0.763393 0.955879
vt 0.763448 0.955821
vt 0.763602 0.955793
vt 0.763748 0.955956
vt 0.763762 0.955953
vt 0.763457 0.956150
vt 0.763449 0.956162
vt 0.763525 0.955807
vt 0.763522 0.955793
vt 0.763405 0.956098
vt 0.763393 0.956106
vt 0.763909 0.911858
vt 0.763225 0.911858
vt 0.763308 0.906132
vt 0.763969 0.906132
vt 0.764288 0.955808
vt 0.764291 0.955735
vt 0.764316 0.955735
vt 0.764314 0.955809
vt 0.764291 0.956018
vt 0.764288 0.955961
vt 0.764314 0.955962
vt 0.764316 0.956018
vt 0.764380 0.955940
vt 0.764380 0.955861
vt 0.764406 0.955861
vt 0.764406 0.955940
vt 0.764384 0.956072
vt 0.764382 0.956015
vt 0.764407 0.956015
vt 0.764409 0.956072
vt 0.764317 0.955961
vt 0.764316 0.955887
vt 0.764342 0.955887
vt 0.764343 0.955961
vt 0.762964 0.956018
vt 0.762961 0.955961
vt 0.762987 0.955961
vt 0.762989 0.956018
vt 0.764288 0.955888
vt 0.764313 0.955888
vt 0.762961 0.955808
vt 0.762964 0.955734
vt 0.762989 0.955735
vt 0.762987 0.955808
vt 0.762961 0.955888
vt 0.762986 0.955888
vt 0.764382 0.955788
vt 0.764407 0.955788
vt 0.764384 0.955733
vt 0.764409 0.955733
vt 0.765011 0.912768
vt 0.764956 0.827589
vt 0.765625 0.827587
vt 0.765625 0.912766
vt 0.764396 0.912774
vt 0.764286 0.827597
vt 0.769933 0.912873
vt 0.770318 0.827704
vt 0.770988 0.827740
vt 0.770548 0.912906
vt 0.766239 0.912768
vt 0.766294 0.827589
vt 0.766964 0.827597
vt 0.766854 0.912774
vt 0.760702 0.912906
vt 0.760262 0.827740
vt 0.760931 0.827704
vt 0.761317 0.912873
vt 0.768086 0.912800
vt 0.768307 0.827625
vt 0.768977 0.827647
vt 0.768702 0.912821
vt 0.767471 0.912785
vt 0.767636 0.827609
vt 0.763779 0.912785
vt 0.763614 0.827609
vt 0.769649 0.827673
vt 0.769319 0.912845
vt 0.761601 0.827673
vt 0.761931 0.912845
vt 0.762273 0.827647
vt 0.762548 0.912821
vt 0.762943 0.827625
vt 0.763163 0.912800
vt 0.770686 0.856323
vt 0.770686 0.856392
vt 0.770660 0.856457
vt 0.770612 0.856507
vt 0.770547 0.856532
vt 0.770477 0.856532
vt 0.770413 0.856505
vt 0.770364 0.856456
vt 0.770338 0.856392
vt 0.770338 0.856323
vt 0.770365 0.856259
vt 0.770412 0.856208
vt 0.770477 0.856183
vt 0.770547 0.856183
vt 0.770611 0.856210
vt 0.770660 0.856259
vt 0.764180 0.955953
vt 0.764180 0.955916
vt 0.764288 0.955895
vt 0.764067 0.956028
vt 0.764106 0.956028
vt 0.764127 0.956135
vt 0.764047 0.956135
vt 0.764166 0.955987
vt 0.764257 0.956048
vt 0.764034 0.956015
vt 0.763973 0.956106
vt 0.764166 0.955880
vt 0.764141 0.955855
vt 0.764202 0.955763
vt 0.764257 0.955821
vt 0.764140 0.956014
vt 0.764201 0.956104
vt 0.764069 0.955842
vt 0.764035 0.955856
vt 0.763974 0.955765
vt 0.764048 0.955735
vt 0.763994 0.955953
vt 0.764009 0.955989
vt 0.763918 0.956048
vt 0.763887 0.955975
vt 0.764009 0.955882
vt 0.763918 0.955821
vt 0.763994 0.955916
vt 0.763887 0.955895
vt 0.764108 0.955842
vt 0.764128 0.955735
vt 0.764714 0.896449
vt 0.763824 0.896449
vt 0.763878 0.893219
vt 0.764760 0.893219
vt 0.769021 0.911891
vt 0.767943 0.911891
vt 0.768029 0.906134
vt 0.769096 0.906134
vt 0.764788 0.911858
vt 0.764836 0.906132
vt 0.764788 0.911891
vt 0.763904 0.911891
vt 0.763958 0.906134
vt 0.764830 0.906134
vt 0.766897 0.911858
vt 0.765856 0.911858
vt 0.765916 0.906132
vt 0.766974 0.906132
vt 0.769021 0.911858
vt 0.767941 0.911858
vt 0.768031 0.906132
vt 0.769100 0.906132
vt 0.766899 0.911891
vt 0.766972 0.906134
vt 0.763213 0.911891
vt 0.763290 0.906134
vt 0.765857 0.911891
vt 0.765913 0.906134
vt 0.770560 0.911858
vt 0.769891 0.911858
vt 0.769989 0.906132
vt 0.770693 0.906132
vt 0.769887 0.911891
vt 0.769983 0.906134
vt 0.770545 0.911891
vt 0.770671 0.906134
vt 0.763802 0.896432
vt 0.764701 0.896432
vt 0.768006 0.896449
vt 0.769213 0.896449
vt 0.763183 0.896432
vt 0.766955 0.896449
vt 0.765896 0.896432
vt 0.766945 0.896432
vt 0.770094 0.896449
vt 0.770710 0.896449
vt 0.769197 0.896432
vt 0.770078 0.896432
vt 0.765906 0.896449
vt 0.770710 0.896432
vt 0.763214 0.896449
vt 0.767995 0.896432
vt 0.762903 0.881121
vt 0.762897 0.881127
vt 0.762882 0.881106
vt 0.764742 0.893160
vt 0.765919 0.893160
vt 0.765940 0.893219
vt 0.766967 0.893219
vt 0.769176 0.893219
vt 0.770059 0.893219
vt 0.763863 0.893160
vt 0.766944 0.893160
vt 0.767970 0.893160
vt 0.769147 0.893160
vt 0.770023 0.893160
vt 0.767995 0.893219
vt 0.763214 0.893160
vt 0.770672 0.893160
vt 0.763240 0.893219
vt 0.770696 0.893219
vt 0.762868 0.881127
vt 0.762861 0.881120
vt 0.762868 0.881084
vt 0.762876 0.881081
vt 0.762858 0.881101
vt 0.762862 0.881091
vt 0.762903 0.881092
vt 0.762907 0.881101
vt 0.762877 0.881130
vt 0.762887 0.881081
vt 0.762888 0.881130
vt 0.762907 0.881111
vt 0.762896 0.881085
vt 0.762858 0.881111
vn -0.9239 -0.0000 0.3827
vn -1.0000 -0.0000 -0.0000
vn -0.9169 0.1229 0.3798
vn -0.9924 0.1229 -0.0000
vn 0.3948 0.0000 -0.9188
vn 0.7071 0.0000 -0.7071
vn 0.3916 0.1229 -0.9119
vn 0.3920 0.1229 -0.9117
vn 0.7017 0.1229 -0.7018
vn -0.7071 0.0000 -0.7071
vn -0.3948 0.0000 -0.9188
vn -0.7017 0.1229 -0.7018
vn -0.3920 0.1229 -0.9117
vn -0.3916 0.1229 -0.9119
vn 0.9239 0.0000 0.3827
vn 0.7071 0.0000 0.7071
vn 0.9169 0.1229 0.3798
vn 0.7017 0.1229 0.7018
vn 0.7018 0.1229 0.7018
vn 0.3948 0.0000 0.9188
vn -0.0000 0.0000 1.0000
vn 0.3916 0.1229 0.9119
vn 0.3920 0.1229 0.9117
vn -0.0000 0.1242 0.9923
vn -0.7071 0.0000 0.7071
vn -0.7018 0.1229 0.7017
vn -0.7017 0.1229 0.7018
vn -0.9239 -0.0000 -0.3827
vn -0.9169 0.1229 -0.3798
vn 0.0000 0.0000 -1.0000
vn 0.0000 0.1242 -0.9923
vn -0.3948 0.0000 0.9188
vn -0.3916 0.1229 0.9119
vn -0.3920 0.1229 0.9117
vn 0.9239 0.0000 -0.3827
vn 0.9169 0.1229 -0.3798
vn 1.0000 0.0000 0.0000
vn 0.9924 0.1229 -0.0000
vn 0.0000 1.0000 -0.0000
vn -0.8412 -0.4135 0.3484
vn -0.9105 -0.4135 0.0000
vn 0.9238 -0.0082 -0.3827
vn 1.0000 -0.0082 0.0000
vn 0.7071 -0.0082 -0.7071
vn -0.9238 -0.0082 0.3827
vn -1.0000 -0.0082 -0.0000
vn 0.9238 -0.0082 0.3827
vn 0.7071 -0.0082 0.7071
vn -0.9238 -0.0082 -0.3827
vn -0.0000 -0.0083 1.0000
vn -0.3948 -0.0082 0.9187
vn 0.3948 -0.0082 0.9187
vn 0.3948 -0.0082 -0.9187
vn -0.7071 -0.0082 0.7071
vn -0.7071 -0.0082 -0.7071
vn -0.3948 -0.0082 -0.9187
vn 0.0000 -0.0083 -1.0000
vn 0.0000 -1.0000 0.0000
vn -0.5278 -0.6655 0.5278
vn -0.6896 -0.6655 0.2856
vn -0.5996 -0.7607 0.2484
vn -0.4589 -0.7607 0.4589
vn -0.6438 -0.4135 -0.6438
vn -0.3581 -0.4147 -0.8365
vn -0.3606 -0.4147 -0.8355
vn -0.6438 -0.4136 0.6438
vn 0.6438 -0.4135 -0.6438
vn 0.8412 -0.4135 -0.3484
vn -0.0000 -0.4195 0.9077
vn -0.3580 -0.4147 0.8365
vn -0.3606 -0.4147 0.8355
vn 0.6438 -0.4136 0.6438
vn 0.3580 -0.4147 0.8365
vn 0.3606 -0.4147 0.8355
vn 0.0000 -0.4195 -0.9077
vn 0.9105 -0.4135 0.0000
vn 0.3581 -0.4147 -0.8365
vn 0.3606 -0.4147 -0.8355
vn 0.8412 -0.4135 0.3484
vn -0.8412 -0.4135 -0.3484
vn 0.2556 -0.7640 0.5925
vn -0.0000 -0.7679 0.6405
vn 0.2906 -0.6688 -0.6843
vn 0.5278 -0.6655 -0.5278
vn 0.4589 -0.7608 -0.4589
vn 0.2556 -0.7640 -0.5925
vn -0.0000 -0.6758 0.7371
vn -0.2906 -0.6688 0.6843
vn -0.2556 -0.7640 0.5925
vn 0.6896 -0.6655 0.2856
vn 0.5278 -0.6655 0.5278
vn 0.4589 -0.7607 0.4589
vn 0.5996 -0.7607 0.2484
vn 0.6896 -0.6655 -0.2856
vn 0.5996 -0.7608 -0.2484
vn -0.2906 -0.6688 -0.6843
vn 0.0000 -0.6758 -0.7371
vn 0.0000 -0.7680 -0.6405
vn -0.2556 -0.7640 -0.5925
vn -0.6896 -0.6655 -0.2856
vn -0.5278 -0.6655 -0.5278
vn -0.4589 -0.7608 -0.4589
vn -0.5996 -0.7608 -0.2484
vn 0.2906 -0.6688 0.6843
vn 0.7464 -0.6655 0.0000
vn 0.6490 -0.7608 0.0000
vn -0.7464 -0.6655 -0.0000
vn -0.6490 -0.7608 -0.0000
usemtl Material.001
s 1
f 1/1/1 2/2/1 3/3/2 4/4/2
f 2/2/3 5/5/3 6/6/4 3/3/4
f 7/7/5 8/8/5 9/9/6 10/10/6
f 8/11/7 11/12/8 12/13/9 9/14/9
f 13/15/10 14/16/10 15/17/11 16/18/11
f 14/16/12 17/19/12 18/20/13 15/17/14
f 19/21/15 20/22/15 21/23/16 22/24/16
f 20/22/17 23/25/17 24/26/18 21/23/19
f 25/27/20 26/28/20 27/29/21 28/30/21
f 26/28/22 29/31/23 30/32/24 27/29/24
f 31/33/25 32/34/25 2/2/1 1/1/1
f 32/34/26 33/35/27 5/5/3 2/2/3
f 34/36/28 35/37/28 14/16/10 13/15/10
f 35/37/29 36/38/29 17/19/12 14/16/12
f 37/39/30 38/40/30 8/11/5 7/41/5
f 38/40/31 39/42/31 11/12/8 8/11/7
f 40/43/32 41/44/32 32/45/25 31/46/25
f 41/44/33 42/47/34 33/48/27 32/45/26
f 10/10/6 9/9/6 43/49/35 44/50/35
f 9/9/9 12/51/9 45/52/36 43/49/36
f 4/4/2 3/3/2 35/37/28 34/36/28
f 3/3/4 6/6/4 36/38/29 35/37/29
f 22/24/16 21/23/16 26/28/20 25/27/20
f 21/23/19 24/26/18 29/31/23 26/28/22
f 28/30/21 27/29/21 41/44/32 40/43/32
f 27/29/24 30/32/24 42/47/34 41/44/33
f 44/50/35 43/49/35 46/53/37 47/54/37
f 43/49/36 45/52/36 48/55/38 46/53/38
f 47/54/37 46/53/37 20/56/15 19/57/15
f 46/53/38 48/55/38 23/58/17 20/56/17
f 16/18/11 15/17/11 38/40/30 37/39/30
f 15/17/14 18/20/13 39/42/31 38/40/31
f 5/5/1 49/59/1 50/60/2 6/6/2
f 11/61/5 51/62/5 52/63/6 12/51/6
f 17/19/10 53/64/10 54/65/11 18/20/11
f 23/25/15 55/66/15 56/67/16 24/26/16
f 29/31/20 57/68/20 58/69/21 30/32/21
f 33/35/25 59/70/25 49/59/1 5/5/1
f 36/38/28 60/71/28 53/64/10 17/19/10
f 39/42/30 61/72/30 51/73/5 11/12/5
f 42/47/32 62/74/32 59/75/25 33/48/25
f 12/51/6 52/63/6 63/76/35 45/52/35
f 6/6/2 50/60/2 60/71/28 36/38/28
f 24/26/16 56/67/16 57/68/20 29/31/20
f 30/32/21 58/69/21 62/74/32 42/47/32
f 45/52/35 63/76/35 64/77/37 48/55/37
f 48/55/37 64/77/37 55/78/15 23/58/15
f 18/20/11 54/65/11 61/72/30 39/42/30
f 49/79/39 65/80/39 66/81/39 50/82/39
f 51/83/39 67/84/39 68/85/39 52/86/39
f 53/87/39 69/88/39 70/89/39 54/90/39
f 55/91/39 71/92/39 72/93/39 56/94/39
f 57/95/39 73/96/39 74/97/39 58/98/39
f 59/99/39 75/100/39 65/80/39 49/79/39
f 60/101/39 76/102/39 69/88/39 53/87/39
f 61/103/39 77/104/39 67/84/39 51/83/39
f 62/105/39 78/106/39 75/100/39 59/99/39
f 52/86/39 68/85/39 79/107/39 63/108/39
f 50/82/39 66/81/39 76/102/39 60/101/39
f 56/94/39 72/93/39 73/96/39 57/95/39
f 58/98/39 74/97/39 78/106/39 62/105/39
f 63/108/39 79/107/39 80/109/39 64/110/39
f 64/110/39 80/109/39 71/92/39 55/91/39
f 54/90/39 70/89/39 77/104/39 61/103/39
f 28/111/39 40/112/39 81/113/39 82/114/39
f 83/115/30 84/116/5 85/117/5 86/118/30
f 22/119/39 25/120/39 87/121/39 88/122/39
f 4/123/39 34/124/39 89/125/39 90/126/39
f 10/127/39 44/128/39 91/129/39 92/130/39
f 40/112/39 31/131/39 93/132/39 81/113/39
f 37/133/39 7/134/39 84/135/39 83/136/39
f 34/124/39 13/15/39 94/137/39 89/125/39
f 31/131/39 1/138/39 95/139/39 93/132/39
f 25/120/39 28/111/39 82/114/39 87/121/39
f 19/140/39 22/119/39 88/122/39 96/141/39
f 13/15/39 16/142/39 97/143/39 94/137/39
f 7/134/39 10/127/39 92/130/39 84/135/39
f 1/138/39 4/123/39 90/126/39 95/139/39
f 47/144/39 19/140/39 96/141/39 98/145/39
f 16/142/39 37/133/39 83/136/39 97/143/39
f 44/128/39 47/144/39 98/145/39 91/129/39
f 99/146/40 100/147/41 101/148/41 102/149/40
f 89/150/28 94/151/10 103/152/10 104/153/28
f 93/154/25 95/155/1 105/156/1 106/157/25
f 87/158/20 82/159/21 107/160/21 108/161/20
f 96/162/15 88/163/16 109/164/16 110/165/15
f 94/166/10 97/167/11 111/168/11 103/169/10
f 84/170/5 92/171/6 112/172/6 85/173/5
f 95/155/1 90/174/2 113/175/2 105/156/1
f 98/176/37 96/177/15 110/178/15 114/179/37
f 97/167/11 83/115/30 86/118/30 111/168/11
f 91/180/35 98/176/37 114/179/37 115/181/35
f 82/159/21 81/182/32 116/183/32 107/160/21
f 88/163/16 87/158/20 108/161/20 109/164/16
f 90/174/2 89/150/28 104/153/28 113/175/2
f 92/171/6 91/180/35 115/181/35 112/172/6
f 81/182/32 93/184/25 106/185/25 116/183/32
f 65/186/42 117/187/42 118/188/43 66/189/43
f 75/190/44 119/191/44 117/187/42 65/186/42
f 79/192/45 120/193/45 121/194/46 80/195/46
f 76/196/47 122/197/47 123/198/48 69/199/48
f 80/200/46 121/201/46 124/202/49 71/203/49
f 77/204/50 125/205/50 126/206/51 67/207/51
f 70/208/52 127/209/52 125/205/50 77/204/50
f 78/210/53 128/211/53 119/191/44 75/190/44
f 67/207/51 126/206/51 129/212/54 68/213/54
f 68/213/54 129/212/54 120/193/45 79/192/45
f 69/199/48 123/198/48 127/209/52 70/208/52
f 66/189/43 118/188/43 122/197/47 76/196/47
f 71/203/49 124/202/49 130/214/55 72/215/55
f 72/215/55 130/214/55 131/216/56 73/217/56
f 73/217/56 131/216/56 132/218/57 74/219/57
f 74/219/57 132/218/57 128/211/53 78/210/53
f 117/220/39 119/221/39 128/222/39 132/223/39 131/224/39 130/225/39 124/226/39 121/227/39 120/228/39 129/229/39 126/230/39 125/231/39 127/232/39 123/233/39 122/234/39 118/235/39
f 133/236/58 134/237/58 106/238/58 105/156/58
f 135/239/58 136/240/58 103/241/58 111/242/58
f 137/243/58 133/236/58 105/156/58 113/244/58
f 138/245/58 135/239/58 111/242/58 86/246/58
f 139/247/58 140/248/58 107/249/58 116/250/58
f 141/251/58 137/243/58 113/244/58 104/252/58
f 134/237/58 139/247/58 116/250/58 106/238/58
f 136/240/58 141/251/58 104/252/58 103/241/58
f 142/253/58 143/254/58 110/255/58 109/256/58
f 144/257/58 145/258/58 85/259/58 112/260/58
f 143/254/58 100/261/58 114/262/58 110/255/58
f 100/261/58 99/263/58 115/264/58 114/262/58
f 146/265/58 142/253/58 109/256/58 108/266/58
f 99/263/58 144/257/58 112/260/58 115/264/58
f 145/258/58 138/245/58 86/246/58 85/259/58
f 140/248/58 146/265/58 108/266/58 107/249/58
f 147/267/59 148/268/60 149/269/61 150/270/62
f 142/271/63 146/272/64 151/273/65 152/274/63
f 144/275/66 99/146/40 102/149/40 153/276/66
f 134/277/67 133/278/68 154/279/68 155/280/67
f 138/281/69 145/282/70 156/283/71 157/284/69
f 136/285/72 135/286/73 158/287/74 159/288/72
f 146/272/64 140/289/75 160/290/75 151/273/65
f 133/278/68 137/291/76 161/292/76 154/279/68
f 135/286/73 138/281/69 157/284/69 158/287/74
f 140/289/75 139/293/77 162/294/78 160/290/75
f 137/295/76 141/296/79 163/297/79 161/298/76
f 139/293/77 134/277/67 155/280/67 162/294/78
f 141/296/79 136/285/72 159/288/72 163/297/79
f 143/299/80 142/271/63 152/274/63 164/300/80
f 145/282/70 144/275/66 153/276/66 156/283/71
f 100/301/41 143/299/80 164/300/80 101/302/41
f 165/303/58 166/304/58 155/280/58 154/279/58
f 167/305/58 168/306/58 159/288/58 158/287/58
f 169/307/58 165/303/58 154/279/58 161/292/58
f 170/308/58 167/305/58 158/287/58 157/284/58
f 171/309/58 172/310/58 160/290/58 162/294/58
f 173/311/58 169/312/58 161/298/58 163/297/58
f 166/304/58 171/309/58 162/294/58 155/280/58
f 168/306/58 173/311/58 163/297/58 159/288/58
f 174/313/58 175/314/58 164/300/58 152/274/58
f 147/267/58 176/315/58 156/283/58 153/276/58
f 175/314/58 177/316/58 101/302/58 164/300/58
f 177/317/58 148/268/58 102/149/58 101/148/58
f 178/318/58 174/313/58 152/274/58 151/273/58
f 148/268/58 147/267/58 153/276/58 102/149/58
f 176/315/58 170/308/58 157/284/58 156/283/58
f 172/310/58 178/318/58 151/273/58 160/290/58
f 179/319/81 180/320/82 181/321/58
f 171/309/83 166/304/84 182/322/85 183/323/86
f 170/308/87 176/315/88 184/324/89 180/325/82
f 173/311/90 168/306/91 185/326/92 186/327/93
f 166/304/84 165/303/94 187/328/95 182/322/85
f 178/318/96 172/310/97 188/329/98 189/330/99
f 175/314/100 174/313/101 190/331/102 191/332/103
f 168/306/91 167/305/104 179/333/81 185/326/92
f 176/315/88 147/267/59 150/270/62 184/324/89
f 165/303/94 169/307/105 192/334/106 187/328/95
f 177/316/107 175/314/100 191/332/103 193/335/108
f 167/305/104 170/308/87 180/325/82 179/333/81
f 148/268/60 177/317/107 193/336/108 149/269/61
f 172/310/97 171/309/83 183/323/86 188/329/98
f 174/313/101 178/318/96 189/330/99 190/331/102
f 169/312/105 173/311/90 186/327/93 192/337/106
f 149/338/61 193/339/108 181/321/58
f 188/340/98 183/341/86 181/321/58
f 190/342/102 189/343/99 181/321/58
f 192/344/106 186/345/93 181/321/58
f 150/346/62 149/338/61 181/321/58
f 183/341/86 182/347/85 181/321/58
f 180/320/82 184/348/89 181/321/58
f 186/345/93 185/349/92 181/321/58
f 182/347/85 187/350/95 181/321/58
f 189/343/99 188/340/98 181/321/58
f 191/351/103 190/342/102 181/321/58
f 185/349/92 179/319/81 181/321/58
f 184/348/89 150/346/62 181/321/58
f 187/350/95 192/344/106 181/321/58
f 193/339/108 191/351/103 181/321/58
