# Blender 3.3.1
# www.blender.org
mtllib 7mm_case_col.mtl
o Cube.001
v -0.000000 0.037244 0.201515
v 0.026335 0.026335 0.201515
v 0.037244 -0.000000 0.201515
v 0.026335 -0.026335 0.201515
v -0.000000 -0.037244 0.201515
v -0.026335 -0.026335 0.201515
v -0.037244 -0.000000 0.201515
v -0.026335 0.026335 0.201515
v -0.000000 0.037244 -0.159019
v 0.026335 0.026335 -0.159019
v 0.037244 -0.000000 -0.159019
v 0.026335 -0.026335 -0.159019
v -0.000000 -0.037244 -0.159019
v -0.026335 -0.026335 -0.159019
v -0.037244 -0.000000 -0.159019
v -0.026335 0.026335 -0.159019
vn -1.0000 -0.0000 -0.0000
vn -0.7071 0.7071 -0.0000
vn -0.7071 -0.7071 -0.0000
vn -0.0000 -1.0000 -0.0000
vn 0.7071 -0.7071 -0.0000
vn 1.0000 -0.0000 -0.0000
vn 0.7071 0.7071 -0.0000
vn -0.0000 1.0000 -0.0000
vn -0.0000 -0.0000 -1.0000
vn -0.0000 -0.0000 1.0000
vt 0.864954 0.959335
vt 0.867839 0.954125
vt 0.864114 0.959291
vt 0.856357 0.954112
vt 0.862927 0.959291
vt 0.857196 0.954155
vt 0.858383 0.954155
vt 0.860062 0.954155
vt 0.859222 0.954112
vt 0.861249 0.954155
vt 0.866652 0.954125
vt 0.862088 0.954112
vt 0.867839 0.962022
vt 0.864954 0.951438
vt 0.864114 0.951394
vt 0.862927 0.951394
vt 0.856357 0.962009
vt 0.857196 0.962052
vt 0.858383 0.962052
vt 0.859222 0.962009
vt 0.860062 0.962052
vt 0.861249 0.962052
vt 0.866652 0.962022
vt 0.862088 0.962009
s 1
usemtl Material.001
f 15/22/1 7/10/1 8/12/2 16/24/2
f 14/21/3 6/8/3 7/10/1 15/22/1
f 13/19/4 5/7/4 6/9/3 14/20/3
f 12/18/5 4/6/5 5/7/4 13/19/4
f 11/17/6 3/4/6 4/6/5 12/18/5
f 10/15/7 2/3/7 3/5/6 11/16/6
f 9/14/8 1/1/8 2/3/7 10/15/7
f 16/23/2 8/11/2 1/2/8 9/13/8
f 16/24/9 9/14/9 10/15/9 11/17/9 12/18/9 13/19/9 14/21/9 15/22/9
f 2/3/10 1/2/10 8/12/10 7/10/10 6/9/10 5/7/10 4/6/10 3/5/10
