# Blender v3.2.0 OBJ File: 'TankSight_OR.blend'
# www.blender.org
mtllib CAM_Crossight_on.mtl
o Cube.001_Cube.002
v -0.330327 0.307480 -1.524026
v -0.322841 0.323356 -1.524026
v -0.471848 0.323356 -1.524026
v -0.458437 0.307480 -1.524026
v 0.458437 0.184258 -1.524026
v 0.471848 0.179787 -1.524026
v 0.471848 0.323356 -1.524026
v 0.458437 0.307480 -1.524026
v 0.330327 -0.307480 -1.524026
v 0.322841 -0.323356 -1.524026
v 0.471848 -0.323356 -1.524026
v 0.458437 -0.307480 -1.524026
v -0.458437 -0.184257 -1.524026
v -0.471848 -0.179787 -1.524026
v -0.471848 -0.323356 -1.524026
v -0.458437 -0.307480 -1.524026
v -0.147201 0.142654 -1.524026
v -0.143344 0.155711 -1.524026
v -0.247753 0.155711 -1.524026
v -0.235633 0.142654 -1.524026
v 0.235633 0.056724 -1.524026
v 0.247753 0.054384 -1.524026
v 0.247753 0.155711 -1.524026
v 0.235633 0.142654 -1.524026
v 0.147201 -0.142654 -1.524026
v 0.143344 -0.155711 -1.524026
v 0.247753 -0.155711 -1.524026
v 0.235633 -0.142654 -1.524026
v -0.235633 -0.056724 -1.524026
v -0.247753 -0.054384 -1.524026
v -0.247753 -0.155711 -1.524026
v -0.235633 -0.142654 -1.524026
v -0.247753 0.054384 -1.524026
v -0.235633 0.056724 -1.524026
v 0.247753 -0.054384 -1.524026
v 0.235633 -0.056724 -1.524026
v -0.471848 0.179787 -1.524026
v -0.458437 0.184258 -1.524026
v 0.471848 -0.179787 -1.524026
v 0.458437 -0.184257 -1.524026
v -0.143344 -0.155711 -1.524026
v -0.147201 -0.142654 -1.524026
v 0.143344 0.155711 -1.524026
v 0.147201 0.142654 -1.524026
v -0.322841 -0.323356 -1.524026
v -0.330327 -0.307480 -1.524026
v 0.322841 0.323356 -1.524026
v 0.330327 0.307480 -1.524026
v 0.004622 0.072852 -1.524026
v -0.004622 0.072852 -1.524026
v -0.004622 -0.072852 -1.524026
v 0.004622 -0.072852 -1.524026
v 0.072991 -0.004445 -1.524026
v 0.072991 0.004445 -1.524026
v -0.072991 0.004445 -1.524026
v -0.072991 -0.004445 -1.524026
v -0.022178 0.053543 -0.989488
v 0.000000 0.057954 -0.989488
v 0.000000 0.063360 -0.989488
v -0.024247 0.058538 -0.989488
v -0.040980 0.040980 -0.989488
v -0.044803 0.044803 -0.989488
v -0.053543 0.022178 -0.989488
v -0.058537 0.024247 -0.989488
v -0.057954 0.000000 -0.989488
v -0.063360 0.000000 -0.989488
v -0.053543 -0.022178 -0.989488
v -0.058537 -0.024247 -0.989488
v -0.040980 -0.040980 -0.989488
v -0.044803 -0.044802 -0.989488
v -0.022178 -0.053543 -0.989488
v -0.024247 -0.058537 -0.989488
v 0.000000 -0.057954 -0.989488
v 0.000000 -0.063360 -0.989488
v 0.022178 -0.053543 -0.989488
v 0.024247 -0.058537 -0.989488
v 0.040980 -0.040980 -0.989488
v 0.044803 -0.044802 -0.989488
v 0.053543 -0.022178 -0.989488
v 0.058537 -0.024247 -0.989488
v 0.057954 0.000000 -0.989488
v 0.063360 0.000000 -0.989488
v 0.053543 0.022178 -0.989488
v 0.058537 0.024247 -0.989488
v 0.040980 0.040980 -0.989488
v 0.044803 0.044803 -0.989488
v 0.022178 0.053543 -0.989488
v 0.024247 0.058538 -0.989488
v 0.004622 0.011595 -1.524026
v -0.004622 0.011595 -1.524026
v -0.004622 -0.011594 -1.524026
v 0.004622 -0.011594 -1.524026
v -0.011642 0.004445 -1.524026
v -0.011642 -0.004445 -1.524026
v 0.011642 -0.004445 -1.524026
v 0.011642 0.004445 -1.524026
vt 0.088361 0.917716
vt 0.088361 0.917716
vt 0.088361 0.917716
vt 0.088361 0.917716
vt 0.088361 0.917716
vt 0.088361 0.917716
vt 0.088361 0.917716
vt 0.088361 0.917716
vt 0.088361 0.917716
vt 0.088361 0.917716
vt 0.088361 0.917716
vt 0.088361 0.917716
vt 0.088361 0.917716
vt 0.088361 0.917716
vt 0.088361 0.917716
vt 0.088361 0.917716
vt 0.088361 0.917716
vt 0.088361 0.917716
vt 0.088361 0.917716
vt 0.088361 0.917716
vt 0.088361 0.917716
vt 0.088361 0.917716
vt 0.088361 0.917716
vt 0.088361 0.917716
vt 0.088361 0.917716
vt 0.088361 0.917716
vt 0.088361 0.917716
vt 0.088361 0.917716
vt 0.088361 0.917716
vt 0.088361 0.917716
vt 0.088361 0.917716
vt 0.088361 0.917716
vt 0.088361 0.917716
vt 0.088361 0.917716
vt 0.088361 0.917716
vt 0.088361 0.917716
vt 0.088361 0.917716
vt 0.088361 0.917716
vt 0.088361 0.917716
vt 0.088361 0.917716
vt 0.088361 0.917716
vt 0.088361 0.917716
vt 0.088361 0.917716
vt 0.088361 0.917716
vt 0.088361 0.917716
vt 0.088361 0.917716
vt 0.088361 0.917716
vt 0.088361 0.917716
vt 0.088361 0.917716
vt 0.088361 0.917716
vt 0.088361 0.917716
vt 0.088361 0.917716
vt 0.088361 0.917716
vt 0.088361 0.917716
vt 0.088361 0.917716
vt 0.088361 0.917716
vt 0.088361 0.917716
vt 0.088361 0.917716
vt 0.088361 0.917716
vt 0.088361 0.917716
vt 0.088361 0.917716
vt 0.088361 0.917716
vt 0.088361 0.917716
vt 0.088361 0.917716
vt 0.088361 0.917716
vt 0.088361 0.917716
vt 0.088361 0.917716
vt 0.088361 0.917716
vt 0.088361 0.917716
vt 0.088361 0.917716
vt 0.088361 0.917716
vt 0.088361 0.917716
vt 0.088361 0.917716
vt 0.088361 0.917716
vt 0.088361 0.917716
vt 0.088361 0.917716
vt 0.088361 0.917716
vt 0.088361 0.917716
vt 0.088361 0.917716
vt 0.088361 0.917716
vt 0.088361 0.917716
vt 0.088361 0.917716
vt 0.088361 0.917716
vt 0.088361 0.917716
vt 0.088361 0.917716
vt 0.088361 0.917716
vt 0.088361 0.917716
vt 0.088361 0.917716
vt 0.088361 0.917716
vt 0.088361 0.917716
vt 0.088361 0.917716
vt 0.088361 0.917716
vt 0.088361 0.917716
vt 0.088361 0.917716
vt 0.088361 0.917716
vt 0.088361 0.917716
vn 0.0000 0.0000 1.0000
usemtl Material.005
s 1
f 1/1/1 2/2/1 3/3/1 4/4/1
f 5/5/1 6/6/1 7/7/1 8/8/1
f 9/9/1 10/10/1 11/11/1 12/12/1
f 13/13/1 14/14/1 15/15/1 16/16/1
f 17/17/1 18/18/1 19/19/1 20/20/1
f 21/21/1 22/22/1 23/23/1 24/24/1
f 25/25/1 26/26/1 27/27/1 28/28/1
f 29/29/1 30/30/1 31/31/1 32/32/1
f 20/20/1 19/19/1 33/33/1 34/34/1
f 28/28/1 27/27/1 35/35/1 36/36/1
f 4/4/1 3/3/1 37/37/1 38/38/1
f 12/12/1 11/11/1 39/39/1 40/40/1
f 32/32/1 31/31/1 41/41/1 42/42/1
f 24/24/1 23/23/1 43/43/1 44/44/1
f 16/16/1 15/15/1 45/45/1 46/46/1
f 8/8/1 7/7/1 47/47/1 48/48/1
f 89/49/1 49/50/1 50/51/1 90/52/1
f 91/53/1 51/54/1 52/55/1 92/56/1
f 95/57/1 53/58/1 54/59/1 96/60/1
f 93/61/1 55/62/1 56/63/1 94/64/1
f 57/65/1 58/66/1 59/67/1 60/68/1
f 61/69/1 57/65/1 60/68/1 62/70/1
f 63/71/1 61/69/1 62/70/1 64/72/1
f 65/73/1 63/71/1 64/72/1 66/74/1
f 67/75/1 65/73/1 66/74/1 68/76/1
f 69/77/1 67/75/1 68/76/1 70/78/1
f 71/79/1 69/77/1 70/78/1 72/80/1
f 73/81/1 71/79/1 72/80/1 74/82/1
f 75/83/1 73/81/1 74/82/1 76/84/1
f 77/85/1 75/83/1 76/84/1 78/86/1
f 79/87/1 77/85/1 78/86/1 80/88/1
f 81/89/1 79/87/1 80/88/1 82/90/1
f 83/91/1 81/89/1 82/90/1 84/92/1
f 85/93/1 83/91/1 84/92/1 86/94/1
f 87/95/1 85/93/1 86/94/1 88/96/1
f 58/66/1 87/95/1 88/96/1 59/67/1
