# Blender v3.2.0 OBJ File: 'TankSight_ger.blend'
# www.blender.org
mtllib OR_Crossight_on.mtl
o Circle.001
v -0.002862 -0.034576 -1.491001
v -0.002862 -0.498693 -1.491001
v 0.002862 -0.498693 -1.491001
v 0.002862 -0.034576 -1.491001
v 0.029016 0.016753 -1.491001
v 0.033505 0.000000 -1.491001
v 0.037123 0.000000 -1.491001
v 0.032150 0.018562 -1.491001
v 0.029016 -0.016753 -1.491001
v 0.032150 -0.018562 -1.491001
v 0.016753 -0.029016 -1.491001
v 0.000000 -0.033505 -1.491001
v 0.000000 -0.037123 -1.491001
v 0.018562 -0.032150 -1.491001
v -0.029016 -0.016753 -1.491001
v -0.033505 0.000000 -1.491001
v -0.037123 0.000000 -1.491001
v -0.032150 -0.018562 -1.491001
v -0.029016 0.016753 -1.491001
v -0.032150 0.018562 -1.491001
v -0.016753 -0.029016 -1.491001
v -0.018562 -0.032150 -1.491001
v -0.016753 0.029016 -1.491001
v -0.018562 0.032150 -1.491001
v 0.000000 0.033505 -1.491001
v 0.000000 0.037123 -1.491001
v 0.016753 0.029016 -1.491001
v 0.018562 0.032150 -1.491001
v 0.034576 -0.002862 -1.491001
v 0.498693 -0.002862 -1.491001
v 0.498693 0.002862 -1.491001
v 0.034576 0.002862 -1.491001
v -0.342285 -0.342286 -1.491001
v -0.402485 -0.268932 -1.491001
v -0.413359 -0.276198 -1.491001
v -0.351533 -0.351533 -1.491001
v -0.447217 -0.185244 -1.491001
v -0.474763 -0.094436 -1.491001
v -0.487590 -0.096988 -1.491001
v -0.459300 -0.190248 -1.491001
v -0.484065 0.000000 -1.491001
v -0.474763 0.094436 -1.491001
v -0.487590 0.096988 -1.491001
v -0.497142 0.000000 -1.491001
v -0.447217 0.185243 -1.491001
v -0.402485 0.268932 -1.491001
v -0.413359 0.276197 -1.491001
v -0.459299 0.190248 -1.491001
v -0.342285 0.342285 -1.491001
v -0.268932 0.402485 -1.491001
v -0.276197 0.413359 -1.491001
v -0.351533 0.351533 -1.491001
v -0.185244 0.447217 -1.491001
v -0.190248 0.459300 -1.491001
v -0.094436 0.474764 -1.491001
v -0.096988 0.487590 -1.491001
v 0.000000 0.484065 -1.491001
v 0.000000 0.497142 -1.491001
v 0.094436 0.474764 -1.491001
v 0.185244 0.447217 -1.491001
v 0.190248 0.459300 -1.491001
v 0.096988 0.487590 -1.491001
v 0.474764 0.094436 -1.491001
v 0.484065 0.000000 -1.491001
v 0.497142 0.000000 -1.491001
v 0.487590 0.096988 -1.491001
v 0.474764 -0.094436 -1.491001
v 0.447217 -0.185244 -1.491001
v 0.459300 -0.190248 -1.491001
v 0.487590 -0.096988 -1.491001
v 0.268932 0.402485 -1.491001
v 0.342286 0.342285 -1.491001
v 0.351533 0.351533 -1.491001
v 0.276198 0.413359 -1.491001
v 0.402485 0.268932 -1.491001
v 0.447217 0.185244 -1.491001
v 0.459300 0.190248 -1.491001
v 0.413359 0.276197 -1.491001
v 0.402485 -0.268932 -1.491001
v 0.342286 -0.342286 -1.491001
v 0.351533 -0.351533 -1.491001
v 0.413359 -0.276198 -1.491001
v 0.268932 -0.402485 -1.491001
v 0.185244 -0.447218 -1.491001
v 0.190248 -0.459300 -1.491001
v 0.276198 -0.413359 -1.491001
v -0.094436 -0.474764 -1.491001
v -0.185244 -0.447218 -1.491001
v -0.190248 -0.459300 -1.491001
v -0.096988 -0.487590 -1.491001
v 0.094436 -0.474764 -1.491001
v 0.000000 -0.484065 -1.491001
v 0.000000 -0.497142 -1.491001
v 0.096988 -0.487590 -1.491001
v -0.268932 -0.402485 -1.491001
v -0.276197 -0.413359 -1.491001
v 0.003457 -0.028637 -0.912270
v 0.000000 -0.002020 -0.912270
v -0.003457 -0.028637 -0.912270
v 0.000000 -0.028528 -0.912270
v 0.000000 0.002020 -0.912270
v 0.003457 0.028637 -0.912270
v 0.000000 0.028528 -0.912270
v -0.003457 0.028637 -0.912270
v -0.498692 -0.002862 -1.491001
v -0.034576 -0.002862 -1.491001
v -0.034576 0.002862 -1.491001
v -0.498692 0.002862 -1.491001
v -0.002862 0.498692 -1.491001
v -0.002862 0.034576 -1.491001
v 0.002862 0.034576 -1.491001
v 0.002862 0.498692 -1.491001
v 0.002020 0.000000 -0.912270
v 0.028637 -0.003457 -0.912270
v 0.028528 0.000000 -0.912270
v 0.028637 0.003457 -0.912270
v -0.028637 -0.003457 -0.912270
v -0.002020 0.000000 -0.912270
v -0.028637 0.003457 -0.912270
v -0.028528 0.000000 -0.912270
v -0.038674 -0.045504 -1.491001
v -0.038674 -0.050146 -1.491001
v 0.038675 -0.050146 -1.491001
v 0.038674 -0.045504 -1.491001
v -0.026740 -0.075108 -1.491001
v -0.026740 -0.079749 -1.491001
v 0.026740 -0.079749 -1.491001
v 0.026740 -0.075108 -1.491001
v -0.026740 -0.108573 -1.491001
v -0.026740 -0.113214 -1.491001
v 0.026740 -0.113214 -1.491001
v 0.026740 -0.108573 -1.491001
v -0.026740 -0.145899 -1.491001
v -0.026740 -0.150541 -1.491001
v 0.026740 -0.150541 -1.491001
v 0.026740 -0.145899 -1.491001
v -0.026740 -0.187087 -1.491001
v -0.026740 -0.191728 -1.491001
v 0.026740 -0.191728 -1.491001
v 0.026740 -0.187087 -1.491001
v -0.026740 -0.233423 -1.491001
v -0.026740 -0.238064 -1.491001
v 0.026740 -0.238064 -1.491001
v 0.026740 -0.233423 -1.491001
v -0.026740 -0.282333 -1.491001
v -0.026740 -0.286975 -1.491001
v 0.026740 -0.286975 -1.491001
v 0.026740 -0.282333 -1.491001
v -0.026740 -0.338966 -1.491001
v -0.026740 -0.343607 -1.491001
v 0.026740 -0.343607 -1.491001
v 0.026740 -0.338966 -1.491001
v 0.028242 -0.019762 -1.491001
v 0.022904 -0.024403 -1.491001
v 0.061703 -0.024403 -1.491001
v 0.061702 -0.019762 -1.491001
v -0.223918 -0.043880 -1.491001
v -0.223918 -0.051770 -1.491001
v -0.162216 -0.051770 -1.491001
v -0.162216 -0.043880 -1.491001
v -0.223918 -0.073484 -1.491001
v -0.223918 -0.081374 -1.491001
v -0.162216 -0.081374 -1.491001
v -0.162216 -0.073484 -1.491001
v -0.223918 -0.106949 -1.491001
v -0.223918 -0.114839 -1.491001
v -0.162216 -0.114839 -1.491001
v -0.162216 -0.106949 -1.491001
v -0.223918 -0.144275 -1.491001
v -0.223918 -0.152165 -1.491001
v -0.162216 -0.152165 -1.491001
v -0.162216 -0.144275 -1.491001
v -0.223918 -0.185463 -1.491001
v -0.223918 -0.193353 -1.491001
v -0.162216 -0.193353 -1.491001
v -0.162216 -0.185463 -1.491001
v -0.223918 -0.231799 -1.491001
v -0.223918 -0.239689 -1.491001
v -0.162216 -0.239689 -1.491001
v -0.162216 -0.231799 -1.491001
v -0.223918 -0.280709 -1.491001
v -0.223918 -0.288599 -1.491001
v -0.162216 -0.288599 -1.491001
v -0.162216 -0.280709 -1.491001
v -0.223918 -0.337342 -1.491001
v -0.223918 -0.345232 -1.491001
v -0.162216 -0.345232 -1.491001
v -0.162216 -0.337342 -1.491001
v -0.223918 -0.018138 -1.491001
v -0.223918 -0.026028 -1.491001
v -0.162216 -0.026028 -1.491001
v -0.162216 -0.018138 -1.491001
v -0.061703 -0.019762 -1.491001
v -0.061702 -0.024403 -1.491001
v -0.022903 -0.024403 -1.491001
v -0.028242 -0.019762 -1.491001
v -0.243785 -0.034455 -1.491001
v -0.246752 -0.034455 -1.491001
v -0.255045 -0.053473 -1.491001
v -0.250791 -0.050898 -1.491001
v -0.243068 -0.047229 -1.491001
v -0.246035 -0.047229 -1.491001
v -0.246035 -0.061195 -1.491001
v -0.243068 -0.061195 -1.491001
v -0.239403 -0.053473 -1.491001
v -0.239403 -0.050898 -1.491001
v -0.243487 -0.100962 -1.491001
v -0.242879 -0.103230 -1.491001
v -0.240094 -0.103235 -1.491001
v -0.241075 -0.099574 -1.491001
v -0.243487 -0.105499 -1.491001
v -0.241075 -0.106896 -1.491001
v -0.245148 -0.107160 -1.491001
v -0.247416 -0.107441 -1.491001
v -0.247416 -0.110176 -1.491001
v -0.243755 -0.109576 -1.491001
v -0.251345 -0.105499 -1.491001
v -0.251953 -0.103230 -1.491001
v -0.254738 -0.103235 -1.491001
v -0.253757 -0.106896 -1.491001
v -0.251345 -0.100962 -1.491001
v -0.253757 -0.099574 -1.491001
v -0.249685 -0.107160 -1.491001
v -0.251077 -0.109576 -1.491001
v -0.249685 -0.099301 -1.491001
v -0.251077 -0.096894 -1.491001
v -0.247416 -0.098693 -1.491001
v -0.247416 -0.095913 -1.491001
v -0.245148 -0.099301 -1.491001
v -0.243755 -0.096894 -1.491001
v -0.242827 -0.112433 -1.491001
v -0.242117 -0.115082 -1.491001
v -0.239257 -0.115079 -1.491001
v -0.240350 -0.110999 -1.491001
v -0.242827 -0.117732 -1.491001
v -0.240350 -0.119158 -1.491001
v -0.244767 -0.119671 -1.491001
v -0.247416 -0.120381 -1.491001
v -0.247416 -0.123237 -1.491001
v -0.243337 -0.122144 -1.491001
v -0.252005 -0.117732 -1.491001
v -0.252715 -0.115082 -1.491001
v -0.255575 -0.115079 -1.491001
v -0.254482 -0.119158 -1.491001
v -0.252005 -0.112433 -1.491001
v -0.254482 -0.110999 -1.491001
v -0.250065 -0.119671 -1.491001
v -0.251495 -0.122144 -1.491001
v -0.250065 -0.110493 -1.491001
v -0.251495 -0.108013 -1.491001
v -0.247416 -0.110165 -1.491001
v -0.247416 -0.107344 -1.491001
v -0.244767 -0.110493 -1.491001
v -0.243337 -0.108013 -1.491001
v -0.243067 -0.285548 -1.491001
v -0.242378 -0.288120 -1.491001
v -0.239565 -0.288120 -1.491001
v -0.240631 -0.284141 -1.491001
v -0.243067 -0.290693 -1.491001
v -0.240631 -0.292100 -1.491001
v -0.244951 -0.292577 -1.491001
v -0.247524 -0.293266 -1.491001
v -0.247524 -0.296080 -1.491001
v -0.243544 -0.295013 -1.491001
v -0.251980 -0.290693 -1.491001
v -0.252670 -0.288120 -1.491001
v -0.255483 -0.288120 -1.491001
v -0.254417 -0.292100 -1.491001
v -0.251980 -0.285548 -1.491001
v -0.254417 -0.284141 -1.491001
v -0.250097 -0.292577 -1.491001
v -0.251503 -0.295013 -1.491001
v -0.250097 -0.283664 -1.491001
v -0.251503 -0.281228 -1.491001
v -0.247524 -0.282975 -1.491001
v -0.247524 -0.280161 -1.491001
v -0.244951 -0.283664 -1.491001
v -0.243544 -0.281228 -1.491001
v -0.252114 -0.280392 -1.491001
v -0.254794 -0.279536 -1.491001
v -0.250356 -0.276134 -1.491001
v -0.247385 -0.273125 -1.491001
v -0.248451 -0.270561 -1.491001
v -0.252376 -0.274450 -1.491001
v -0.243013 -0.272267 -1.491001
v -0.243216 -0.269460 -1.491001
v -0.259800 -0.275148 -1.491001
v -0.262767 -0.275148 -1.491001
v -0.262767 -0.295450 -1.491001
v -0.259800 -0.295450 -1.491001
v -0.259800 -0.269899 -1.491001
v -0.262767 -0.269899 -1.491001
v -0.264356 -0.273219 -1.491001
v -0.267916 -0.275148 -1.491001
v -0.267916 -0.277722 -1.491001
v -0.262767 -0.277722 -1.491001
v -0.259800 -0.181484 -1.491001
v -0.262767 -0.181484 -1.491001
v -0.262767 -0.201785 -1.491001
v -0.259800 -0.201785 -1.491001
v -0.259800 -0.176235 -1.491001
v -0.262767 -0.176235 -1.491001
v -0.264356 -0.179555 -1.491001
v -0.267916 -0.181484 -1.491001
v -0.267916 -0.184058 -1.491001
v -0.262767 -0.184058 -1.491001
v -0.243067 -0.181782 -1.491001
v -0.242378 -0.184355 -1.491001
v -0.239565 -0.184355 -1.491001
v -0.240631 -0.180375 -1.491001
v -0.244357 -0.188231 -1.491001
v -0.241891 -0.189592 -1.491001
v -0.252670 -0.184355 -1.491001
v -0.251980 -0.181782 -1.491001
v -0.254417 -0.180375 -1.491001
v -0.255483 -0.184355 -1.491001
v -0.250097 -0.179899 -1.491001
v -0.251503 -0.177462 -1.491001
v -0.247524 -0.179209 -1.491001
v -0.247524 -0.176396 -1.491001
v -0.244951 -0.179899 -1.491001
v -0.243544 -0.177462 -1.491001
v -0.252695 -0.200367 -1.491001
v -0.255409 -0.199401 -1.491001
v -0.255409 -0.201960 -1.491001
v -0.252695 -0.201960 -1.491001
v -0.239466 -0.201960 -1.491001
v -0.239466 -0.199401 -1.491001
vt 0.083936 0.913387
vt 0.083936 0.908672
vt 0.083994 0.908672
vt 0.083994 0.913387
vt 0.073919 0.919176
vt 0.074008 0.919329
vt 0.073982 0.919355
vt 0.073884 0.919186
vt 0.074160 0.919417
vt 0.074151 0.919453
vt 0.074336 0.919417
vt 0.074489 0.919329
vt 0.074515 0.919355
vt 0.074346 0.919453
vt 0.074577 0.919000
vt 0.074489 0.918848
vt 0.074515 0.918822
vt 0.074612 0.918991
vt 0.074336 0.918760
vt 0.074346 0.918724
vt 0.074577 0.919176
vt 0.074612 0.919186
vt 0.074160 0.918760
vt 0.074151 0.918724
vt 0.074008 0.918848
vt 0.073982 0.918822
vt 0.073919 0.919000
vt 0.073884 0.918991
vt 0.084052 0.908672
vt 0.084052 0.913387
vt 0.083994 0.913387
vt 0.083994 0.908672
vt 0.076592 0.918035
vt 0.077482 0.918404
vt 0.077444 0.918531
vt 0.076529 0.918152
vt 0.078428 0.918592
vt 0.079392 0.918592
vt 0.079405 0.918724
vt 0.078415 0.918724
vt 0.080337 0.918404
vt 0.081228 0.918035
vt 0.081290 0.918152
vt 0.080376 0.918531
vt 0.082029 0.917499
vt 0.082711 0.916818
vt 0.082814 0.916902
vt 0.082113 0.917602
vt 0.083246 0.916016
vt 0.083615 0.915126
vt 0.083742 0.915164
vt 0.083364 0.916079
vt 0.083803 0.914180
vt 0.083936 0.914193
vt 0.083803 0.913216
vt 0.083936 0.913203
vt 0.083615 0.912271
vt 0.083742 0.912232
vt 0.083246 0.911380
vt 0.082711 0.910579
vt 0.082814 0.910495
vt 0.083364 0.911318
vt 0.078428 0.908805
vt 0.077482 0.908993
vt 0.077444 0.908866
vt 0.078415 0.908672
vt 0.076592 0.909362
vt 0.075790 0.909897
vt 0.075706 0.909794
vt 0.076529 0.909244
vt 0.082029 0.909897
vt 0.081228 0.909362
vt 0.081290 0.909244
vt 0.082113 0.909794
vt 0.080337 0.908993
vt 0.079392 0.908805
vt 0.079405 0.908672
vt 0.080376 0.908866
vt 0.075109 0.910579
vt 0.074573 0.911380
vt 0.074456 0.911318
vt 0.075006 0.910495
vt 0.074204 0.912271
vt 0.074016 0.913216
vt 0.073884 0.913203
vt 0.074077 0.912232
vt 0.074573 0.916016
vt 0.075109 0.916818
vt 0.075006 0.916902
vt 0.074456 0.916079
vt 0.074016 0.914180
vt 0.074204 0.915126
vt 0.074077 0.915164
vt 0.073884 0.914193
vt 0.075790 0.917499
vt 0.075706 0.917602
vt 0.084099 0.913596
vt 0.084169 0.913333
vt 0.084169 0.913605
vt 0.084134 0.913600
vt 0.084131 0.918634
vt 0.084166 0.918904
vt 0.084131 0.918903
vt 0.084096 0.918904
vt 0.084052 0.913387
vt 0.084052 0.918102
vt 0.083994 0.918102
vt 0.083994 0.913387
vt 0.083936 0.918102
vt 0.083936 0.913387
vt 0.083994 0.913387
vt 0.083994 0.918102
vt 0.084165 0.918361
vt 0.084165 0.918634
vt 0.084131 0.918628
vt 0.084096 0.918625
vt 0.084099 0.913324
vt 0.084169 0.913060
vt 0.084169 0.913333
vt 0.084134 0.913327
vt 0.084099 0.913846
vt 0.084052 0.913846
vt 0.084052 0.913060
vt 0.084099 0.913060
vt 0.084052 0.914932
vt 0.084099 0.914932
vt 0.084099 0.915476
vt 0.084052 0.915476
vt 0.084052 0.914389
vt 0.084099 0.914389
vt 0.084099 0.914932
vt 0.084052 0.914932
vt 0.084052 0.913846
vt 0.084099 0.913846
vt 0.084099 0.914389
vt 0.084052 0.914389
vt 0.084052 0.917105
vt 0.084099 0.917105
vt 0.084099 0.917649
vt 0.084052 0.917649
vt 0.084052 0.916019
vt 0.084099 0.916019
vt 0.084099 0.916562
vt 0.084052 0.916562
vt 0.084052 0.915476
vt 0.084099 0.915476
vt 0.084099 0.916019
vt 0.084052 0.916019
vt 0.084052 0.916562
vt 0.084099 0.916562
vt 0.084099 0.917105
vt 0.084052 0.917105
vt 0.084146 0.914339
vt 0.084099 0.914394
vt 0.084099 0.913999
vt 0.084146 0.913999
vt 0.084132 0.912433
vt 0.084052 0.912433
vt 0.084052 0.911806
vt 0.084132 0.911806
vt 0.084132 0.909926
vt 0.084052 0.909926
vt 0.084052 0.909299
vt 0.084132 0.909299
vt 0.084096 0.918728
vt 0.084016 0.918728
vt 0.084016 0.918102
vt 0.084096 0.918102
vt 0.084016 0.918728
vt 0.083936 0.918728
vt 0.083936 0.918102
vt 0.084016 0.918102
vt 0.084132 0.910553
vt 0.084052 0.910553
vt 0.084052 0.909926
vt 0.084132 0.909926
vt 0.084132 0.909299
vt 0.084052 0.909299
vt 0.084052 0.908672
vt 0.084132 0.908672
vt 0.084132 0.911806
vt 0.084052 0.911806
vt 0.084052 0.911180
vt 0.084132 0.911180
vt 0.084132 0.911180
vt 0.084052 0.911180
vt 0.084052 0.910553
vt 0.084132 0.910553
vt 0.084132 0.913060
vt 0.084052 0.913060
vt 0.084052 0.912433
vt 0.084132 0.912433
vt 0.084146 0.913999
vt 0.084099 0.913999
vt 0.084099 0.913605
vt 0.084146 0.913660
vt 0.074978 0.918724
vt 0.075008 0.918724
vt 0.075092 0.918917
vt 0.075049 0.918891
vt 0.075426 0.918866
vt 0.075396 0.918866
vt 0.075396 0.918724
vt 0.075426 0.918724
vt 0.074933 0.918917
vt 0.074933 0.918891
vt 0.075369 0.918808
vt 0.075369 0.918784
vt 0.075396 0.918777
vt 0.075396 0.918815
vt 0.075357 0.918763
vt 0.075377 0.918743
vt 0.075336 0.918751
vt 0.075313 0.918755
vt 0.075306 0.918728
vt 0.075343 0.918724
vt 0.075280 0.918784
vt 0.075280 0.918808
vt 0.075252 0.918815
vt 0.075252 0.918777
vt 0.075292 0.918828
vt 0.075271 0.918848
vt 0.075292 0.918763
vt 0.075271 0.918743
vt 0.075312 0.918840
vt 0.075305 0.918868
vt 0.075336 0.918840
vt 0.075343 0.918868
vt 0.075357 0.918828
vt 0.075377 0.918848
vt 0.075134 0.918766
vt 0.075120 0.918790
vt 0.075092 0.918783
vt 0.075114 0.918745
vt 0.075120 0.918818
vt 0.075092 0.918826
vt 0.075134 0.918842
vt 0.075158 0.918856
vt 0.075151 0.918884
vt 0.075114 0.918863
vt 0.075210 0.918842
vt 0.075224 0.918818
vt 0.075252 0.918826
vt 0.075231 0.918863
vt 0.075224 0.918790
vt 0.075252 0.918783
vt 0.075186 0.918856
vt 0.075194 0.918884
vt 0.075210 0.918766
vt 0.075231 0.918745
vt 0.075185 0.918756
vt 0.075193 0.918728
vt 0.075158 0.918752
vt 0.075151 0.918724
vt 0.074903 0.918820
vt 0.074905 0.918793
vt 0.074933 0.918788
vt 0.074930 0.918830
vt 0.074893 0.918769
vt 0.074915 0.918750
vt 0.074871 0.918754
vt 0.074844 0.918752
vt 0.074838 0.918724
vt 0.074880 0.918727
vt 0.074804 0.918786
vt 0.074803 0.918813
vt 0.074775 0.918819
vt 0.074777 0.918777
vt 0.074814 0.918838
vt 0.074793 0.918857
vt 0.074820 0.918764
vt 0.074801 0.918742
vt 0.074837 0.918853
vt 0.074828 0.918880
vt 0.074864 0.918855
vt 0.074869 0.918883
vt 0.074888 0.918843
vt 0.074907 0.918864
vt 0.074823 0.918889
vt 0.074798 0.918903
vt 0.074849 0.918928
vt 0.074885 0.918953
vt 0.074879 0.918980
vt 0.074832 0.918949
vt 0.074930 0.918953
vt 0.074933 0.918981
vt 0.084134 0.917855
vt 0.084104 0.917855
vt 0.084104 0.917649
vt 0.084134 0.917649
vt 0.084134 0.917908
vt 0.084104 0.917908
vt 0.084088 0.917874
vt 0.084052 0.917855
vt 0.084052 0.917829
vt 0.084104 0.917829
vt 0.084178 0.918308
vt 0.084148 0.918308
vt 0.084148 0.918102
vt 0.084178 0.918102
vt 0.084178 0.918361
vt 0.084148 0.918361
vt 0.084132 0.918328
vt 0.084096 0.918308
vt 0.084096 0.918282
vt 0.084148 0.918282
vt 0.074648 0.918779
vt 0.074641 0.918805
vt 0.074613 0.918805
vt 0.074623 0.918765
vt 0.074662 0.918844
vt 0.074637 0.918858
vt 0.074746 0.918805
vt 0.074739 0.918779
vt 0.074764 0.918764
vt 0.074775 0.918805
vt 0.074720 0.918759
vt 0.074734 0.918735
vt 0.074693 0.918753
vt 0.074693 0.918724
vt 0.074667 0.918760
vt 0.074653 0.918735
vt 0.074747 0.918967
vt 0.074774 0.918957
vt 0.074775 0.918983
vt 0.074747 0.918983
vt 0.074613 0.918984
vt 0.074612 0.918958
vn 0.0000 -0.0000 1.0000
vn 0.0001 0.0000 1.0000
usemtl Material.006
s 1
f 1/1/1 2/2/1 3/3/1 4/4/1
f 5/5/1 6/6/1 7/7/1 8/8/1
f 6/6/1 9/9/1 10/10/1 7/7/1
f 11/11/1 12/12/1 13/13/1 14/14/1
f 9/9/1 11/11/1 14/14/1 10/10/1
f 15/15/1 16/16/1 17/17/1 18/18/1
f 16/16/1 19/19/1 20/20/1 17/17/1
f 12/12/1 21/21/1 22/22/1 13/13/1
f 21/21/1 15/15/1 18/18/1 22/22/1
f 19/19/1 23/23/1 24/24/1 20/20/1
f 23/23/1 25/25/1 26/26/1 24/24/1
f 27/27/1 5/5/1 8/8/1 28/28/1
f 25/25/1 27/27/1 28/28/1 26/26/1
f 29/29/1 30/30/1 31/31/1 32/32/1
f 33/33/1 34/34/1 35/35/1 36/36/1
f 37/37/1 38/38/1 39/39/1 40/40/1
f 41/41/1 42/42/1 43/43/1 44/44/1
f 38/38/1 41/41/1 44/44/1 39/39/1
f 45/45/1 46/46/1 47/47/1 48/48/1
f 49/49/1 50/50/1 51/51/1 52/52/1
f 42/42/1 45/45/1 48/48/1 43/43/1
f 46/46/1 49/49/1 52/52/1 47/47/1
f 50/50/1 53/53/1 54/54/1 51/51/1
f 53/53/1 55/55/1 56/56/1 54/54/1
f 34/34/1 37/37/1 40/40/1 35/35/1
f 55/55/1 57/57/1 58/58/1 56/56/1
f 59/59/1 60/60/1 61/61/1 62/62/1
f 63/63/1 64/64/1 65/65/1 66/66/1
f 67/67/1 68/68/1 69/69/1 70/70/1
f 71/71/1 72/72/1 73/73/1 74/74/1
f 75/75/1 76/76/1 77/77/1 78/78/1
f 79/79/1 80/80/1 81/81/1 82/82/1
f 83/83/1 84/84/1 85/85/1 86/86/1
f 87/87/1 88/88/1 89/89/1 90/90/1
f 91/91/1 92/92/1 93/93/1 94/94/1
f 95/95/1 33/33/1 36/36/1 96/96/1
f 57/57/1 59/59/1 62/62/1 58/58/1
f 60/60/1 71/71/1 74/74/1 61/61/1
f 72/72/1 75/75/1 78/78/1 73/73/1
f 64/64/1 67/67/1 70/70/1 65/65/1
f 68/68/1 79/79/1 82/82/1 69/69/1
f 80/80/1 83/83/1 86/86/1 81/81/1
f 76/76/1 63/63/1 66/66/1 77/77/1
f 84/84/1 91/91/1 94/94/1 85/85/1
f 92/92/1 87/87/1 90/90/1 93/93/1
f 88/88/1 95/95/1 96/96/1 89/89/1
f 97/97/1 98/98/1 99/99/1 100/100/1
f 101/101/1 102/102/1 103/103/1 104/104/1
f 105/105/1 106/106/1 107/107/1 108/108/1
f 109/109/1 110/110/1 111/111/1 112/112/1
f 113/113/1 114/114/1 115/115/1 116/116/1
f 117/117/1 118/118/1 119/119/1 120/120/1
f 121/121/1 122/122/1 123/123/1 124/124/1
f 125/125/1 126/126/1 127/127/1 128/128/1
f 129/129/1 130/130/1 131/131/1 132/132/1
f 133/133/1 134/134/1 135/135/1 136/136/1
f 137/137/1 138/138/1 139/139/1 140/140/1
f 141/141/1 142/142/1 143/143/1 144/144/1
f 145/145/1 146/146/1 147/147/1 148/148/1
f 149/149/1 150/150/1 151/151/1 152/152/1
f 153/153/1 154/154/1 155/155/1 156/156/1
f 157/157/1 158/158/1 159/159/1 160/160/1
f 161/161/1 162/162/1 163/163/1 164/164/1
f 165/165/1 166/166/1 167/167/1 168/168/1
f 169/169/1 170/170/1 171/171/1 172/172/1
f 173/173/1 174/174/1 175/175/1 176/176/1
f 177/177/1 178/178/1 179/179/1 180/180/1
f 181/181/1 182/182/1 183/183/1 184/184/1
f 185/185/1 186/186/1 187/187/1 188/188/1
f 189/189/1 190/190/1 191/191/1 192/192/1
f 193/193/1 194/194/1 195/195/1 196/196/1
f 197/197/1 198/198/1 199/199/1 200/200/1
f 201/201/1 202/202/1 203/203/1 204/204/1
f 200/200/1 199/199/1 205/205/1 206/206/1
f 207/207/1 208/208/2 209/209/2 210/210/1
f 208/208/2 211/211/1 212/212/1 209/209/2
f 213/213/1 214/214/1 215/215/1 216/216/1
f 211/211/1 213/213/1 216/216/1 212/212/1
f 217/217/2 218/218/1 219/219/1 220/220/2
f 218/218/1 221/221/1 222/222/1 219/219/1
f 214/214/1 223/223/2 224/224/2 215/215/1
f 223/223/2 217/217/2 220/220/2 224/224/2
f 221/221/1 225/225/1 226/226/1 222/222/1
f 225/225/1 227/227/1 228/228/1 226/226/1
f 229/229/1 207/207/1 210/210/1 230/230/1
f 227/227/1 229/229/1 230/230/1 228/228/1
f 231/231/1 232/232/1 233/233/1 234/234/1
f 232/232/1 235/235/1 236/236/1 233/233/1
f 237/237/1 238/238/1 239/239/1 240/240/1
f 235/235/1 237/237/1 240/240/1 236/236/1
f 241/241/1 242/242/1 243/243/1 244/244/1
f 242/242/1 245/245/1 246/246/1 243/243/1
f 238/238/1 247/247/1 248/248/1 239/239/1
f 247/247/1 241/241/1 244/244/1 248/248/1
f 245/245/1 249/249/1 250/250/1 246/246/1
f 249/249/1 251/251/1 252/252/1 250/250/1
f 253/253/1 231/231/1 234/234/1 254/254/1
f 251/251/1 253/253/1 254/254/1 252/252/1
f 255/255/1 256/256/1 257/257/1 258/258/1
f 256/256/1 259/259/1 260/260/1 257/257/1
f 261/261/1 262/262/1 263/263/1 264/264/1
f 259/259/1 261/261/1 264/264/1 260/260/1
f 265/265/1 266/266/1 267/267/1 268/268/1
f 266/266/1 269/269/1 270/270/1 267/267/1
f 262/262/1 271/271/1 272/272/1 263/263/1
f 271/271/1 265/265/1 268/268/1 272/272/1
f 269/269/1 273/273/1 274/274/1 270/270/1
f 273/273/1 275/275/1 276/276/1 274/274/1
f 277/277/1 255/255/1 258/258/1 278/278/1
f 275/275/1 277/277/1 278/278/1 276/276/1
f 266/266/1 279/279/1 280/280/1 267/267/1
f 281/281/1 282/282/1 283/283/1 284/284/1
f 282/282/1 285/285/1 286/286/1 283/283/1
f 279/279/1 281/281/1 284/284/1 280/280/1
f 287/287/1 288/288/1 289/289/1 290/290/1
f 291/291/1 292/292/1 288/288/1 287/287/1
f 288/288/1 292/292/1 293/293/1 294/294/1
f 288/288/1 294/294/1 295/295/1 296/296/1
f 297/297/1 298/298/1 299/299/1 300/300/1
f 301/301/1 302/302/1 298/298/1 297/297/1
f 298/298/1 302/302/1 303/303/1 304/304/1
f 298/298/1 304/304/1 305/305/1 306/306/1
f 307/307/1 308/308/1 309/309/1 310/310/1
f 308/308/1 311/311/1 312/312/1 309/309/1
f 313/313/1 314/314/1 315/315/1 316/316/1
f 314/314/1 317/317/1 318/318/1 315/315/1
f 317/317/1 319/319/1 320/320/1 318/318/1
f 321/321/1 307/307/1 310/310/1 322/322/1
f 319/319/1 321/321/1 322/322/1 320/320/1
f 323/323/1 324/324/1 325/325/1 326/326/1
f 325/325/1 327/327/1 328/328/1 324/324/1
f 311/311/1 324/324/1 323/323/1 312/312/1
