# Blender v2.90.1 OBJ File: ''
# www.blender.org
mtllib pancerz.mtl
o Cube_Cube.001
v -1.250000 -0.305740 -0.013079
v -1.250000 -0.994242 0.113272
v -2.150000 -0.994242 0.113272
v -2.150000 -0.305740 -0.013079
v -0.750000 -0.305740 -0.013079
v -0.750000 -0.994242 0.113272
v 0.150000 -0.305740 -0.013079
v 0.150000 -0.994242 0.113272
v -0.750000 -0.976192 0.211630
v -0.750000 -0.287690 0.085279
v -1.250000 -0.287690 0.085279
v -1.250000 -0.976192 0.211630
v 0.150000 -0.287690 0.085279
v 0.150000 0.972907 -0.247730
v 0.150000 0.990957 -0.149373
v 0.150000 -0.976192 0.211630
v -2.150000 0.972907 -0.247730
v -1.250000 0.972907 -0.247730
v -2.150000 -0.976192 0.211630
v -2.150000 -0.287690 0.085279
v -0.750000 0.972907 -0.247730
v -0.750000 0.990957 -0.149373
v -1.250000 0.990957 -0.149373
v -2.150000 0.990957 -0.149373
vt 0.053871 0.180123
vt 0.063079 0.180123
vt 0.063079 0.192554
vt 0.053871 0.192554
vt 0.053871 0.173217
vt 0.063079 0.173217
vt 0.053871 0.160785
vt 0.063079 0.160785
vt 0.063079 0.173217
vt 0.072288 0.173217
vt 0.072288 0.180123
vt 0.063079 0.180123
vt 0.089389 0.180123
vt 0.089389 0.173217
vt 0.090705 0.173217
vt 0.090705 0.180123
vt 0.092020 0.206367
vt 0.090705 0.206367
vt 0.090705 0.188411
vt 0.092020 0.188411
vt 0.090705 0.216036
vt 0.092020 0.216036
vt 0.063079 0.160785
vt 0.072288 0.160785
vt 0.089389 0.160785
vt 0.090705 0.160785
vt 0.036770 0.192554
vt 0.036770 0.180123
vt 0.092020 0.160785
vt 0.092020 0.170454
vt 0.090705 0.170454
vt 0.090705 0.160785
vt 0.072288 0.192554
vt 0.063079 0.192554
vt 0.036770 0.173217
vt 0.036770 0.160785
vt 0.090705 0.192554
vt 0.089389 0.192554
vt 0.040716 0.204986
vt 0.039401 0.204986
vt 0.039401 0.192554
vt 0.040716 0.192554
vt 0.040716 0.192554
vt 0.042032 0.192554
vt 0.042032 0.204986
vt 0.040716 0.204986
vt 0.089389 0.160785
vt 0.089389 0.173217
vt 0.089389 0.180123
vt 0.089389 0.192554
vt 0.092020 0.188411
vt 0.090705 0.188411
vt 0.042032 0.192554
vt 0.043347 0.192554
vt 0.043347 0.199461
vt 0.042032 0.199461
vt 0.036770 0.192554
vt 0.038085 0.192554
vt 0.038085 0.210511
vt 0.036770 0.210511
vt 0.039401 0.192554
vt 0.039401 0.210511
vt 0.038085 0.210511
vt 0.038085 0.192554
vn 0.0000 -0.1805 -0.9836
vn 0.0000 0.1805 0.9836
vn 0.0000 -0.9836 0.1805
vn 1.0000 0.0000 0.0000
vn -1.0000 0.0000 0.0000
vn 0.0000 0.9836 -0.1805
usemtl Material.001
s 1
f 1/1/1 2/2/1 3/3/1 4/4/1
f 2/2/1 1/1/1 5/5/1 6/6/1
f 6/6/1 5/5/1 7/7/1 8/8/1
f 9/9/2 10/10/2 11/11/2 12/12/2
f 2/13/3 6/14/3 9/15/3 12/16/3
f 13/17/4 7/18/4 14/19/4 15/20/4
f 8/21/4 7/18/4 13/17/4 16/22/4
f 10/10/2 9/9/2 16/23/2 13/24/2
f 9/15/3 6/14/3 8/25/3 16/26/3
f 1/1/1 4/4/1 17/27/1 18/28/1
f 19/29/5 20/30/5 4/31/5 3/32/5
f 12/12/2 11/11/2 20/33/2 19/34/2
f 7/7/1 5/5/1 21/35/1 14/36/1
f 2/13/3 12/16/3 19/37/3 3/38/3
f 21/39/6 22/40/6 15/41/6 14/42/6
f 23/43/6 18/44/6 17/45/6 24/46/6
f 10/10/2 13/24/2 15/47/2 22/48/2
f 20/33/2 11/11/2 23/49/2 24/50/2
f 4/31/5 20/30/5 24/51/5 17/52/5
f 1/53/6 11/54/6 10/55/6 5/56/6
f 5/57/5 10/58/5 22/59/5 21/60/5
f 23/61/4 11/62/4 1/63/4 18/64/4
