# Blender v2.90.1 OBJ File: ''
# www.blender.org
mtllib podporka.mtl
o Tube1
v 0.785593 -0.442706 -0.054680
v 0.709732 -0.455148 -0.142276
v 0.709732 -0.455148 0.142276
v 0.785593 -0.442706 0.054680
v 0.880301 -0.442706 -0.054680
v 0.956162 -0.455148 -0.142276
v 0.880301 -0.442706 0.054680
v 0.956162 -0.455148 0.142276
v -0.880301 -0.442706 -0.054680
v -0.956162 -0.455148 -0.142276
v -0.956162 -0.455148 0.142276
v -0.880301 -0.442706 0.054680
v -0.785593 -0.442706 -0.054680
v -0.709732 -0.455148 -0.142276
v -0.785593 -0.442706 0.054680
v -0.709732 -0.455148 0.142276
v -0.173205 1.075000 -0.100000
v -0.086603 1.075000 -0.100000
v -0.086603 0.950000 -0.100000
v -0.173205 0.900000 -0.100000
v -0.173205 0.900000 0.100000
v -0.173205 1.075000 0.100000
v -0.000000 0.900000 -0.100000
v -0.000000 0.800000 -0.100000
v -0.135956 0.873876 -0.054679
v -0.135956 0.873876 0.054680
v 0.086603 0.950000 -0.100000
v 0.173205 0.900000 -0.100000
v -0.041249 0.819196 -0.054679
v 0.041249 0.819196 -0.054679
v 0.041249 0.819196 0.054680
v -0.000000 0.800000 0.100000
v 0.086603 1.075000 -0.100000
v 0.173205 1.075000 -0.100000
v 0.135956 0.873876 -0.054679
v 0.173205 1.075000 0.100000
v 0.173205 0.900000 0.100000
v 0.086603 1.075000 0.100000
v -0.086603 1.075000 0.100000
v -0.086603 0.950000 0.100000
v -0.041249 0.819196 0.054680
v -0.000000 0.900000 0.100000
v 0.135956 0.873876 0.054680
v 0.086603 0.950000 0.100000
v 0.709732 -0.600360 -0.142276
v 0.709732 -0.600360 0.142276
v 0.956162 -0.600360 -0.142276
v 0.956162 -0.600360 0.142276
v -0.956162 -0.600360 -0.142276
v -0.956162 -0.600360 0.142276
v -0.709732 -0.600360 -0.142276
v -0.709732 -0.600360 0.142276
vt 0.089691 0.292623
vt 0.086256 0.296881
vt 0.086256 0.283048
vt 0.089691 0.287307
vt 0.094013 0.292623
vt 0.097500 0.296881
vt 0.094013 0.287307
vt 0.097500 0.283048
vt 0.089691 0.278790
vt 0.086256 0.283048
vt 0.086256 0.269216
vt 0.089691 0.273474
vt 0.094013 0.278790
vt 0.097500 0.283048
vt 0.094013 0.273474
vt 0.097500 0.269216
vt 0.075000 0.269216
vt 0.075000 0.265006
vt 0.080710 0.265006
vt 0.082994 0.269216
vt 0.100827 0.262099
vt 0.100827 0.252376
vt 0.108576 0.252376
vt 0.108576 0.262099
vt 0.082994 0.260796
vt 0.087561 0.260796
vt 0.096697 0.235537
vt 0.094626 0.237348
vt 0.089631 0.237348
vt 0.087561 0.235537
vt 0.080710 0.256586
vt 0.082994 0.252376
vt 0.096697 0.243957
vt 0.094626 0.241952
vt 0.094626 0.245962
vt 0.089631 0.245962
vt 0.087561 0.243957
vt 0.075000 0.256586
vt 0.075000 0.252376
vt 0.096697 0.252376
vt 0.094626 0.250566
vt 0.065010 0.306702
vt 0.065010 0.296980
vt 0.073003 0.296980
vt 0.073003 0.306702
vt 0.063966 0.309159
vt 0.060015 0.309159
vt 0.060015 0.299437
vt 0.063966 0.299437
vt 0.070005 0.286136
vt 0.073956 0.286136
vt 0.073956 0.295858
vt 0.070005 0.295858
vt 0.082994 0.235537
vt 0.080710 0.239747
vt 0.075000 0.239747
vt 0.075000 0.235537
vt 0.089631 0.241952
vt 0.082994 0.243957
vt 0.089631 0.250566
vt 0.087561 0.252376
vt 0.082994 0.252376
vt 0.080710 0.248167
vt 0.075000 0.252376
vt 0.075000 0.248167
vt 0.101531 0.306603
vt 0.101531 0.296881
vt 0.107241 0.296881
vt 0.107241 0.306603
vt 0.105403 0.283048
vt 0.105403 0.292771
vt 0.101346 0.292771
vt 0.101346 0.283048
vt 0.097500 0.292771
vt 0.097500 0.283048
vt 0.103127 0.245259
vt 0.103127 0.235537
vt 0.108662 0.235537
vt 0.108662 0.245259
vt 0.060015 0.235537
vt 0.060015 0.306456
vt 0.055020 0.306456
vt 0.055020 0.235537
vt 0.040035 0.309010
vt 0.041264 0.237803
vt 0.045030 0.235537
vt 0.045030 0.309058
vt 0.065010 0.296980
vt 0.065010 0.235537
vt 0.070005 0.235537
vt 0.070005 0.296980
vt 0.050025 0.235537
vt 0.050025 0.309058
vt 0.046259 0.306792
vt 0.045030 0.235585
vt 0.070005 0.286136
vt 0.070005 0.235537
vt 0.075000 0.235537
vt 0.075000 0.286136
vt 0.055020 0.235537
vt 0.055020 0.309058
vt 0.051254 0.306792
vt 0.050025 0.235585
vt 0.060015 0.299437
vt 0.060015 0.235537
vt 0.065010 0.235537
vt 0.065010 0.299437
vt 0.035040 0.309010
vt 0.036269 0.237803
vt 0.040035 0.235537
vt 0.040035 0.309058
vt 0.097500 0.269216
vt 0.103931 0.269216
vt 0.103931 0.283048
vt 0.097500 0.283048
vt 0.101531 0.308860
vt 0.094899 0.308860
vt 0.094899 0.296881
vt 0.101531 0.296881
vt 0.094194 0.252376
vt 0.100827 0.252376
vt 0.100827 0.266209
vt 0.094194 0.266209
vt 0.075000 0.296881
vt 0.081633 0.296881
vt 0.081633 0.308860
vt 0.075000 0.308860
vt 0.096697 0.235537
vt 0.103127 0.235537
vt 0.103127 0.249369
vt 0.096697 0.249369
vt 0.088266 0.308860
vt 0.081633 0.308860
vt 0.081633 0.296881
vt 0.088266 0.296881
vt 0.094194 0.266209
vt 0.087561 0.266209
vt 0.087561 0.252376
vt 0.094194 0.252376
vt 0.088266 0.296881
vt 0.094899 0.296881
vt 0.094899 0.308860
vt 0.088266 0.308860
vt 0.075000 0.296881
vt 0.075000 0.283048
vt 0.086256 0.283048
vt 0.086256 0.296881
vt 0.075000 0.283048
vt 0.075000 0.269216
vt 0.086256 0.269216
vt 0.086256 0.283048
vn -0.0814 0.9942 -0.0707
vn -0.0814 0.9942 0.0707
vn 0.0814 0.9942 -0.0707
vn 0.0814 0.9942 0.0707
vn 0.0000 0.0000 -1.0000
vn -0.1023 -0.0591 -0.9930
vn 0.0808 0.0610 -0.9949
vn -0.8615 -0.4984 0.0967
vn -0.8615 -0.4984 -0.0967
vn -1.0000 0.0000 0.0000
vn -0.0000 -0.1182 -0.9930
vn 0.0350 0.0809 -0.9961
vn -0.6872 -0.7228 -0.0728
vn -0.3643 -0.9302 0.0436
vn 0.1023 -0.0591 -0.9930
vn -0.0107 0.1007 -0.9949
vn -0.0630 -0.9973 0.0382
vn -0.4235 -0.8751 -0.2340
vn 0.2824 -0.9565 -0.0728
vn 0.6234 -0.7807 0.0436
vn -0.1080 -0.9928 0.0524
vn 0.8114 -0.5845 -0.0071
vn 0.5462 -0.8043 -0.2340
vn 1.0000 0.0000 0.0000
vn 0.9133 -0.4023 -0.0638
vn 0.0000 1.0000 0.0000
vn 0.0808 0.0610 0.9949
vn 0.0350 -0.1129 0.9930
vn -0.0000 -0.0000 1.0000
vn -0.4561 -0.8772 -0.1496
vn 0.0763 0.0441 0.9961
vn 0.1153 -0.0261 0.9930
vn 0.5316 -0.8337 -0.1496
vn -0.1012 0.0014 0.9949
vn 0.0803 0.0867 0.9930
vn 0.8234 0.5654 -0.0489
vn 0.8623 0.4979 0.0920
vn -0.0780 0.9958 -0.0488
vn -0.0000 0.9958 0.0920
vn -0.9013 0.4304 -0.0489
vn -0.8623 0.4979 0.0920
vn -0.9330 0.3448 0.1031
vn -0.8182 0.5621 -0.1207
vn -0.8182 0.5621 0.1208
vn -0.8547 0.4832 -0.1895
vn -0.1690 -0.0858 -0.9819
vn 0.0557 0.0944 -0.9940
vn 0.0737 -0.1290 -0.9889
vn 0.0867 -0.1685 -0.9819
vn 0.7494 -0.6621 -0.0000
vn 0.8561 -0.5050 -0.1096
vn 0.8561 -0.5050 0.1096
vn 0.7936 -0.5872 0.1594
vn -0.0933 -0.1650 0.9819
vn 0.0736 -0.1291 0.9889
vn 0.0557 0.0944 0.9940
vn -0.1641 0.0947 0.9819
vn -0.7649 -0.6358 0.1031
vn -0.8561 -0.5050 0.1096
vn -0.8561 -0.5050 -0.1096
vn -0.8457 -0.4989 -0.1895
vn -0.0102 -0.1892 -0.9819
vn -0.0736 -0.1291 -0.9889
vn -0.0557 0.0944 -0.9940
vn 0.1893 -0.0091 -0.9819
vn 0.9480 0.3183 -0.0000
vn 0.8182 0.5621 0.1207
vn 0.8182 0.5621 -0.1208
vn 0.9052 0.3940 0.1594
vn 0.0963 -0.1632 0.9819
vn -0.0557 0.0944 0.9940
vn -0.0737 -0.1290 0.9889
vn -0.1641 -0.0947 0.9819
vn 0.0000 -1.0000 0.0000
usemtl Tube1_auv
s 1
f 1/1/1 2/2/1 3/3/2 4/4/2
f 5/5/3 6/6/3 2/2/1 1/1/1
f 7/7/4 8/8/4 6/6/3 5/5/3
f 4/4/2 3/3/2 8/8/4 7/7/4
f 9/9/1 10/10/1 11/11/2 12/12/2
f 13/13/3 14/14/3 10/10/1 9/9/1
f 15/15/4 16/16/4 14/14/3 13/13/3
f 12/12/2 11/11/2 16/16/4 15/15/4
f 17/17/5 18/18/5 19/19/6 20/20/7
f 20/21/8 21/22/9 22/23/10 17/24/10
f 20/20/7 19/19/6 23/25/11 24/26/12
f 20/27/8 25/28/13 26/29/14 21/30/9
f 24/26/12 23/25/11 27/31/15 28/32/16
f 24/33/17 29/34/18 25/28/13 20/27/8
f 24/33/17 30/35/19 31/36/20 32/37/21
f 28/32/16 27/31/15 33/38/5 34/39/5
f 28/40/22 35/41/23 30/35/19 24/33/17
f 34/42/24 36/43/24 37/44/25 28/45/22
f 34/46/26 33/47/26 38/48/26 36/49/26
f 22/50/26 39/51/26 18/52/26 17/53/26
f 21/54/27 40/55/28 39/56/29 22/57/29
f 21/30/9 26/29/14 41/58/30 32/37/21
f 32/37/31 42/59/32 40/55/28 21/54/27
f 32/37/21 41/58/30 29/34/18 24/33/17
f 32/37/21 31/36/20 43/60/33 37/61/25
f 37/62/34 44/63/35 42/59/32 32/37/31
f 37/61/25 43/60/33 35/41/23 28/40/22
f 36/64/29 38/65/29 44/63/35 37/62/34
f 18/66/24 39/67/24 40/68/36 19/69/37
f 19/70/37 40/71/36 42/72/38 23/73/39
f 23/73/39 42/72/38 44/74/40 27/75/41
f 27/76/41 44/77/40 38/78/10 33/79/10
f 25/80/42 9/81/43 12/82/44 26/83/45
f 29/84/46 13/85/47 9/86/48 25/87/49
f 41/88/50 15/89/51 13/90/52 29/91/53
f 26/92/54 12/93/55 15/94/56 41/95/57
f 30/96/58 1/97/59 4/98/60 31/99/61
f 35/100/62 5/101/63 1/102/64 30/103/65
f 43/104/66 7/105/67 5/106/68 35/107/69
f 31/108/70 4/109/71 7/110/72 43/111/73
f 2/112/10 45/113/10 46/114/10 3/115/10
f 6/116/5 47/117/5 45/118/5 2/119/5
f 8/120/24 48/121/24 47/122/24 6/123/24
f 3/124/29 46/125/29 48/126/29 8/127/29
f 10/128/10 49/129/10 50/130/10 11/131/10
f 14/132/5 51/133/5 49/134/5 10/135/5
f 16/136/24 52/137/24 51/138/24 14/139/24
f 11/140/29 50/141/29 52/142/29 16/143/29
f 47/144/74 48/145/74 46/146/74 45/147/74
f 51/148/74 52/149/74 50/150/74 49/151/74
