# Blender 4.2.1 LTS
# www.blender.org
mtllib smoke_dropper.mtl
o Circle
v 0.000000 0.437077 -0.213515
v 0.000000 1.082309 0.511180
v 0.216506 0.348688 -0.125127
v 0.167845 1.013786 0.579703
v 0.216506 0.171912 0.051650
v 0.167845 0.876741 0.716748
v 0.000000 0.083523 0.140038
v 0.000000 0.808219 0.785270
v -0.216506 0.171912 0.051650
v -0.167845 0.876741 0.716748
v -0.216506 0.348688 -0.125127
v -0.167845 1.013786 0.579703
v -0.519615 -0.199319 0.422881
v -0.470954 0.505510 1.087979
v -0.519615 -0.022543 0.246104
v -0.470954 0.642555 0.950934
v -0.303109 0.065846 0.157716
v -0.303109 0.711077 0.882411
v -0.086603 -0.022543 0.246104
v -0.135264 0.642555 0.950934
v -0.086603 -0.199319 0.422881
v -0.135264 0.505510 1.087979
v -0.303109 -0.287708 0.511270
v -0.303109 0.436988 1.156501
v 0.519615 -0.199319 0.422881
v 0.470954 0.505510 1.087979
v 0.303109 -0.287708 0.511269
v 0.303109 0.436988 1.156501
v 0.086603 -0.199319 0.422881
v 0.135264 0.505510 1.087979
v 0.086603 -0.022543 0.246104
v 0.135264 0.642555 0.950934
v 0.303109 0.065846 0.157716
v 0.303109 0.711077 0.882411
v 0.519615 -0.022543 0.246104
v 0.470954 0.642555 0.950934
v 0.000000 0.468238 -0.244677
v 0.254671 0.364269 -0.140707
v 0.254671 0.156331 0.067231
v 0.000000 0.052362 0.171200
v -0.254671 0.156331 0.067231
v -0.254671 0.364269 -0.140707
v -0.557780 -0.214900 0.438462
v -0.557780 -0.006962 0.230524
v -0.303109 0.097007 0.126555
v -0.048438 -0.006962 0.230524
v -0.048438 -0.214900 0.438462
v -0.303109 -0.318869 0.542431
v 0.557780 -0.214900 0.438462
v 0.303109 -0.318869 0.542431
v 0.048438 -0.214900 0.438462
v 0.048438 -0.006962 0.230524
v 0.303109 0.097007 0.126554
v 0.557780 -0.006962 0.230524
v 0.000000 0.404284 -0.308631
v 0.254671 0.300315 -0.204662
v 0.254671 0.092377 0.003277
v 0.000000 -0.011592 0.107246
v -0.254671 0.092377 0.003277
v -0.254671 0.300315 -0.204662
v -0.557780 -0.278854 0.374508
v -0.557780 -0.070916 0.166570
v -0.303109 0.033053 0.062600
v -0.048438 -0.070916 0.166569
v -0.048438 -0.278854 0.374508
v -0.303109 -0.382823 0.478477
v 0.557780 -0.278854 0.374508
v 0.303109 -0.382823 0.478477
v 0.048438 -0.278854 0.374508
v 0.048438 -0.070916 0.166569
v 0.303109 0.033053 0.062600
v 0.557780 -0.070916 0.166569
v 0.216506 1.033652 0.559837
v 0.000000 1.122040 0.471449
v 0.216506 0.856875 0.736614
v 0.000000 0.768487 0.825002
v -0.216506 0.856875 0.736614
v -0.216506 1.033652 0.559837
v -0.519615 0.662421 0.931068
v -0.519615 0.485644 1.107845
v -0.303109 0.750809 0.842680
v -0.086603 0.662421 0.931068
v -0.086603 0.485644 1.107845
v -0.303109 0.397256 1.196233
v 0.303109 0.397256 1.196233
v 0.519615 0.485644 1.107845
v 0.086603 0.485644 1.107845
v 0.086603 0.662421 0.931068
v 0.303109 0.750809 0.842680
v 0.519615 0.662421 0.931068
v 0.167845 0.980479 0.546396
v 0.000000 1.049002 0.477873
v 0.167845 0.843434 0.683441
v 0.000000 0.774912 0.751963
v -0.167845 0.843434 0.683441
v -0.167845 0.980479 0.546396
v -0.470954 0.609248 0.917627
v -0.470954 0.472203 1.054672
v -0.303109 0.677771 0.849105
v -0.135264 0.609248 0.917627
v -0.135264 0.472203 1.054672
v -0.303109 0.403681 1.123194
v 0.303109 0.403681 1.123194
v 0.470954 0.472203 1.054672
v 0.135264 0.472203 1.054672
v 0.135264 0.609248 0.917627
v 0.303109 0.677771 0.849105
v 0.470954 0.609248 0.917627
v -0.254671 -0.405043 -0.494143
v -0.303109 -0.405043 -0.375496
v -0.048438 -0.405043 -0.167558
v -0.048438 -0.405043 0.248319
v 0.254671 -0.405043 -0.494143
v 0.000000 -0.405043 -0.286205
v 0.048438 -0.405043 -0.167558
v 0.303109 -0.405043 -0.375496
v 0.048438 -0.405043 0.248319
v -0.385353 -0.500000 0.500000
v -0.500000 -0.500000 0.385353
v -0.500000 -0.405043 0.385353
v -0.385353 -0.405043 0.500000
v -0.500000 -0.500000 -0.385353
v -0.385353 -0.500000 -0.500000
v -0.385353 -0.405043 -0.500000
v -0.500000 -0.405043 -0.385353
v 0.500000 -0.500000 0.385353
v 0.385353 -0.500000 0.500000
v 0.385353 -0.405043 0.500000
v 0.500000 -0.405043 0.385353
v 0.385353 -0.500000 -0.500000
v 0.500000 -0.500000 -0.385353
v 0.500000 -0.405043 -0.385353
v 0.385353 -0.405043 -0.500000
vn -0.0000 0.7071 -0.7071
vn 0.8660 0.3536 -0.3536
vn 0.8660 -0.3536 0.3536
vn -0.0000 -0.7071 0.7071
vn -0.8660 -0.3536 0.3536
vn -0.8660 0.3536 -0.3536
vn -0.0000 -0.7071 -0.7071
vn -0.0000 0.7071 0.7071
vn -0.5000 -0.6124 0.6124
vn -1.0000 -0.0000 -0.0000
vn 0.5000 -0.6124 0.6124
vn -0.5000 0.6124 -0.6124
vn 0.5000 0.6124 -0.6124
vn 1.0000 -0.0000 -0.0000
vn -0.0000 -0.0000 1.0000
vn -0.0000 1.0000 -0.0000
vn -0.0000 -0.0000 -1.0000
vn -0.0000 -1.0000 -0.0000
vn -0.7071 -0.0000 0.7071
vn -0.7071 -0.0000 -0.7071
vn 0.7071 -0.0000 -0.7071
vn 0.7071 -0.0000 0.7071
vt 0.146066 0.249616
vt 0.146066 0.239403
vt 0.149295 0.240721
vt 0.149295 0.250934
vt 0.149295 0.253847
vt 0.149295 0.239403
vt 0.153009 0.239403
vt 0.153009 0.253847
vt 0.114090 0.279733
vt 0.114090 0.269520
vt 0.117318 0.270838
vt 0.117318 0.281051
vt 0.120547 0.269520
vt 0.120547 0.279733
vt 0.143025 0.253437
vt 0.144046 0.255939
vt 0.143860 0.255939
vt 0.142838 0.253437
vt 0.138528 0.285965
vt 0.138528 0.271521
vt 0.142243 0.271521
vt 0.142243 0.285965
vt 0.142838 0.250934
vt 0.142838 0.240721
vt 0.127741 0.286853
vt 0.125301 0.284362
vt 0.125301 0.280875
vt 0.127741 0.279879
vt 0.130181 0.282370
vt 0.130181 0.285857
vt 0.149701 0.270480
vt 0.149701 0.256037
vt 0.153415 0.256037
vt 0.153415 0.270480
vt 0.110626 0.281597
vt 0.107873 0.271762
vt 0.111337 0.272161
vt 0.114090 0.281996
vt 0.122073 0.290092
vt 0.122073 0.279879
vt 0.125301 0.281197
vt 0.125301 0.291410
vt 0.157129 0.256037
vt 0.157129 0.270480
vt 0.122073 0.269224
vt 0.122073 0.272103
vt 0.121809 0.272103
vt 0.121809 0.269224
vt 0.125537 0.279480
vt 0.122783 0.269645
vt 0.126247 0.270044
vt 0.129001 0.279879
vt 0.139610 0.249616
vt 0.139610 0.239403
vt 0.142838 0.253570
vt 0.139610 0.254888
vt 0.136382 0.253570
vt 0.136382 0.250934
vt 0.137568 0.267568
vt 0.137568 0.257354
vt 0.140796 0.256037
vt 0.140796 0.266250
vt 0.153415 0.282011
vt 0.153415 0.271798
vt 0.156644 0.270480
vt 0.156644 0.280693
vt 0.149701 0.284924
vt 0.149701 0.270480
vt 0.153415 0.284924
vt 0.131112 0.270203
vt 0.131112 0.259990
vt 0.134340 0.261308
vt 0.134340 0.271521
vt 0.130680 0.267107
vt 0.130680 0.269986
vt 0.130416 0.269986
vt 0.130416 0.267107
vt 0.137568 0.259990
vt 0.137568 0.270203
vt 0.156723 0.239403
vt 0.156723 0.253847
vt 0.144024 0.267568
vt 0.144024 0.270203
vt 0.140796 0.271521
vt 0.662594 0.253446
vt 0.665695 0.253446
vt 0.667245 0.257243
vt 0.665695 0.261041
vt 0.662594 0.261041
vt 0.661044 0.257243
vt 0.665361 0.217530
vt 0.663810 0.221328
vt 0.660710 0.221328
vt 0.659160 0.217530
vt 0.660710 0.213733
vt 0.663810 0.213733
vt 0.660710 0.230367
vt 0.659160 0.226569
vt 0.660710 0.222772
vt 0.663810 0.222772
vt 0.665361 0.226569
vt 0.663810 0.230367
vt 0.661702 0.246321
vt 0.660122 0.244709
vt 0.660122 0.242452
vt 0.661702 0.241808
vt 0.663281 0.243420
vt 0.663281 0.245677
vt 0.651491 0.226691
vt 0.650638 0.228780
vt 0.648932 0.228780
vt 0.648079 0.226691
vt 0.648932 0.224601
vt 0.650638 0.224601
vt 0.648932 0.219628
vt 0.650638 0.219628
vt 0.651491 0.221717
vt 0.650638 0.223807
vt 0.648932 0.223807
vt 0.648079 0.221717
vt 0.679156 0.230485
vt 0.680463 0.230485
vt 0.680463 0.240974
vt 0.679156 0.239723
vt 0.658206 0.226569
vt 0.656656 0.230367
vt 0.655702 0.230367
vt 0.657253 0.226569
vt 0.674311 0.230367
vt 0.678680 0.230367
vt 0.678680 0.231715
vt 0.674311 0.231715
vt 0.656656 0.213733
vt 0.658206 0.217530
vt 0.657253 0.217530
vt 0.655702 0.213733
vt 0.660091 0.257243
vt 0.661641 0.253446
vt 0.656656 0.221328
vt 0.655702 0.221328
vt 0.649526 0.252928
vt 0.649526 0.248559
vt 0.650874 0.248559
vt 0.650874 0.252928
vt 0.649838 0.241314
vt 0.652242 0.241314
vt 0.652242 0.245191
vt 0.649838 0.242779
vt 0.659756 0.213733
vt 0.661641 0.261041
vt 0.663285 0.238160
vt 0.660057 0.238160
vt 0.659204 0.236071
vt 0.663285 0.236071
vt 0.673004 0.242204
vt 0.677372 0.242204
vt 0.677372 0.243553
vt 0.673004 0.243553
vt 0.677673 0.225264
vt 0.677673 0.229366
vt 0.676791 0.229726
vt 0.676791 0.225625
vt 0.678680 0.242204
vt 0.678680 0.243553
vt 0.676791 0.225264
vt 0.676791 0.229633
vt 0.675442 0.229633
vt 0.675442 0.225264
vt 0.656656 0.222772
vt 0.655702 0.222772
vt 0.649873 0.259179
vt 0.649873 0.260623
vt 0.648988 0.259901
vt 0.648323 0.264420
vt 0.647438 0.263698
vt 0.673004 0.231715
vt 0.673004 0.230367
vt 0.648323 0.255381
vt 0.647438 0.256104
vt 0.671477 0.245437
vt 0.671477 0.241843
vt 0.673566 0.242696
vt 0.673566 0.245437
vt 0.112123 0.285224
vt 0.113145 0.287727
vt 0.112849 0.288452
vt 0.111531 0.285224
vt 0.130386 0.281456
vt 0.130386 0.279412
vt 0.131112 0.279116
vt 0.131112 0.281752
vt 0.114816 0.269224
vt 0.117318 0.270246
vt 0.119821 0.269224
vt 0.121991 0.280776
vt 0.121991 0.282819
vt 0.121265 0.283116
vt 0.121265 0.280480
vt 0.113145 0.282722
vt 0.112849 0.281996
vt 0.107941 0.269314
vt 0.108492 0.271281
vt 0.107162 0.269224
vt 0.111177 0.271591
vt 0.113312 0.269932
vt 0.114090 0.270022
vt 0.122851 0.267197
vt 0.123402 0.269164
vt 0.122073 0.267107
vt 0.126087 0.269474
vt 0.128222 0.267815
vt 0.129001 0.267905
vt 0.136842 0.257651
vt 0.134340 0.256629
vt 0.134340 0.256037
vt 0.131837 0.257651
vt 0.131112 0.257354
vt 0.131837 0.259694
vt 0.134340 0.260716
vt 0.136842 0.259694
vt 0.938366 0.344713
vt 0.938366 0.336685
vt 0.945319 0.332671
vt 0.952271 0.336685
vt 0.952271 0.344713
vt 0.945319 0.348727
vt 0.952271 0.320621
vt 0.952271 0.328648
vt 0.945319 0.332662
vt 0.938366 0.328648
vt 0.938366 0.320621
vt 0.945319 0.316607
vt 0.966184 0.328648
vt 0.959232 0.332662
vt 0.952280 0.328648
vt 0.952280 0.320621
vt 0.959232 0.316607
vt 0.966184 0.320621
vt 0.120547 0.274229
vt 0.121568 0.271727
vt 0.121755 0.271727
vt 0.120733 0.274229
vt 0.144233 0.253437
vt 0.145255 0.255939
vt 0.145068 0.255939
vt 0.144046 0.253437
vt 0.144046 0.250934
vt 0.143860 0.250934
vt 0.130416 0.272866
vt 0.130680 0.272866
vt 0.145255 0.250934
vt 0.145068 0.250934
vt 0.130944 0.269986
vt 0.130944 0.272866
vt 0.146463 0.253437
vt 0.145441 0.255939
vt 0.146276 0.253437
vt 0.130944 0.267107
vt 0.121900 0.274806
vt 0.121900 0.272103
vt 0.122073 0.272174
vt 0.122073 0.274877
vt 0.145441 0.250934
vt 0.143745 0.274224
vt 0.143745 0.271521
vt 0.143917 0.271592
vt 0.143917 0.274295
vt 0.130944 0.275745
vt 0.130680 0.275745
vt 0.130416 0.275569
vt 0.130589 0.272936
vt 0.130589 0.275639
vt 0.120547 0.269224
vt 0.120733 0.269224
vt 0.134340 0.256816
vt 0.131837 0.257837
vt 0.158139 0.252604
vt 0.156723 0.252604
vt 0.156723 0.241112
vt 0.158139 0.241112
vt 0.142243 0.273337
vt 0.143656 0.273331
vt 0.143745 0.284801
vt 0.142331 0.284807
vt 0.120363 0.239403
vt 0.122073 0.241112
vt 0.122073 0.252604
vt 0.120363 0.254313
vt 0.108872 0.254313
vt 0.107162 0.252604
vt 0.107162 0.241112
vt 0.108872 0.239403
vt 0.158543 0.269322
vt 0.157129 0.269317
vt 0.157218 0.257846
vt 0.158632 0.257852
vt 0.130416 0.278599
vt 0.129001 0.278599
vt 0.129001 0.267107
vt 0.663285 0.240250
vt 0.659204 0.240250
vt 0.646026 0.241834
vt 0.648430 0.241834
vt 0.648430 0.243299
vt 0.646026 0.245711
vt 0.683524 0.242322
vt 0.684832 0.242322
vt 0.684832 0.251560
vt 0.683524 0.252811
vt 0.655678 0.253579
vt 0.655678 0.251698
vt 0.657122 0.251698
vt 0.657122 0.253579
vt 0.663285 0.247613
vt 0.663285 0.244871
vt 0.665375 0.244018
vt 0.665375 0.247613
vt 0.662445 0.229136
vt 0.662445 0.235337
vt 0.666243 0.238438
vt 0.665520 0.240207
vt 0.661723 0.237106
vt 0.657926 0.240207
vt 0.657204 0.238438
vt 0.661001 0.235337
vt 0.661001 0.229136
vt 0.158139 0.239403
vt 0.158543 0.256042
vt 0.142331 0.271527
vt 0.158139 0.254313
vt 0.156723 0.254313
vt 0.122073 0.256023
vt 0.122073 0.267515
vt 0.120363 0.269224
vt 0.108872 0.269224
vt 0.107162 0.267515
vt 0.107162 0.256023
s 1
usemtl Material.001
f 1/1/1 74/2/1 73/3/2 3/4/2
f 3/5/2 73/6/2 75/7/3 5/8/3
f 5/9/3 75/10/3 76/11/4 7/12/4
f 7/12/4 76/11/4 77/13/5 9/14/5
f 18/15/4 16/16/3 97/17/3 99/18/4
f 9/19/5 77/20/5 78/21/6 11/22/6
f 11/23/6 78/24/6 74/2/1 1/1/1
f 11/25/7 1/26/7 3/27/7 5/28/7 7/29/7 9/30/7
f 13/31/5 80/32/5 79/33/6 15/34/6
f 15/35/6 79/36/6 81/37/1 17/38/1
f 17/39/1 81/40/1 82/41/2 19/42/2
f 19/34/2 82/33/2 83/43/3 21/44/3
f 32/45/3 30/46/2 105/47/2 106/48/3
f 21/49/3 83/50/3 84/51/4 23/52/4
f 23/53/4 84/54/4 80/24/5 13/23/5
f 23/53/7 13/23/7 15/55/7 17/56/7 19/57/7 21/58/7
f 25/59/3 86/60/3 85/61/4 27/62/4
f 27/63/4 85/64/4 87/65/5 29/66/5
f 29/67/5 87/68/5 88/34/6 31/69/6
f 31/70/6 88/71/6 89/72/1 33/73/1
f 16/74/3 14/75/2 98/76/2 97/77/3
f 33/73/1 89/72/1 90/78/2 35/79/2
f 35/8/2 90/7/2 86/80/3 25/81/3
f 35/79/7 25/59/7 27/62/7 29/82/7 31/83/7 33/84/7
f 42/85/8 41/86/8 40/87/8 39/88/8 38/89/8 37/90/8
f 48/91/8 47/92/8 46/93/8 45/94/8 44/95/8 43/96/8
f 54/97/8 53/98/8 52/99/8 51/100/8 50/101/8 49/102/8
f 60/103/7 55/104/7 56/105/7 57/106/7 58/107/7 59/108/7
f 66/109/7 61/110/7 62/111/7 63/112/7 64/113/7 65/114/7
f 72/115/7 67/116/7 68/117/7 69/118/7 70/119/7 71/120/7
f 63/121/6 59/122/6 109/123/6 110/124/6
f 48/125/9 43/126/9 61/127/9 66/128/9
f 41/129/10 42/130/10 60/131/10 59/132/10
f 49/133/11 50/134/11 68/135/11 67/136/11
f 42/85/12 37/90/12 55/137/12 60/138/12
f 50/134/9 51/139/9 69/140/9 68/135/9
f 43/141/10 44/142/10 62/143/10 61/144/10
f 65/145/10 64/146/10 111/147/10 112/148/10
f 44/95/12 45/94/12 63/134/12 62/149/12
f 37/90/13 38/89/13 56/150/13 55/137/13
f 114/151/12 58/152/12 57/153/12 113/154/12
f 38/155/14 39/156/14 57/157/14 56/158/14
f 53/159/13 54/160/13 72/161/13 71/162/13
f 53/163/2 71/164/2 57/157/2 39/156/2
f 54/165/14 49/166/14 67/167/14 72/168/14
f 47/169/11 48/125/11 66/128/11 65/170/11
f 69/140/4 51/139/4 47/169/4 65/170/4
f 51/100/8 52/99/8 46/93/8 47/92/8
f 46/171/8 52/172/8 40/173/8
f 52/172/8 53/174/8 39/175/8 40/173/8
f 63/176/6 45/177/6 41/129/6 59/132/6
f 45/178/8 46/171/8 40/173/8 41/179/8
f 116/180/11 71/181/11 70/182/11 115/183/11
f 2/184/8 4/185/8 73/186/8 74/187/8
f 4/188/8 6/189/8 75/190/8 73/191/8
f 6/192/8 8/193/8 76/11/8 75/10/8
f 8/193/8 10/194/8 77/13/8 76/11/8
f 10/195/8 12/196/8 78/197/8 77/198/8
f 12/199/8 2/184/8 74/187/8 78/200/8
f 14/201/8 16/202/8 79/36/8 80/203/8
f 16/202/8 18/204/8 81/37/8 79/36/8
f 18/204/8 20/205/8 82/206/8 81/37/8
f 20/207/8 22/208/8 83/50/8 82/209/8
f 22/208/8 24/210/8 84/51/8 83/50/8
f 24/210/8 14/211/8 80/212/8 84/51/8
f 26/213/8 28/214/8 85/215/8 86/60/8
f 28/214/8 30/216/8 87/217/8 85/215/8
f 30/216/8 32/218/8 88/71/8 87/217/8
f 32/218/8 34/219/8 89/72/8 88/71/8
f 34/219/8 36/220/8 90/78/8 89/72/8
f 36/220/8 26/213/8 86/60/8 90/78/8
f 95/221/8 94/222/8 93/223/8 91/224/8 92/225/8 96/226/8
f 101/227/8 100/228/8 99/229/8 97/230/8 98/231/8 102/232/8
f 107/233/8 106/234/8 105/235/8 103/236/8 104/237/8 108/238/8
f 4/239/5 2/240/4 92/241/4 91/242/5
f 34/243/4 32/244/3 106/245/3 107/246/4
f 20/247/5 18/15/4 99/18/4 100/248/5
f 6/249/6 4/76/5 91/75/5 93/250/6
f 36/251/5 34/243/4 107/246/4 108/252/5
f 22/250/6 20/75/5 100/253/5 101/254/6
f 8/255/1 6/256/6 93/244/6 94/257/1
f 26/75/6 36/74/5 108/258/5 104/253/6
f 24/259/1 22/260/6 101/261/6 102/262/1
f 10/263/2 8/255/1 94/257/1 95/251/2
f 14/264/2 24/265/1 102/266/1 98/267/2
f 12/254/3 10/268/2 95/269/2 96/250/3
f 28/270/1 26/249/6 104/271/6 103/272/1
f 2/240/4 12/273/3 96/274/3 92/241/4
f 30/216/2 28/214/1 103/275/1 105/276/2
f 127/277/15 128/278/15 121/279/15 118/280/15
f 131/281/14 132/282/14 129/283/14 126/284/14
f 132/285/16 133/286/16 124/287/16 125/288/16 120/289/16 121/290/16 128/291/16 129/292/16
f 119/293/10 120/294/10 125/295/10 122/296/10
f 123/297/17 124/298/17 133/299/17 130/77/17
f 109/300/13 59/301/13 58/152/13 114/151/13
f 70/302/14 69/303/14 117/304/14 115/305/14
f 57/306/2 71/307/2 116/308/2 113/309/2
f 117/310/4 69/311/4 65/312/4 112/313/4
f 111/314/9 64/315/9 63/316/9 110/317/9
f 112/318/18 111/319/18 110/320/18 109/321/18 114/322/18 113/323/18 116/324/18 115/325/18 117/326/18
f 118/280/19 121/279/19 120/80/19 119/327/19
f 122/296/20 125/295/20 124/43/20 123/328/20
f 130/329/21 133/265/21 132/282/21 131/281/21
f 126/330/22 129/331/22 128/278/22 127/277/22
f 122/288/18 123/332/18 130/333/18 131/334/18 126/335/18 127/336/18 118/337/18 119/289/18
