# Blender 4.1.1
# www.blender.org
mtllib PFRocket.mtl
o anim.001
v 0.000000 -0.112071 -0.023446
v 0.079241 -0.079248 -0.023446
v 0.112064 -0.000007 -0.023446
v 0.079241 0.079234 -0.023446
v 0.000000 0.112056 -0.023446
v -0.079241 0.079234 -0.023446
v -0.112064 -0.000007 -0.023446
v -0.079241 -0.079248 -0.023446
v -0.000000 -0.285386 -0.539362
v 0.201793 -0.201801 -0.539362
v 0.285379 -0.000007 -0.539362
v 0.201793 0.201786 -0.539363
v -0.000000 0.285372 -0.539363
v -0.201793 0.201786 -0.539363
v -0.285379 -0.000007 -0.539362
v -0.201793 -0.201801 -0.539362
v 0.000000 -0.285386 -0.657126
v 0.201793 -0.201801 -0.657126
v 0.285379 -0.000007 -0.657126
v 0.201793 0.201786 -0.657126
v 0.000000 0.285372 -0.657126
v -0.201793 0.201786 -0.657126
v -0.285379 -0.000007 -0.657126
v -0.201793 -0.201801 -0.657126
v 0.000000 -0.194293 -0.727223
v 0.137381 -0.137388 -0.727223
v 0.194286 -0.000007 -0.727223
v 0.137381 0.137373 -0.727224
v 0.000000 0.194278 -0.727224
v -0.137381 0.137373 -0.727224
v -0.194286 -0.000007 -0.727223
v -0.137381 -0.137388 -0.727223
v 0.000000 -0.094610 -0.926300
v 0.066894 -0.066902 -0.926300
v 0.094603 -0.000008 -0.926300
v 0.066894 0.066887 -0.926300
v 0.000000 0.094595 -0.926300
v -0.066894 0.066887 -0.926300
v -0.094603 -0.000008 -0.926300
v -0.066894 -0.066902 -0.926300
v 0.000000 -0.078584 -0.000005
v 0.055562 -0.055569 -0.000005
v 0.078576 -0.000007 -0.000005
v 0.055562 0.055555 -0.000005
v 0.000000 0.078569 -0.000005
v -0.055562 0.055555 -0.000005
v -0.078576 -0.000007 -0.000005
v -0.055562 -0.055569 -0.000005
v 0.000001 -0.078583 0.974067
v 0.055563 -0.055569 0.974067
v 0.078577 -0.000007 0.974067
v 0.055563 0.055555 0.974067
v 0.000001 0.078570 0.974067
v -0.055561 0.055555 0.974067
v -0.078576 -0.000007 0.974067
v -0.055561 -0.055569 0.974067
vn 0.5579 -0.2311 0.7971
vn -0.3827 0.9239 -0.0000
vn 0.8824 -0.3655 0.2964
vn -0.8824 -0.3655 0.2964
vn -0.3655 0.8824 0.2964
vn 0.8824 0.3655 0.2964
vn 0.3655 -0.8824 0.2964
vn -0.3655 -0.8824 0.2964
vn -0.8824 0.3655 0.2964
vn 0.3655 0.8824 0.2964
vn -0.5913 -0.2449 -0.7684
vn 0.9239 0.3827 -0.0000
vn 0.3827 -0.9239 -0.0000
vn -0.3827 -0.9239 -0.0000
vn -0.9239 0.3827 -0.0000
vn 0.3827 0.9239 -0.0000
vn 0.9239 -0.3827 -0.0000
vn -0.9239 -0.3827 -0.0000
vn -0.8385 0.3473 -0.4199
vn -0.2449 0.5913 -0.7684
vn 0.5913 0.2449 -0.7684
vn 0.2449 -0.5913 -0.7684
vn -0.2449 -0.5913 -0.7684
vn -0.5913 0.2449 -0.7684
vn 0.2449 0.5913 -0.7684
vn 0.5913 -0.2449 -0.7684
vn -0.0000 -0.0000 -1.0000
vn 0.3473 0.8385 -0.4199
vn 0.8385 -0.3473 -0.4199
vn -0.8385 -0.3473 -0.4199
vn -0.3473 0.8385 -0.4199
vn 0.8385 0.3473 -0.4199
vn 0.3473 -0.8385 -0.4199
vn -0.3473 -0.8385 -0.4199
vn -0.5579 -0.2311 0.7971
vn -0.2311 0.5579 0.7971
vn 0.5579 0.2311 0.7971
vn 0.2311 -0.5579 0.7971
vn -0.2311 -0.5579 0.7971
vn -0.5579 0.2311 0.7971
vn 0.2311 0.5579 0.7971
vn -0.0000 -0.0000 1.0000
vt 0.419706 0.419706
vt 0.490000 0.250000
vt 0.080294 0.080294
vt 0.250000 0.010000
vt 0.080294 0.419706
vt 0.010000 0.250000
vt 0.419706 0.080294
vt 0.250000 0.490000
s 0
usemtl Material.003
f 2/1/1 3/2/1 43/2/1 42/1/1
f 14/3/2 13/4/2 21/4/2 22/3/2
f 3/2/3 2/1/3 10/1/3 11/2/3
f 8/5/4 7/6/4 15/6/4 16/5/4
f 6/3/5 5/4/5 13/4/5 14/3/5
f 4/7/6 3/2/6 11/2/6 12/7/6
f 2/1/7 1/8/7 9/8/7 10/1/7
f 1/8/8 8/5/8 16/5/8 9/8/8
f 7/6/9 6/3/9 14/3/9 15/6/9
f 5/4/10 4/7/10 12/7/10 13/4/10
f 24/5/11 23/6/11 31/6/11 32/5/11
f 12/7/12 11/2/12 19/2/12 20/7/12
f 10/1/13 9/8/13 17/8/13 18/1/13
f 9/8/14 16/5/14 24/5/14 17/8/14
f 15/6/15 14/3/15 22/3/15 23/6/15
f 13/4/16 12/7/16 20/7/16 21/4/16
f 11/2/17 10/1/17 18/1/17 19/2/17
f 16/5/18 15/6/18 23/6/18 24/5/18
f 31/6/19 30/3/19 38/3/19 39/6/19
f 22/3/20 21/4/20 29/4/20 30/3/20
f 20/7/21 19/2/21 27/2/21 28/7/21
f 18/1/22 17/8/22 25/8/22 26/1/22
f 17/8/23 24/5/23 32/5/23 25/8/23
f 23/6/24 22/3/24 30/3/24 31/6/24
f 21/4/25 20/7/25 28/7/25 29/4/25
f 19/2/26 18/1/26 26/1/26 27/2/26
f 34/1/27 33/8/27 40/5/27 39/6/27 38/3/27 37/4/27 36/7/27 35/2/27
f 29/4/28 28/7/28 36/7/28 37/4/28
f 27/2/29 26/1/29 34/1/29 35/2/29
f 32/5/30 31/6/30 39/6/30 40/5/30
f 30/3/31 29/4/31 37/4/31 38/3/31
f 28/7/32 27/2/32 35/2/32 36/7/32
f 26/1/33 25/8/33 33/8/33 34/1/33
f 25/8/34 32/5/34 40/5/34 33/8/34
f 47/6/18 48/5/18 56/5/18 55/6/18
f 7/6/35 8/5/35 48/5/35 47/6/35
f 5/4/36 6/3/36 46/3/36 45/4/36
f 3/2/37 4/7/37 44/7/37 43/2/37
f 1/8/38 2/1/38 42/1/38 41/8/38
f 8/5/39 1/8/39 41/8/39 48/5/39
f 6/3/40 7/6/40 47/6/40 46/3/40
f 4/7/41 5/4/41 45/4/41 44/7/41
f 50/1/42 51/2/42 52/7/42 53/4/42 54/3/42 55/6/42 56/5/42 49/8/42
f 45/4/2 46/3/2 54/3/2 53/4/2
f 43/2/12 44/7/12 52/7/12 51/2/12
f 41/8/13 42/1/13 50/1/13 49/8/13
f 48/5/14 41/8/14 49/8/14 56/5/14
f 46/3/15 47/6/15 55/6/15 54/3/15
f 44/7/16 45/4/16 53/4/16 52/7/16
f 42/1/17 43/2/17 51/2/17 50/1/17
