# Blender 4.2.1 LTS
# www.blender.org
mtllib PFRocket.mtl
o Cylinder.003
v 0.000000 -0.110986 -0.565366
v 0.055493 -0.096116 -0.565366
v 0.096116 -0.055493 -0.565366
v 0.110986 0.000000 -0.565366
v 0.096116 0.055493 -0.565366
v 0.055493 0.096116 -0.565367
v 0.000000 0.110986 -0.565367
v -0.055493 0.096116 -0.565367
v -0.096116 0.055493 -0.565366
v -0.110986 0.000000 -0.565366
v -0.096116 -0.055493 -0.565366
v -0.055493 -0.096116 -0.565366
v 0.093713 -0.162316 -0.587570
v -0.000000 -0.187426 -0.587570
v 0.162316 -0.093713 -0.587570
v 0.187426 0.000000 -0.587570
v 0.162316 0.093713 -0.587570
v 0.093713 0.162316 -0.587571
v -0.000000 0.187426 -0.587571
v -0.093713 0.162316 -0.587571
v -0.162316 0.093713 -0.587570
v -0.187426 0.000000 -0.587570
v -0.162316 -0.093713 -0.587570
v -0.093713 -0.162316 -0.587570
v 0.109447 -0.189568 -0.655127
v -0.000000 -0.218895 -0.655128
v 0.189568 -0.109447 -0.655128
v 0.218895 0.000000 -0.655128
v 0.189568 0.109447 -0.655128
v 0.109447 0.189568 -0.655128
v -0.000000 0.218895 -0.655128
v -0.109447 0.189568 -0.655128
v -0.189568 0.109447 -0.655128
v -0.218895 0.000000 -0.655128
v -0.189568 -0.109447 -0.655128
v -0.109447 -0.189568 -0.655127
v 0.109447 -0.189568 -0.740463
v 0.000000 -0.218895 -0.740463
v 0.189568 -0.109447 -0.740463
v 0.218895 0.000000 -0.740463
v 0.189568 0.109447 -0.740463
v 0.109447 0.189568 -0.740463
v 0.000000 0.218895 -0.740463
v -0.109447 0.189568 -0.740463
v -0.189568 0.109447 -0.740463
v -0.218895 0.000000 -0.740463
v -0.189568 -0.109447 -0.740463
v -0.109447 -0.189568 -0.740463
v 0.215184 -0.372709 -1.208330
v -0.000000 -0.430368 -1.208330
v 0.372709 -0.215184 -1.208331
v 0.430367 -0.000000 -1.208331
v 0.372709 0.215183 -1.208331
v 0.215184 0.372709 -1.208331
v -0.000000 0.430367 -1.208331
v -0.215184 0.372709 -1.208331
v -0.372709 0.215183 -1.208331
v -0.430367 -0.000000 -1.208331
v -0.372709 -0.215184 -1.208331
v -0.215184 -0.372709 -1.208330
v 0.215184 -0.372709 -1.390671
v -0.000000 -0.430367 -1.390671
v 0.372709 -0.215184 -1.390671
v 0.430367 -0.000000 -1.390671
v 0.372709 0.215183 -1.390671
v 0.215184 0.372709 -1.390671
v -0.000000 0.430367 -1.390671
v -0.215184 0.372709 -1.390671
v -0.372709 0.215183 -1.390671
v -0.430367 -0.000000 -1.390671
v -0.372709 -0.215184 -1.390671
v -0.215184 -0.372709 -1.390671
v 0.150094 -0.259970 -1.390671
v -0.000000 -0.300188 -1.390671
v 0.259970 -0.150094 -1.390671
v 0.300187 -0.000000 -1.390671
v 0.259970 0.150094 -1.390671
v 0.150094 0.259970 -1.390671
v -0.000000 0.300187 -1.390671
v -0.150094 0.259970 -1.390671
v -0.259970 0.150094 -1.390671
v -0.300188 -0.000000 -1.390671
v -0.259970 -0.150094 -1.390671
v -0.150094 -0.259970 -1.390671
v 0.150094 -0.259970 -1.486425
v -0.000000 -0.300188 -1.486425
v 0.259970 -0.150094 -1.486425
v 0.300188 -0.000000 -1.486425
v 0.259970 0.150094 -1.486425
v 0.150094 0.259970 -1.486425
v -0.000000 0.300187 -1.486425
v -0.150094 0.259970 -1.486425
v -0.259970 0.150094 -1.486425
v -0.300188 -0.000000 -1.486425
v -0.259970 -0.150094 -1.486425
v -0.150094 -0.259970 -1.486425
v 0.085200 -0.147571 -1.720255
v 0.000000 -0.170400 -1.720255
v 0.147571 -0.085200 -1.720255
v 0.170400 0.000000 -1.720255
v 0.147571 0.085200 -1.720255
v 0.085200 0.147571 -1.720255
v 0.000000 0.170400 -1.720255
v -0.085200 0.147571 -1.720255
v -0.147571 0.085200 -1.720255
v -0.170400 0.000000 -1.720255
v -0.147571 -0.085200 -1.720255
v -0.085200 -0.147571 -1.720255
v -0.000000 -0.127328 -0.575126
v 0.110269 -0.063664 -0.575126
v 0.110269 0.063664 -0.575126
v -0.000000 0.127328 -0.575126
v -0.110269 0.063664 -0.575126
v -0.110269 -0.063664 -0.575126
v -0.000000 -0.128050 0.705815
v 0.110895 -0.064025 0.705815
v 0.110895 0.064026 0.705815
v -0.000000 0.128052 0.705815
v -0.110896 0.064026 0.705815
v -0.110896 -0.064025 0.705815
v -0.114335 -0.000139 0.685184
v -0.201093 -0.011561 0.685184
v -0.270517 0.041709 0.685184
v 0.114331 -0.000139 0.685184
v 0.201089 0.011283 0.685184
v 0.270513 -0.041988 0.685184
v 0.114331 -0.000139 0.212947
v 0.201089 0.011283 0.212947
v -0.270517 0.041709 0.212947
v -0.114335 -0.000139 0.212947
v -0.201093 -0.011560 0.212947
v 0.270513 -0.041988 0.212947
v 0.011509 -0.201177 0.685184
v -0.041762 -0.270601 0.685184
v -0.000001 0.114193 0.685184
v -0.011424 0.200952 0.685184
v 0.041847 0.270375 0.685184
v 0.000088 -0.114419 0.685184
v 0.041847 0.270376 0.212947
v -0.000001 0.114194 0.212947
v -0.011423 0.200952 0.212947
v -0.041760 -0.270600 0.212947
v 0.000088 -0.114419 0.212947
v 0.011509 -0.201177 0.212947
v -0.205521 -0.028083 0.685184
v -0.105783 -0.014952 0.685184
v -0.285329 0.033158 0.685184
v 0.205517 0.027805 0.685184
v 0.105779 0.014674 0.685184
v 0.285326 -0.033436 0.685184
v 0.205517 0.027805 0.212947
v -0.205519 -0.028083 0.212947
v 0.105780 0.014674 0.212947
v -0.285329 0.033158 0.212947
v -0.105783 -0.014952 0.212947
v 0.285326 -0.033436 0.212947
v 0.028031 -0.205603 0.685184
v 0.014901 -0.105867 0.685184
v -0.033209 -0.285413 0.685184
v -0.027945 0.205379 0.685184
v -0.014815 0.105642 0.685184
v 0.033294 0.285189 0.685184
v -0.027945 0.205379 0.212947
v 0.028031 -0.205603 0.212947
v 0.033296 0.285189 0.212947
v -0.014815 0.105642 0.212947
v -0.033209 -0.285413 0.212947
v 0.014901 -0.105867 0.212947
vn -0.4532 -0.7850 0.4222
vn -0.7850 -0.4532 0.4222
vn -0.0000 0.2789 0.9603
vn 0.1395 0.2416 0.9603
vn 0.2789 -0.0000 0.9603
vn 0.2416 -0.1395 0.9603
vn -0.2416 -0.1395 0.9603
vn -0.2789 -0.0000 0.9603
vn -0.1395 0.2416 0.9603
vn 0.2416 0.1395 0.9603
vn -0.1395 -0.2416 0.9603
vn 0.1395 -0.2416 0.9603
vn -0.0000 -0.2789 0.9603
vn -0.2416 0.1395 0.9603
vn 0.8660 0.5000 -0.0000
vn 1.0000 -0.0000 -0.0000
vn 0.4532 -0.7850 0.4222
vn -0.0000 -0.9065 0.4222
vn -0.7850 0.4532 0.4222
vn -0.4532 0.7850 0.4222
vn 0.4532 0.7850 0.4222
vn 0.7850 0.4532 0.4222
vn 0.7850 -0.4532 0.4222
vn -0.9065 -0.0000 0.4222
vn -0.0000 0.9065 0.4222
vn 0.9065 -0.0000 0.4222
vn -0.5000 -0.8660 -0.0000
vn -0.8660 -0.5000 -0.0000
vn 0.5000 -0.8660 -0.0000
vn -0.0000 -1.0000 -0.0000
vn -0.8660 0.5000 -0.0000
vn -0.5000 0.8660 -0.0000
vn 0.5000 0.8660 -0.0000
vn 0.8660 -0.5000 -0.0000
vn -1.0000 -0.0000 -0.0000
vn -0.0000 1.0000 -0.0000
vn 0.7892 0.4556 0.4119
vn 0.9112 -0.0000 0.4119
vn -0.4556 -0.7892 0.4119
vn -0.7892 -0.4556 0.4119
vn 0.4556 -0.7892 0.4119
vn -0.0000 -0.9112 0.4119
vn -0.7892 0.4556 0.4119
vn -0.4556 0.7892 0.4119
vn 0.4556 0.7892 0.4119
vn 0.7892 -0.4556 0.4119
vn -0.9112 -0.0000 0.4119
vn -0.0000 0.9112 0.4119
vn -0.0000 -0.0000 -1.0000
vn 0.4372 0.7572 -0.4853
vn 0.7572 0.4372 -0.4853
vn -0.0000 -0.8743 -0.4853
vn -0.4372 -0.7572 -0.4853
vn 0.7572 -0.4372 -0.4853
vn 0.4372 -0.7572 -0.4853
vn -0.8743 -0.0000 -0.4853
vn -0.7572 0.4372 -0.4853
vn -0.0000 0.8743 -0.4853
vn 0.8743 -0.0000 -0.4853
vn -0.7572 -0.4372 -0.4853
vn -0.4372 0.7572 -0.4853
vn -0.0000 -1.0000 -0.0006
vn 0.8660 -0.5000 -0.0006
vn -0.0000 -0.0000 1.0000
vn -0.8660 0.5000 -0.0006
vn -0.8660 -0.5000 -0.0006
vn 0.8660 0.5000 -0.0006
vn -0.0000 1.0000 -0.0006
vn 0.6088 0.7934 -0.0000
vn 0.2588 0.9659 -0.0000
vn -0.6088 -0.7934 -0.0000
vn -0.2588 -0.9659 -0.0000
vn -0.1305 0.9914 -0.0000
vn 0.1305 -0.9914 -0.0000
vn -0.7934 0.6088 -0.0000
vn -0.9659 0.2588 -0.0000
vn 0.7934 -0.6088 -0.0000
vn 0.9659 -0.2588 -0.0000
vn -0.9914 -0.1305 -0.0000
vn 0.9914 0.1305 -0.0000
vn -0.6088 -0.7933 -0.0000
vn 0.4999 -0.8661 -0.0000
vt 0.008514 0.139496
vt 0.008514 0.112678
vt 0.025747 0.112678
vt 0.025747 0.139496
vt 0.336370 0.330319
vt 0.349905 0.306978
vt 0.363098 0.310515
vt 0.346056 0.340006
vt 0.336418 0.256611
vt 0.313023 0.243161
vt 0.316566 0.229913
vt 0.346080 0.246949
vt 0.249285 0.306909
vt 0.262733 0.330289
vt 0.253011 0.339905
vt 0.236076 0.310403
vt 0.313039 0.343826
vt 0.316565 0.357022
vt 0.349857 0.280003
vt 0.363098 0.276456
vt 0.249251 0.279947
vt 0.236089 0.276435
vt 0.286064 0.243133
vt 0.262720 0.256604
vt 0.253034 0.246997
vt 0.282480 0.229938
vt 0.286063 0.343781
vt 0.282493 0.357008
vt 0.025747 0.271991
vt 0.025747 0.245664
vt 0.044808 0.245664
vt 0.044808 0.271991
vt 0.008514 0.192646
vt 0.008514 0.166140
vt 0.025747 0.166140
vt 0.025747 0.192646
vt 0.008514 0.059436
vt 0.008514 0.032894
vt 0.025747 0.032894
vt 0.025747 0.059436
vt 0.008514 0.298362
vt 0.008514 0.271991
vt 0.025747 0.298362
vt 0.008514 0.219173
vt 0.025747 0.219173
vt 0.008514 0.085939
vt 0.025747 0.085939
vt 0.008514 0.325084
vt 0.025747 0.325084
vt 0.008514 0.245664
vt 0.008514 0.005903
vt 0.025747 0.005903
vt 0.044808 0.112678
vt 0.044808 0.139496
vt 0.044808 0.166140
vt 0.044808 0.192646
vt 0.044808 0.032894
vt 0.044808 0.059436
vt 0.044808 0.298362
vt 0.044808 0.219173
vt 0.044808 0.085939
vt 0.044808 0.325084
vt 0.044808 0.005903
vt 0.161174 0.032894
vt 0.161174 0.005903
vt 0.185784 0.005903
vt 0.185784 0.032894
vt 0.161174 0.245664
vt 0.161174 0.271991
vt 0.161174 0.112678
vt 0.161174 0.139496
vt 0.161174 0.166140
vt 0.161174 0.192646
vt 0.161174 0.059436
vt 0.161174 0.298362
vt 0.161174 0.219173
vt 0.161174 0.085939
vt 0.161174 0.325084
vt 0.326141 0.194483
vt 0.372061 0.220995
vt 0.350152 0.242905
vt 0.318121 0.224413
vt 0.185784 0.245664
vt 0.185784 0.271991
vt 0.185784 0.112678
vt 0.185784 0.139496
vt 0.185784 0.166140
vt 0.185784 0.192646
vt 0.185784 0.059436
vt 0.185784 0.298362
vt 0.185784 0.219173
vt 0.185784 0.085939
vt 0.185784 0.325084
vt 0.607817 0.243626
vt 0.589061 0.243626
vt 0.589061 0.231606
vt 0.607817 0.231606
vt 0.398574 0.319940
vt 0.372061 0.365861
vt 0.350152 0.343951
vt 0.368644 0.311921
vt 0.200684 0.319940
vt 0.200684 0.266916
vt 0.230613 0.274935
vt 0.230614 0.311921
vt 0.273117 0.392373
vt 0.227196 0.365861
vt 0.249106 0.343951
vt 0.281136 0.362443
vt 0.273117 0.194483
vt 0.281136 0.224413
vt 0.398574 0.266916
vt 0.368644 0.274935
vt 0.326141 0.392373
vt 0.318122 0.362443
vt 0.227196 0.220996
vt 0.249106 0.242905
vt 0.589061 0.195597
vt 0.607817 0.195597
vt 0.513974 0.243626
vt 0.495223 0.243626
vt 0.495223 0.231606
vt 0.513974 0.231606
vt 0.551505 0.243626
vt 0.532724 0.243626
vt 0.532724 0.231606
vt 0.551505 0.231606
vt 0.457728 0.243626
vt 0.438971 0.243626
vt 0.438971 0.231606
vt 0.457728 0.231606
vt 0.626592 0.243626
vt 0.626592 0.231606
vt 0.570292 0.243626
vt 0.570292 0.231606
vt 0.476472 0.243626
vt 0.476472 0.231606
vt 0.420197 0.243626
vt 0.401390 0.243626
vt 0.401390 0.231606
vt 0.420197 0.231606
vt 0.289279 0.336442
vt 0.269768 0.325177
vt 0.258503 0.305666
vt 0.258503 0.283136
vt 0.269768 0.263624
vt 0.289279 0.252359
vt 0.311809 0.252359
vt 0.331321 0.263624
vt 0.342586 0.283135
vt 0.342586 0.305665
vt 0.331321 0.325177
vt 0.311809 0.336442
vt 0.495223 0.195597
vt 0.513974 0.195597
vt 0.532724 0.195597
vt 0.551505 0.195597
vt 0.438971 0.195597
vt 0.457728 0.195597
vt 0.626592 0.195597
vt 0.570292 0.195597
vt 0.476472 0.195597
vt 0.401390 0.195597
vt 0.420197 0.195597
vt 0.422995 0.316562
vt 0.417888 0.316562
vt 0.417888 0.253753
vt 0.422995 0.253753
vt 0.202403 0.216161
vt 0.195780 0.204706
vt 0.202390 0.193243
vt 0.215622 0.193236
vt 0.222244 0.204691
vt 0.215634 0.216154
vt 0.433209 0.316562
vt 0.428102 0.316562
vt 0.428102 0.253753
vt 0.433209 0.253753
vt 0.412780 0.316562
vt 0.407673 0.316562
vt 0.407673 0.253753
vt 0.412780 0.253753
vt 0.438317 0.316562
vt 0.438317 0.253753
vt 0.114285 0.548016
vt 0.118551 0.548016
vt 0.118551 0.572933
vt 0.114285 0.572933
vt 0.110020 0.548016
vt 0.110020 0.572933
vt 0.114285 0.597849
vt 0.110020 0.597849
vt 0.118124 0.597849
vt 0.114285 0.597849
vt 0.118124 0.572933
vt 0.102671 0.597849
vt 0.098406 0.597849
vt 0.098406 0.572933
vt 0.102671 0.572933
vt 0.089727 0.597849
vt 0.085198 0.597849
vt 0.085198 0.572933
vt 0.089727 0.572933
vt 0.102671 0.572933
vt 0.106937 0.572933
vt 0.106937 0.597849
vt 0.094140 0.572933
vt 0.094140 0.597849
vt 0.105116 0.548016
vt 0.105116 0.572933
vt 0.100212 0.572933
vt 0.100212 0.548016
vt 0.095308 0.548016
vt 0.095308 0.572933
vt 0.090404 0.572933
vt 0.090404 0.548016
vt 0.089727 0.572933
vt 0.094140 0.597849
vt 0.085500 0.572933
vt 0.085500 0.548016
vt 0.090404 0.548016
vt 0.080295 0.572933
vt 0.080295 0.548016
vt 0.085500 0.548016
vt 0.085500 0.572933
vt 0.095308 0.572933
vt 0.085198 0.572933
vt 0.080295 0.597849
vt 0.126597 0.572933
vt 0.126597 0.548016
vt 0.127482 0.548016
vt 0.127482 0.572933
vt 0.123890 0.558462
vt 0.122123 0.562727
vt 0.121220 0.562728
vt 0.123251 0.557824
vt 0.118551 0.557186
vt 0.120318 0.552920
vt 0.121220 0.552920
vt 0.119189 0.557824
vt 0.122123 0.552920
vt 0.123890 0.557186
vt 0.123251 0.557824
vt 0.121220 0.552920
vt 0.121220 0.576801
vt 0.122987 0.572535
vt 0.123890 0.572535
vt 0.121858 0.577439
vt 0.118551 0.586608
vt 0.120318 0.582343
vt 0.121220 0.582343
vt 0.119189 0.587246
vt 0.118551 0.548654
vt 0.119189 0.548016
vt 0.121220 0.558462
vt 0.119453 0.562728
vt 0.118551 0.562728
vt 0.120582 0.557824
vt 0.123890 0.566993
vt 0.123251 0.567631
vt 0.121220 0.568269
vt 0.121858 0.567631
vt 0.118551 0.578077
vt 0.119189 0.577439
vt 0.124792 0.548016
vt 0.124792 0.572933
vt 0.123890 0.572933
vt 0.123890 0.548016
vt 0.121220 0.566993
vt 0.120582 0.567631
vt 0.125695 0.572933
vt 0.125695 0.597849
vt 0.124792 0.597849
vt 0.127482 0.572933
vt 0.127482 0.597849
vt 0.126597 0.597849
vt 0.118551 0.576801
vt 0.120318 0.572535
vt 0.121220 0.572535
vt 0.126597 0.572933
vt 0.126597 0.597849
vt 0.125695 0.548016
vt 0.121220 0.587885
vt 0.119453 0.592150
vt 0.118551 0.592150
vt 0.120582 0.587246
vt 0.118551 0.568269
vt 0.119189 0.567631
vt 0.123890 0.597849
vt 0.123890 0.572933
vt 0.125695 0.548016
vt 0.121220 0.596416
vt 0.120582 0.597054
vt 0.123890 0.548654
vt 0.123251 0.548016
s 1
usemtl Material.001
f 24/1/1 23/2/2 35/3/2 36/4/1
f 7/5/3 6/6/4 18/7/4 19/8/3
f 4/9/5 3/10/6 15/11/6 16/12/5
f 11/13/7 10/14/8 22/15/8 23/16/7
f 8/17/9 7/5/3 19/8/3 20/18/9
f 5/19/10 4/9/5 16/12/5 17/20/10
f 12/21/11 11/13/7 23/16/7 24/22/11
f 2/23/12 1/24/13 14/25/13 13/26/12
f 9/27/14 8/17/9 20/18/9 21/28/14
f 6/6/4 5/19/10 17/20/10 18/7/4
f 1/24/13 12/21/11 24/22/11 14/25/13
f 3/10/6 2/23/12 13/26/12 15/11/6
f 10/14/8 9/27/14 21/28/14 22/15/8
f 29/29/15 28/30/16 40/31/16 41/32/15
f 13/33/17 14/34/18 26/35/18 25/36/17
f 21/37/19 20/38/20 32/39/20 33/40/19
f 18/41/21 17/42/22 29/29/22 30/43/21
f 14/34/18 24/1/1 36/4/1 26/35/18
f 15/44/23 13/33/17 25/36/17 27/45/23
f 22/46/24 21/37/19 33/40/19 34/47/24
f 19/48/25 18/41/21 30/43/21 31/49/25
f 16/50/26 15/44/23 27/45/23 28/30/26
f 23/2/2 22/46/24 34/47/24 35/3/2
f 20/38/20 19/51/25 31/52/25 32/39/20
f 17/42/22 16/50/26 28/30/26 29/29/22
f 36/4/27 35/3/28 47/53/28 48/54/27
f 25/36/29 26/35/30 38/55/30 37/56/29
f 33/40/31 32/39/32 44/57/32 45/58/31
f 30/43/33 29/29/15 41/32/15 42/59/33
f 26/35/30 36/4/27 48/54/27 38/55/30
f 27/45/34 25/36/29 37/56/29 39/60/34
f 34/47/35 33/40/31 45/58/31 46/61/35
f 31/49/36 30/43/33 42/59/33 43/62/36
f 28/30/16 27/45/34 39/60/34 40/31/16
f 35/3/28 34/47/35 46/61/35 47/53/28
f 32/39/32 31/52/36 43/63/36 44/57/32
f 56/64/32 55/65/36 67/66/36 68/67/32
f 41/32/37 40/31/38 52/68/38 53/69/37
f 48/54/39 47/53/40 59/70/40 60/71/39
f 37/56/41 38/55/42 50/72/42 49/73/41
f 45/58/43 44/57/44 56/64/44 57/74/43
f 42/59/45 41/32/37 53/69/37 54/75/45
f 38/55/42 48/54/39 60/71/39 50/72/42
f 39/60/46 37/56/41 49/73/41 51/76/46
f 46/61/47 45/58/43 57/74/43 58/77/47
f 43/62/48 42/59/45 54/75/45 55/78/48
f 40/31/38 39/60/46 51/76/46 52/68/38
f 47/53/40 46/61/47 58/77/47 59/70/40
f 68/79/49 67/80/49 79/81/49 80/82/49
f 53/69/15 52/68/16 64/83/16 65/84/15
f 60/71/27 59/70/28 71/85/28 72/86/27
f 49/73/29 50/72/30 62/87/30 61/88/29
f 57/74/31 56/64/32 68/67/32 69/89/31
f 54/75/33 53/69/15 65/84/15 66/90/33
f 50/72/30 60/71/27 72/86/27 62/87/30
f 51/76/34 49/73/29 61/88/29 63/91/34
f 58/77/35 57/74/31 69/89/31 70/92/35
f 55/78/36 54/75/33 66/90/33 67/93/36
f 52/68/16 51/76/34 63/91/34 64/83/16
f 59/70/28 58/77/35 70/92/35 71/85/28
f 78/94/33 77/95/15 89/96/15 90/97/33
f 65/98/49 64/99/49 76/100/49 77/101/49
f 72/102/49 71/103/49 83/104/49 84/105/49
f 61/106/49 62/107/49 74/108/49 73/109/49
f 69/110/49 68/79/49 80/82/49 81/111/49
f 66/112/49 65/98/49 77/101/49 78/113/49
f 62/107/49 72/102/49 84/105/49 74/108/49
f 63/114/49 61/106/49 73/109/49 75/115/49
f 70/116/49 69/110/49 81/111/49 82/117/49
f 67/80/49 66/112/49 78/113/49 79/81/49
f 64/99/49 63/114/49 75/115/49 76/100/49
f 71/103/49 70/116/49 82/117/49 83/104/49
f 90/97/50 89/96/51 101/118/51 102/119/50
f 74/120/30 84/121/27 96/122/27 86/123/30
f 75/124/34 73/125/29 85/126/29 87/127/34
f 82/128/35 81/129/31 93/130/31 94/131/35
f 79/132/36 78/94/33 90/97/33 91/133/36
f 76/134/16 75/124/34 87/127/34 88/135/16
f 83/136/28 82/128/35 94/131/35 95/137/28
f 80/138/32 79/139/36 91/140/36 92/141/32
f 77/95/15 76/134/16 88/135/16 89/96/15
f 84/121/27 83/136/28 95/137/28 96/122/27
f 73/125/29 74/120/30 86/123/30 85/126/29
f 81/129/31 80/138/32 92/141/32 93/130/31
f 97/142/49 98/143/49 108/144/49 107/145/49 106/146/49 105/147/49 104/148/49 103/149/49 102/150/49 101/151/49 100/152/49 99/153/49
f 86/123/52 96/122/53 108/154/53 98/155/52
f 87/127/54 85/126/55 97/156/55 99/157/54
f 94/131/56 93/130/57 105/158/57 106/159/56
f 91/133/58 90/97/50 102/119/50 103/160/58
f 88/135/59 87/127/54 99/157/54 100/161/59
f 95/137/60 94/131/56 106/159/56 107/162/60
f 92/141/61 91/140/58 103/163/58 104/164/61
f 89/96/51 88/135/59 100/161/59 101/118/51
f 96/122/53 95/137/60 107/162/60 108/154/53
f 85/126/55 86/123/52 98/155/52 97/156/55
f 93/130/57 92/141/61 104/164/61 105/158/57
f 44/57/44 43/63/48 55/65/48 56/64/44
f 109/165/62 110/166/63 116/167/63 115/168/62
f 115/169/64 116/170/64 117/171/64 118/172/64 119/173/64 120/174/64
f 113/175/65 114/176/66 120/177/66 119/178/65
f 111/179/67 112/180/68 118/181/68 117/182/67
f 110/166/63 111/179/67 117/182/67 116/167/63
f 112/183/68 113/175/65 119/178/65 118/184/68
f 114/176/66 109/165/62 115/168/62 120/177/66
f 123/185/69 122/186/70 131/187/70 129/188/69
f 126/189/71 125/185/72 128/188/72 132/190/71
f 122/191/70 121/192/73 130/190/73 131/188/70
f 125/193/72 124/194/74 127/188/74 128/195/72
f 134/196/75 133/197/76 144/198/76 142/199/75
f 137/200/77 136/201/78 141/202/78 139/203/77
f 133/204/76 138/205/79 143/206/79 144/196/76
f 136/207/78 135/198/80 140/197/80 141/208/78
f 147/209/81 154/210/81 152/211/72 145/212/72
f 150/213/69 156/214/69 151/215/70 148/216/70
f 145/200/72 152/217/72 155/207/74 146/218/74
f 148/219/70 151/220/70 153/221/73 149/215/73
f 159/222/77 167/223/77 164/224/78 157/225/78
f 162/226/75 165/213/75 163/212/76 160/211/76
f 157/227/78 164/201/78 168/228/80 158/222/80
f 160/189/76 163/190/76 166/210/79 161/209/79
f 126/229/29 132/230/29 156/231/29 150/232/29
f 142/233/49 144/234/49 164/235/49 167/236/49
f 124/237/64 125/238/64 148/239/64 149/240/64
f 136/241/64 137/242/64 162/243/64 160/244/64
f 129/245/49 131/246/49 152/247/49 154/248/49
f 139/249/49 141/250/49 163/251/49 165/252/49
f 125/238/64 126/253/64 150/254/64 148/239/64
f 132/255/49 128/256/49 151/257/49 156/258/49
f 144/234/49 143/259/49 168/260/49 164/235/49
f 131/246/49 130/261/49 155/262/49 152/247/49
f 141/250/49 140/263/49 166/264/49 163/251/49
f 137/265/15 139/266/15 165/267/15 162/268/15
f 128/256/49 127/269/49 153/270/49 151/257/49
f 127/271/28 124/272/28 149/273/28 153/266/28
f 140/274/82 135/275/82 161/276/82 166/229/82
f 138/277/64 133/278/64 157/279/64 158/264/64
f 123/272/32 129/271/32 154/280/32 147/281/32
f 134/230/28 142/229/28 167/271/28 159/282/28
f 121/283/64 122/284/64 145/285/64 146/286/64
f 133/278/64 134/287/64 159/288/64 157/279/64
f 130/289/15 121/290/15 146/266/15 155/273/15
f 143/291/32 138/271/32 158/266/32 168/265/32
f 122/284/64 123/292/64 147/293/64 145/285/64
f 135/294/64 136/241/64 160/244/64 161/295/64
