# Blender 3.3.1
# www.blender.org
mtllib Rocket.mtl
o Cylinder
v -0.189777 -0.189777 -0.943296
v -0.000000 -0.268385 -0.943296
v -0.000000 -0.200000 -1.000000
v 0.000000 -0.200000 1.000000
v -0.141422 -0.141421 -1.000000
v -0.141421 -0.141421 1.000000
v -0.200000 -0.000000 -1.000000
v -0.200000 0.000000 1.000000
v -0.141422 0.141421 -1.000000
v -0.141421 0.141421 1.000000
v -0.000000 0.200000 -1.000000
v 0.000000 0.200000 1.000000
v 0.141421 0.141421 -1.000000
v 0.141422 0.141421 1.000000
v 0.200000 -0.000000 -1.000000
v 0.200000 0.000000 1.000000
v 0.141421 -0.141421 -1.000000
v 0.141422 -0.141421 1.000000
v -0.268386 -0.000000 -0.943296
v -0.189777 0.189777 -0.943296
v -0.000000 0.268385 -0.943296
v 0.189777 0.189777 -0.943296
v 0.268385 -0.000000 -0.943296
v 0.189777 -0.189777 -0.943296
v -0.012719 -0.290761 1.085875
v -0.012719 0.290761 1.085875
v -0.012719 -0.290761 1.863481
v -0.012719 0.290761 1.863481
v 0.013867 -0.290761 1.085875
v 0.013867 0.290761 1.085875
v 0.013867 -0.290761 1.863481
v 0.013867 0.290761 1.863481
v -0.290187 0.013293 1.085875
v 0.291335 0.013293 1.085875
v -0.290187 0.013293 1.863481
v 0.291335 0.013293 1.863480
v -0.290187 -0.013293 1.085875
v 0.291335 -0.013293 1.085875
v -0.290187 -0.013293 1.863481
v 0.291335 -0.013293 1.863480
v 0.000001 -0.000000 1.841808
v -0.012719 0.000000 0.817682
v -0.012719 0.000000 1.863481
v 0.013867 0.000000 0.817682
v 0.013867 0.000000 1.863481
v 0.000574 0.013293 0.817682
v 0.000574 0.013293 1.863481
v 0.000574 -0.013293 0.817682
v 0.000574 -0.013293 1.863481
v -0.000001 -0.000000 -1.708802
vn -0.8789 -0.3641 -0.3081
vn -0.3827 -0.9239 -0.0000
vn 0.8789 0.3641 -0.3081
vn -0.9239 -0.3827 -0.0000
vn 0.3641 -0.8789 -0.3081
vn -0.9239 0.3827 -0.0000
vn -0.8789 0.3641 -0.3081
vn -0.3827 0.9239 -0.0000
vn 0.8789 -0.3641 -0.3081
vn 0.3827 0.9239 -0.0000
vn -0.3641 0.8789 -0.3081
vn 0.9239 0.3827 -0.0000
vn -0.0000 -0.0000 1.0000
vn 0.9239 -0.3827 -0.0000
vn 0.3641 0.8789 -0.3081
vn 0.3827 -0.9239 -0.0000
vn -0.0000 -0.0000 -1.0000
vn -1.0000 -0.0000 -0.0000
vn 1.0000 -0.0000 -0.0000
vn -0.0000 1.0000 -0.0000
vn -0.0000 0.6780 -0.7351
vn -0.0000 -1.0000 -0.0000
vn 0.6780 -0.0000 -0.7351
vn -0.3738 -0.9024 0.2144
vn 0.3738 -0.9024 0.2144
vn 0.9024 -0.3738 0.2144
vn 0.9024 0.3738 0.2144
vn 0.3738 0.9024 0.2144
vn -0.3738 0.9024 0.2144
vn -0.9024 0.3738 0.2144
vn -0.9024 -0.3738 0.2144
vn -0.0000 -0.6780 -0.7351
vn -0.6780 -0.0000 -0.7351
vn -0.3641 -0.8789 -0.3081
vt 0.919706 0.419706
vt 0.750000 0.490000
vt 1.000000 0.500000
vt 0.000000 0.500000
vt 0.750000 0.490000
vt 1.000000 1.000000
vt 0.000000 1.000000
vt 0.250000 0.490000
vt 0.875000 0.500000
vt 0.919706 0.419706
vt 0.875000 1.000000
vt 0.419706 0.419706
vt 0.750000 0.500000
vt 0.990000 0.250000
vt 0.750000 1.000000
vt 0.490000 0.250000
vt 0.625000 0.500000
vt 0.919706 0.080294
vt 0.625000 1.000000
vt 0.419706 0.080294
vt 0.500000 0.500000
vt 0.750000 0.010000
vt 0.500000 1.000000
vt 0.250000 0.010000
vt 0.375000 0.500000
vt 0.580294 0.080294
vt 0.375000 1.000000
vt 0.080294 0.080294
vt 0.250000 0.500000
vt 0.510000 0.250000
vt 0.250000 1.000000
vt 0.010000 0.250000
vt 0.125000 0.500000
vt 0.580294 0.419706
vt 0.125000 1.000000
vt 0.080294 0.419706
vt 0.990000 0.250000
vt 0.919706 0.080294
vt 0.750000 0.010000
vt 0.580294 0.080294
vt 0.510000 0.250000
vt 0.580294 0.419706
vt 0.000000 0.000000
vt 0.000000 0.000000
vt 0.000000 0.000000
vt 0.000000 0.000000
vt 0.000000 0.000000
vt 0.000000 0.000000
vt 0.000000 0.000000
vt 0.000000 0.000000
vt 0.000000 0.000000
vt 0.000000 0.000000
vt 0.000000 0.000000
vt 0.000000 0.000000
vt 0.000000 0.000000
vt 0.000000 0.000000
vt 0.000000 0.000000
vt 0.000000 0.000000
vt 0.250000 0.250000
vt 0.000000 0.000000
vt 0.000000 0.000000
vt 0.000000 0.000000
vt 0.000000 0.000000
vt 0.000000 0.000000
vt 0.000000 0.000000
vt 0.000000 0.000000
vt 0.000000 0.000000
vt 0.750000 0.250000
s 0
f 19/37/1 50/68/1 1/1/1
f 3/3/2 4/6/2 6/11/2 5/9/2
f 23/41/3 50/68/3 22/40/3
f 5/9/4 6/11/4 8/15/4 7/13/4
f 2/2/5 50/68/5 24/42/5
f 7/13/6 8/15/6 10/19/6 9/17/6
f 20/38/7 50/68/7 19/37/7
f 9/17/8 10/19/8 12/23/8 11/21/8
f 24/42/9 50/68/9 23/41/9
f 11/21/10 12/23/10 14/27/10 13/25/10
f 21/39/11 50/68/11 20/38/11
f 13/25/12 14/27/12 16/31/12 15/29/12
f 28/46/13 43/61/13 45/63/13 32/50/13
f 2/2/13 24/42/13 23/41/13 22/40/13 21/39/13 20/38/13 19/37/13 1/1/13
f 15/29/14 16/31/14 18/35/14 17/33/14
f 22/40/15 50/68/15 21/39/15
f 17/33/16 18/35/16 4/7/16 3/4/16
f 3/5/17 5/10/17 7/14/17 9/18/17 11/22/17 13/26/17 15/30/17 17/34/17
f 42/60/18 43/61/18 28/46/18 26/44/18
f 44/62/19 30/48/19 32/50/19 45/63/19
f 26/44/20 28/46/20 32/50/20 30/48/20
f 42/60/21 26/44/21 30/48/21 44/62/21
f 27/45/22 25/43/22 29/47/22 31/49/22
f 43/61/13 27/45/13 31/49/13 45/63/13
f 46/64/20 47/65/20 36/54/20 34/52/20
f 48/66/22 38/56/22 40/58/22 49/67/22
f 34/52/19 36/54/19 40/58/19 38/56/19
f 46/64/23 34/52/23 38/56/23 48/66/23
f 35/53/18 33/51/18 37/55/18 39/57/18
f 47/65/13 35/53/13 39/57/13 49/67/13
f 6/12/24 4/8/24 41/59/24
f 4/8/25 18/36/25 41/59/25
f 18/36/26 16/32/26 41/59/26
f 16/32/27 14/28/27 41/59/27
f 14/28/28 12/24/28 41/59/28
f 12/24/29 10/20/29 41/59/29
f 10/20/30 8/16/30 41/59/30
f 8/16/31 6/12/31 41/59/31
f 25/43/32 42/60/32 44/62/32 29/47/32
f 29/47/19 44/62/19 45/63/19 31/49/19
f 25/43/18 27/45/18 43/61/18 42/60/18
f 36/54/13 47/65/13 49/67/13 40/58/13
f 33/51/33 46/64/33 48/66/33 37/55/33
f 37/55/22 48/66/22 49/67/22 39/57/22
f 33/51/20 35/53/20 47/65/20 46/64/20
f 1/1/34 50/68/34 2/2/34
