<?xml version="1.0"?>
<COLLADA xmlns="http://www.collada.org/2005/11/COLLADASchema" version="1.4.1">
 <asset>
  <contributor>
   <author></author>
   <authoring_tool>FBX COLLADA exporter</authoring_tool>
   <comments></comments>
  </contributor>
  <created>2026-05-25T00:27:43Z</created>
  <keywords></keywords>
  <modified>2026-05-25T00:27:43Z</modified>
  <revision></revision>
  <subject></subject>
  <title></title>
  <unit meter="0.010000" name="centimeter"></unit>
  <up_axis>Y_UP</up_axis>
 </asset>
 <library_materials>
  <material id="Material.005" name="Material.005">
   <instance_effect url="#Material.005-fx"></instance_effect>
  </material>
 </library_materials>
 <library_effects>
  <effect id="Material.005-fx" name="Material.005">
   <profile_COMMON>
    <technique sid="standard">
     <phong>
      <emission>
       <color sid="emission">0.000000  0.000000 0.000000 1.000000</color>
      </emission>
      <ambient>
       <color sid="ambient">0.000000  0.000000 0.000000 1.000000</color>
      </ambient>
      <diffuse>
       <color sid="diffuse">0.800000  0.800000 0.800000 1.000000</color>
      </diffuse>
      <specular>
       <color sid="specular">0.200000  0.200000 0.200000 1.000000</color>
      </specular>
      <shininess>
       <float sid="shininess">25.000000</float>
      </shininess>
      <reflective>
       <color sid="reflective">0.800000  0.800000 0.800000 1.000000</color>
      </reflective>
      <reflectivity>
       <float sid="reflectivity">0.000000</float>
      </reflectivity>
      <transparent opaque="RGB_ZERO">
       <color sid="transparent">0.000000  0.000000 0.000000 1.000000</color>
      </transparent>
      <transparency>
       <float sid="transparency">0.000000</float>
      </transparency>
     </phong>
    </technique>
   </profile_COMMON>
  </effect>
 </library_effects>
 <library_geometries>
  <geometry id="Cube-lib" name="CubeMesh">
   <mesh>
    <source id="Cube-POSITION">
     <float_array id="Cube-POSITION-array" count="24">
-1.000000 -1.000000 -1.000000
-1.000000 -1.000000 1.000000
-1.000000 1.000000 -1.000000
-1.000000 1.000000 1.000000
1.000000 -1.000000 -1.000000
1.000000 -1.000000 1.000000
1.000000 1.000000 -1.000000
1.000000 1.000000 1.000000
</float_array>
     <technique_common>
      <accessor source="#Cube-POSITION-array" count="8" stride="3">
       <param name="X" type="float"></param>
       <param name="Y" type="float"></param>
       <param name="Z" type="float"></param>
      </accessor>
     </technique_common>
    </source>
    <source id="Cube-Normal0">
     <float_array id="Cube-Normal0-array" count="18">
0.000000 0.000000 1.000000
0.000000 0.000000 -1.000000
0.000000 1.000000 0.000000
0.000000 -1.000000 0.000000
1.000000 0.000000 0.000000
-1.000000 0.000000 0.000000
</float_array>
     <technique_common>
      <accessor source="#Cube-Normal0-array" count="6" stride="3">
       <param name="X" type="float"></param>
       <param name="Y" type="float"></param>
       <param name="Z" type="float"></param>
      </accessor>
     </technique_common>
    </source>
    <source id="Cube-UV0">
     <float_array id="Cube-UV0-array" count="28">
0.375000 0.000000
0.625000 0.000000
0.375000 0.250000
0.625000 0.250000
0.125000 0.500000
0.375000 0.500000
0.625000 0.500000
0.875000 0.500000
0.125000 0.750000
0.375000 0.750000
0.625000 0.750000
0.875000 0.750000
0.375000 1.000000
0.625000 1.000000
</float_array>
     <technique_common>
      <accessor source="#Cube-UV0-array" count="14" stride="2">
       <param name="S" type="float"></param>
       <param name="T" type="float"></param>
      </accessor>
     </technique_common>
    </source>
    <vertices id="Cube-VERTEX">
     <input semantic="POSITION" source="#Cube-POSITION"></input>
    </vertices>
    <triangles count="12" material="Material.005">
     <input semantic="VERTEX" offset="0" source="#Cube-VERTEX"></input>
     <input semantic="NORMAL" offset="1" source="#Cube-Normal0"></input>
     <input semantic="TEXCOORD" offset="2" set="0" source="#Cube-UV0"></input>
     <p> 3 5 3 0 5 0 1 5 1 0 5 0 3 5 3 2 5 2 7 2 6 2 2 2 3 2 3 2 2 2 7 2 6 6 2 5 5 4 10 6 4 5 7 4 6 6 4 5 5 4 10 4 4 9 1 3 13 4 3 9 5 3 10 4 3 9 1 3 13 0 3 12 4 1 9 0 1 8 2 1 4 4 1 9 2 1 4 6 1 5 3 0 7 1 0 11 7 0 6 7 0 6 1 0 11 5 0 10</p>
    </triangles>
   </mesh>
  </geometry>
 </library_geometries>
 <library_controllers>
  <controller id="CubeController">
   <skin source="#Cube-lib">
    <bind_shape_matrix>0.016771 0.000000 -0.000000 0.000000 0.000000 -0.016771 0.000000 0.000000 -0.000000 -0.000000 -0.016771 0.000000 0.000000 0.000000 0.000000 1.000000
</bind_shape_matrix>
    <source id="CubeController-Joints">
     <Name_array id="CubeController-Joints-array" count="2">
 jnt_bino jnt_anim</Name_array>
     <technique_common>
      <accessor source="#CubeController-Joints-array" count="2">
       <param type="name"></param>
      </accessor>
     </technique_common>
    </source>
    <source id="CubeController-Matrices">
     <float_array id="CubeController-Matrices-array" count="32">

1.000000 0.000000 -0.000000 0.000000 -0.000000 0.000000 -1.000000 0.000000 -0.000000 1.000000 0.000000 -0.000000 0.000000 0.000000 0.000000 1.000000
1.000000 0.000000 -0.000000 -0.000000 -0.000000 0.000000 -1.000000 0.000000 -0.000000 1.000000 0.000000 -0.400000 0.000000 0.000000 0.000000 1.000000</float_array>
     <technique_common>
      <accessor source="#CubeController-Matrices-array" count="2" stride="16">
       <param type="float4x4"></param>
      </accessor>
     </technique_common>
    </source>
    <source id="CubeController-Weights">
     <float_array id="CubeController-Weights-array" count="9">

1.000000 1.000000 1.000000 1.000000 1.000000 1.000000 1.000000 1.000000 1.000000</float_array>
     <technique_common>
      <accessor source="#CubeController-Weights-array" count="9">
       <param type="float"></param>
      </accessor>
     </technique_common>
    </source>
    <joints>
     <input semantic="JOINT" source="#CubeController-Joints"></input>
     <input semantic="INV_BIND_MATRIX" source="#CubeController-Matrices"></input>
    </joints>
    <vertex_weights count="8">
     <input semantic="JOINT" offset="0" source="#CubeController-Joints"></input>
     <input semantic="WEIGHT" offset="1" source="#CubeController-Weights"></input>
     <vcount>1 1 1 1 1 1 1 1</vcount>
     <v>1 1 1 2 1 3 1 4 1 5 1 6 1 7 1 8</v>
    </vertex_weights>
   </skin>
  </controller>
 </library_controllers>
 <library_animations>
  <animation id="Armature.002-anim" name="Armature.002">
   <animation>
    <source id="Armature.002-Matrix-animation-input">
     <float_array id="Armature.002-Matrix-animation-input-array" count="13">

0.000000 0.033333 0.066667 0.100000 0.133333 0.166667 0.200000 0.233333 0.266667 0.300000 0.333333 0.366667 0.400000</float_array>
     <technique_common>
      <accessor source="#Armature.002-Matrix-animation-input-array" count="13">
       <param name="TIME" type="float"></param>
      </accessor>
     </technique_common>
    </source>
    <source id="Armature.002-Matrix-animation-output-transform">
     <float_array id="Armature.002-Matrix-animation-output-transform-array" count="208">

1.000000 0.000000 0.000000 0.000000 0.000000 -0.000000 1.000000 0.000000 0.000000 -1.000000 -0.000000 0.000000 0.000000 0.000000 0.000000 1.000000
1.000000 0.000000 0.000000 0.000000 0.000000 -0.000000 1.000000 0.000000 0.000000 -1.000000 -0.000000 0.000000 0.000000 0.000000 0.000000 1.000000
1.000000 0.000000 0.000000 0.000000 0.000000 -0.000000 1.000000 0.000000 0.000000 -1.000000 -0.000000 0.000000 0.000000 0.000000 0.000000 1.000000
1.000000 0.000000 0.000000 0.000000 0.000000 -0.000000 1.000000 0.000000 0.000000 -1.000000 -0.000000 0.000000 0.000000 0.000000 0.000000 1.000000
1.000000 0.000000 0.000000 0.000000 0.000000 -0.000000 1.000000 0.000000 0.000000 -1.000000 -0.000000 0.000000 0.000000 0.000000 0.000000 1.000000
1.000000 0.000000 0.000000 0.000000 0.000000 -0.000000 1.000000 0.000000 0.000000 -1.000000 -0.000000 0.000000 0.000000 0.000000 0.000000 1.000000
1.000000 0.000000 0.000000 0.000000 0.000000 -0.000000 1.000000 0.000000 0.000000 -1.000000 -0.000000 0.000000 0.000000 0.000000 0.000000 1.000000
1.000000 0.000000 0.000000 0.000000 0.000000 -0.000000 1.000000 0.000000 0.000000 -1.000000 -0.000000 0.000000 0.000000 0.000000 0.000000 1.000000
1.000000 0.000000 0.000000 0.000000 0.000000 -0.000000 1.000000 0.000000 0.000000 -1.000000 -0.000000 0.000000 0.000000 0.000000 0.000000 1.000000
1.000000 0.000000 0.000000 0.000000 0.000000 -0.000000 1.000000 0.000000 0.000000 -1.000000 -0.000000 0.000000 0.000000 0.000000 0.000000 1.000000
1.000000 0.000000 0.000000 0.000000 0.000000 -0.000000 1.000000 0.000000 0.000000 -1.000000 -0.000000 0.000000 0.000000 0.000000 0.000000 1.000000
1.000000 0.000000 0.000000 0.000000 0.000000 -0.000000 1.000000 0.000000 0.000000 -1.000000 -0.000000 0.000000 0.000000 0.000000 0.000000 1.000000
1.000000 0.000000 0.000000 0.000000 0.000000 -0.000000 1.000000 0.000000 0.000000 -1.000000 -0.000000 0.000000 0.000000 0.000000 0.000000 1.000000</float_array>
     <technique_common>
      <accessor source="#Armature.002-Matrix-animation-output-transform-array" count="13" stride="16">
       <param type="float4x4"></param>
      </accessor>
     </technique_common>
    </source>
    <source id="Armature.002-Interpolations">
     <Name_array id="Armature.002-Interpolations-array" count="13">
 LINEAR LINEAR LINEAR LINEAR LINEAR LINEAR LINEAR LINEAR LINEAR LINEAR LINEAR
LINEAR LINEAR</Name_array>
     <technique_common>
      <accessor source="#Armature.002-Interpolations-array" count="13">
       <param type="name"></param>
      </accessor>
     </technique_common>
    </source>
    <sampler id="Armature.002-Matrix-animation-transform">
     <input semantic="INPUT" source="#Armature.002-Matrix-animation-input"></input>
     <input semantic="OUTPUT" source="#Armature.002-Matrix-animation-output-transform"></input>
     <input semantic="INTERPOLATION" source="#Armature.002-Interpolations"></input>
    </sampler>
    <channel source="#Armature.002-Matrix-animation-transform" target="Armature.002/matrix"></channel>
   </animation>
  </animation>
  <animation id="jnt_bino-anim" name="jnt_bino">
   <animation>
    <source id="jnt_bino-Matrix-animation-input">
     <float_array id="jnt_bino-Matrix-animation-input-array" count="13">

0.000000 0.033333 0.066667 0.100000 0.133333 0.166667 0.200000 0.233333 0.266667 0.300000 0.333333 0.366667 0.400000</float_array>
     <technique_common>
      <accessor source="#jnt_bino-Matrix-animation-input-array" count="13">
       <param name="TIME" type="float"></param>
      </accessor>
     </technique_common>
    </source>
    <source id="jnt_bino-Matrix-animation-output-transform">
     <float_array id="jnt_bino-Matrix-animation-output-transform-array" count="208">

1.000000 -0.000000 -0.000000 0.000000 0.000000 1.000000 0.000000 -0.000000 0.000000 0.000000 1.000000 0.000000 0.000000 0.000000 0.000000 1.000000
1.000000 -0.000000 -0.000000 0.000000 0.000000 1.000000 0.000000 -0.000000 0.000000 0.000000 1.000000 0.000000 0.000000 0.000000 0.000000 1.000000
1.000000 -0.000000 -0.000000 0.000000 0.000000 1.000000 0.000000 -0.000000 0.000000 0.000000 1.000000 0.000000 0.000000 0.000000 0.000000 1.000000
1.000000 -0.000000 -0.000000 0.000000 0.000000 1.000000 0.000000 -0.000000 0.000000 0.000000 1.000000 0.000000 0.000000 0.000000 0.000000 1.000000
1.000000 -0.000000 -0.000000 0.000000 0.000000 1.000000 0.000000 -0.000000 0.000000 0.000000 1.000000 0.000000 0.000000 0.000000 0.000000 1.000000
1.000000 -0.000000 -0.000000 0.000000 0.000000 1.000000 0.000000 -0.000000 0.000000 0.000000 1.000000 0.000000 0.000000 0.000000 0.000000 1.000000
1.000000 -0.000000 -0.000000 0.000000 0.000000 1.000000 0.000000 -0.000000 0.000000 0.000000 1.000000 0.000000 0.000000 0.000000 0.000000 1.000000
1.000000 -0.000000 -0.000000 0.000000 0.000000 1.000000 0.000000 -0.000000 0.000000 0.000000 1.000000 0.000000 0.000000 0.000000 0.000000 1.000000
1.000000 -0.000000 -0.000000 0.000000 0.000000 1.000000 0.000000 -0.000000 0.000000 0.000000 1.000000 0.000000 0.000000 0.000000 0.000000 1.000000
1.000000 -0.000000 -0.000000 0.000000 0.000000 1.000000 0.000000 -0.000000 0.000000 0.000000 1.000000 0.000000 0.000000 0.000000 0.000000 1.000000
1.000000 -0.000000 -0.000000 0.000000 0.000000 1.000000 0.000000 -0.000000 0.000000 0.000000 1.000000 0.000000 0.000000 0.000000 0.000000 1.000000
1.000000 -0.000000 -0.000000 0.000000 0.000000 1.000000 0.000000 -0.000000 0.000000 0.000000 1.000000 0.000000 0.000000 0.000000 0.000000 1.000000
1.000000 -0.000000 -0.000000 0.000000 0.000000 1.000000 0.000000 -0.000000 0.000000 0.000000 1.000000 0.000000 0.000000 0.000000 0.000000 1.000000</float_array>
     <technique_common>
      <accessor source="#jnt_bino-Matrix-animation-output-transform-array" count="13" stride="16">
       <param type="float4x4"></param>
      </accessor>
     </technique_common>
    </source>
    <source id="jnt_bino-Interpolations">
     <Name_array id="jnt_bino-Interpolations-array" count="13">
 LINEAR LINEAR LINEAR LINEAR LINEAR LINEAR LINEAR LINEAR LINEAR LINEAR LINEAR
LINEAR LINEAR</Name_array>
     <technique_common>
      <accessor source="#jnt_bino-Interpolations-array" count="13">
       <param type="name"></param>
      </accessor>
     </technique_common>
    </source>
    <sampler id="jnt_bino-Matrix-animation-transform">
     <input semantic="INPUT" source="#jnt_bino-Matrix-animation-input"></input>
     <input semantic="OUTPUT" source="#jnt_bino-Matrix-animation-output-transform"></input>
     <input semantic="INTERPOLATION" source="#jnt_bino-Interpolations"></input>
    </sampler>
    <channel source="#jnt_bino-Matrix-animation-transform" target="jnt_bino/matrix"></channel>
   </animation>
  </animation>
  <animation id="jnt_anim-anim" name="jnt_anim">
   <animation>
    <source id="jnt_anim-Matrix-animation-input">
     <float_array id="jnt_anim-Matrix-animation-input-array" count="13">

0.000000 0.033333 0.066667 0.100000 0.133333 0.166667 0.200000 0.233333 0.266667 0.300000 0.333333 0.366667 0.400000</float_array>
     <technique_common>
      <accessor source="#jnt_anim-Matrix-animation-input-array" count="13">
       <param name="TIME" type="float"></param>
      </accessor>
     </technique_common>
    </source>
    <source id="jnt_anim-Matrix-animation-output-transform">
     <float_array id="jnt_anim-Matrix-animation-output-transform-array" count="208">

1.000000 0.000000 -0.000000 0.000000 -0.000000 1.000000 0.000000 -0.000000 -0.000000 0.000000 1.000000 0.400000 0.000000 0.000000 0.000000 1.000000
1.000000 0.000000 -0.000000 0.000000 -0.000000 1.000000 0.000000 -0.000000 -0.000000 0.000000 1.000000 0.400000 0.000000 0.000000 0.000000 1.000000
1.000000 0.000000 -0.000000 0.000000 -0.000000 1.000000 0.000000 -0.000000 -0.000000 0.000000 1.000000 0.400000 0.000000 0.000000 0.000000 1.000000
1.000000 0.000000 -0.000000 0.000000 -0.000000 1.000000 0.000000 -0.000000 -0.000000 0.000000 1.000000 0.400000 0.000000 0.000000 0.000000 1.000000
1.000000 0.000000 -0.000000 0.000000 -0.000000 1.000000 0.000000 -0.000000 -0.000000 0.000000 1.000000 0.400000 0.000000 0.000000 0.000000 1.000000
1.000000 0.000000 -0.000000 0.000000 -0.000000 1.000000 0.000000 -0.000000 -0.000000 0.000000 1.000000 0.400000 0.000000 0.000000 0.000000 1.000000
1.000000 0.000000 -0.000000 0.000000 -0.000000 1.000000 0.000000 -0.000000 -0.000000 0.000000 1.000000 0.400000 0.000000 0.000000 0.000000 1.000000
1.000000 0.000000 -0.000000 0.000000 -0.000000 1.000000 0.000000 -0.000000 -0.000000 0.000000 1.000000 0.400000 0.000000 0.000000 0.000000 1.000000
1.000000 0.000000 -0.000000 0.000000 -0.000000 1.000000 0.000000 -0.000000 -0.000000 0.000000 1.000000 0.400000 0.000000 0.000000 0.000000 1.000000
1.000000 0.000000 -0.000000 0.000000 -0.000000 1.000000 0.000000 -0.000000 -0.000000 0.000000 1.000000 0.400000 0.000000 0.000000 0.000000 1.000000
1.000000 0.000000 -0.000000 0.000000 -0.000000 1.000000 0.000000 -0.000000 -0.000000 0.000000 1.000000 0.400000 0.000000 0.000000 0.000000 1.000000
1.000000 0.000000 -0.000000 0.000000 -0.000000 1.000000 0.000000 -0.000000 -0.000000 0.000000 1.000000 0.400000 0.000000 0.000000 0.000000 1.000000
1.000000 0.000000 -0.000000 0.000000 -0.000000 1.000000 0.000000 -0.000000 -0.000000 0.000000 1.000000 0.400000 0.000000 0.000000 0.000000 1.000000</float_array>
     <technique_common>
      <accessor source="#jnt_anim-Matrix-animation-output-transform-array" count="13" stride="16">
       <param type="float4x4"></param>
      </accessor>
     </technique_common>
    </source>
    <source id="jnt_anim-Interpolations">
     <Name_array id="jnt_anim-Interpolations-array" count="13">
 LINEAR LINEAR LINEAR LINEAR LINEAR LINEAR LINEAR LINEAR LINEAR LINEAR LINEAR
LINEAR LINEAR</Name_array>
     <technique_common>
      <accessor source="#jnt_anim-Interpolations-array" count="13">
       <param type="name"></param>
      </accessor>
     </technique_common>
    </source>
    <sampler id="jnt_anim-Matrix-animation-transform">
     <input semantic="INPUT" source="#jnt_anim-Matrix-animation-input"></input>
     <input semantic="OUTPUT" source="#jnt_anim-Matrix-animation-output-transform"></input>
     <input semantic="INTERPOLATION" source="#jnt_anim-Interpolations"></input>
    </sampler>
    <channel source="#jnt_anim-Matrix-animation-transform" target="jnt_anim/matrix"></channel>
   </animation>
  </animation>
 </library_animations>
 <library_visual_scenes>
  <visual_scene id="Scene" name="Scene">
   <node name="jnt_bino" id="jnt_bino" sid="jnt_bino" type="JOINT">
    <matrix sid="matrix">1.000000 -0.000000 -0.000000 0.000000 0.000000 1.000000 0.000000 -0.000000 0.000000 0.000000 1.000000 0.000000 0.000000 0.000000 0.000000 1.000000</matrix>
    <extra>
     <technique profile="FCOLLADA">
      <visibility>1.000000</visibility>
     </technique>
    </extra>
    <node name="jnt_anim" id="jnt_anim" sid="jnt_anim" type="JOINT">
     <matrix sid="matrix">1.000000 0.000000 -0.000000 0.000000 -0.000000 1.000000 0.000000 -0.000000 -0.000000 0.000000 1.000000 0.400000 0.000000 0.000000 0.000000 1.000000</matrix>
     <extra>
      <technique profile="FCOLLADA">
       <visibility>1.000000</visibility>
      </technique>
     </extra>
    </node>
   </node>
   <node name="Cube" id="Cube" sid="Cube">
    <instance_controller url="#CubeController">
     <bind_material>
      <technique_common>
       <instance_material symbol="Material.005" target="#Material.005"></instance_material>
      </technique_common>
     </bind_material>
    </instance_controller>
    <extra>
     <technique profile="FCOLLADA">
      <visibility>1.000000</visibility>
     </technique>
    </extra>
   </node>
   <extra>
    <technique profile="MAX3D">
     <frame_rate>24.000000</frame_rate>
    </technique>
    <technique profile="FCOLLADA">
     <start_time>0.000000</start_time>
     <end_time>1.000000</end_time>
    </technique>
   </extra>
  </visual_scene>
 </library_visual_scenes>
 <scene>
  <instance_visual_scene url="#Scene"></instance_visual_scene>
 </scene>
</COLLADA>
